<?xml version="1.0" encoding="UTF-8"?>
<svg id="Capa_1" data-name="Capa 1" xmlns="http://www.w3.org/2000/svg" viewBox="0 0 300 300">
  <defs>
    <style>
      .cls-1 {
        fill: #1d1d1b;
      }

      .cls-1, .cls-2, .cls-3, .cls-4 {
        stroke-width: 0px;
      }

      .cls-2 {
        fill: #009be0;
      }

      .cls-3 {
        fill: #ff287b;
      }

      .cls-4 {
        fill: #ef0043;
      }

      .cls-5 {
        fill: none;
        stroke: #1d1d1b;
        stroke-miterlimit: 10;
        stroke-width: .5px;
      }
    </style>
  </defs>
  <g>
    <rect class="cls-5" x="26.28" y="20.11" width="255.37" height="255.37" rx="30.69" ry="30.69"/>
    <path class="cls-2" d="m252.05,275.47H58.07c-26.72,0-31.57-23.36-31.57-23.36h254.26s-5.5,23.36-28.7,23.36Z"/>
    <path class="cls-3" d="m252.83,20.11H58.85c-26.72,0-31.57,23.36-31.57,23.36h254.26s-5.5-23.36-28.7-23.36Z"/>
  </g>
  <path class="cls-1" d="m151.24,27.02l87.66,125.78-87.66,120.23-90.13-120.23L151.24,27.02m.01-1.73l-91.38,127.52,91.38,121.9,88.88-121.9L151.25,25.29h0Z"/>
  <path class="cls-1" d="m151.02,48.47l72.38,103.84-72.38,99.26-74.41-99.26,74.41-103.84m.01-1.73l-75.66,105.59,75.66,100.93,73.59-100.93-73.59-105.59h0Z"/>
  <g>
    <path class="cls-4" d="m150.66,155.39c-3.23-5.08-8.28-11.75-15.62-17.44-13.15-10.2-26.04-11.34-32.27-11.35,4.41-3.15,14.78-9.48,27.86-7.38,4.64.74,8.55,2.37,11.61,4.06,2.32-6.28,4.64-12.55,6.97-18.83,2.52,5.78,5.03,11.57,7.55,17.35,2.9-2.1,6.69-4.26,11.32-5.54,13.56-3.73,24.83,2.77,29.02,5.54-6,.45-18.98,2.49-31.63,14.03-7.26,6.62-11.96,14.12-14.8,19.56Z"/>
    <path class="cls-4" d="m134.75,150.97c3.17,1.84,6.35,3.68,9.52,5.53-1.98,1.8-6.67,6.61-9,15.13-1.33,4.86-1.41,9.19-1.27,11.99-4.02-.54-9.14-.75-14.98.2-7.84,1.26-14.15,4.14-18.56,6.67,2.26-5.87,6.48-14.99,13.91-23.65,7.69-8.96,15.49-13.55,20.37-15.86Z"/>
    <polygon class="cls-4" points="159.37 155.39 172.14 141.73 175.62 148.56 163.43 161.3 159.37 155.39"/>
    <polygon class="cls-4" points="165.41 165.17 178.18 151.52 181.66 158.34 169.47 171.08 165.41 165.17"/>
    <path class="cls-4" d="m173.3,175.69c3.87-3.81,7.74-7.63,11.61-11.44,2.32.5,5.81,1.7,9.29,4.8,8.1,7.22,9.59,18.92,9.87,21.44-4.39-3.83-10.61-8.31-18.57-11.47-4.48-1.78-8.62-2.77-12.19-3.32Z"/>
  </g>
</svg>