<?xml version="1.0" encoding="UTF-8"?>
<svg id="Capa_3" data-name="Capa 3" xmlns="http://www.w3.org/2000/svg" viewBox="0 0 300 300">
  <defs>
    <style>
      .cls-1 {
        fill: #0097cd;
      }

      .cls-1, .cls-2, .cls-3 {
        stroke: #fff;
        stroke-miterlimit: 10;
      }

      .cls-2, .cls-4 {
        fill: #fff;
      }

      .cls-3 {
        fill: #fb1a6e;
      }

      .cls-4 {
        stroke-width: 0px;
      }
    </style>
  </defs>
  <path class="cls-1" d="m10,217.92c33.25-15.06,66.49-30.13,99.74-45.19,2.98,4.11,12.12,15.55,28.05,19.48,20.1,4.97,43.25-3.94,53.93-22.38,8.3-14.33,6-29.11,5.03-33.98l62.6-28.57c3.56,10.62,9.49,33.05,4.42,60.78-6.26,34.22-25.39,55.26-29.61,59.74-27.52,29.23-61.56,34.3-70.13,35.32-8.92,1.07-42.76,4.08-75.58-17.14-14.59-9.43-24.07-20.48-29.61-28.05H10Z"/>
  <path class="cls-3" d="m290.51,76.55c-33.25,15.06-66.49,30.13-99.74,45.19-2.98-4.11-12.12-15.55-28.05-19.48-20.1-4.97-43.25,3.94-53.93,22.38-8.3,14.33-6,29.11-5.03,33.98l-62.6,28.57c-3.56-10.62-9.49-33.05-4.42-60.78,6.26-34.22,25.39-55.26,29.61-59.74,27.52-29.23,61.56-34.3,70.13-35.32,8.92-1.07,42.76-4.08,75.58,17.14,14.59,9.43,24.07,20.48,29.61,28.05,16.28,0,32.55,0,48.83,0Z"/>
  <path class="cls-4" d="m201.65,231.87c7.02-6.44,8.39-16.91,3.51-24.54-5.31-8.32-16.73-11.22-25.82-6.12-6.06,4.34-17.83,11.47-34.18,13.61-27.17,3.54-47.58-9.24-53.2-13.04,1.89,4.76,12.61,30.48,40.26,40.99,18.53,7.04,35.18,3.66,40.29,2.55,13.91-3.02,23.81-9.4,29.14-13.44Z"/>
  <path class="cls-4" d="m49.74,143.12c1.01,9.47,8.63,16.79,17.66,17.4,9.84.67,18.97-6.8,20.26-17.14.11-7.46,1.36-21.16,9.35-35.58,13.28-23.96,35.69-32.8,42.08-35.06-4.95-1.31-32.01-7.95-56.88,8.05-16.67,10.72-23.83,26.14-25.97,30.91-5.83,12.99-6.57,24.74-6.49,31.43Z"/>
  <path class="cls-2" d="m200.39,60.98c-8.91-3.36-18.88.14-23.5,7.92-5.03,8.49-2.48,20,6.17,25.81,6.61,3.46,18.28,10.75,27.55,24.38,15.41,22.65,13.19,46.64,12.34,53.37,3.4-3.83,21.52-25,18.45-54.41-2.06-19.71-12.59-33.05-15.89-37.12-8.97-11.06-19.12-17.02-25.13-19.96Z"/>
</svg>