<svg xmlns="http://www.w3.org/2000/svg" viewBox="0 0 300 300"><defs><style>.cls-1{fill:#6e7fbe;}.cls-2{fill:#d04544;}.cls-3{fill:none;stroke:#fff;stroke-miterlimit:10;stroke-width:5px;}.cls-4{fill:#fff;}</style></defs><g id="Capa_1" data-name="Capa 1"><path class="cls-1" d="M150,10a140,140,0,0,1,0,280Z"/><path class="cls-2" d="M150,10V290a140,140,0,0,1,0-280Z"/><circle class="cls-3" cx="150" cy="150" r="140"/></g><g id="Capa_2" data-name="Capa 2"><path class="cls-4" d="M137.46,60.1h24.19l12.57,0a14,14,0,0,0-8.88,4,13.75,13.75,0,0,0-3.69,7V229a20.42,20.42,0,0,0,3.36,4.44,22.58,22.58,0,0,0,12.74,6.21c-6.9,0-12.46,0-16.1,0-11.58,0-15.83-.17-23,0-6.44.13-11.62.4-14.75.59a22.29,22.29,0,0,0,10-5.32,21.9,21.9,0,0,0,4.19-5.36q-.48-39.75-.63-79.49-.15-39.48,0-79a17.84,17.84,0,0,0-15.21-11.32Z"/></g></svg>