<svg xmlns="http://www.w3.org/2000/svg" viewBox="0 0 300 300"><defs><style>.cls-1{fill:#312783;}.cls-2{fill:#e30613;}.cls-3{fill:none;stroke:#fff;stroke-miterlimit:10;stroke-width:5px;}.cls-4{fill:#fff;}</style></defs><g id="Capa_1" data-name="Capa 1"><path class="cls-1" d="M150,10a140,140,0,0,1,0,280Z"/><path class="cls-2" d="M150,10V290a140,140,0,0,1,0-280Z"/><circle class="cls-3" cx="150" cy="150" r="140"/></g><g id="Capa_2" data-name="Capa 2"><path class="cls-4" d="M97.49,63.13h24.19l12.58-.05a14,14,0,0,0-8.89,4,13.81,13.81,0,0,0-3.69,7V232.05a21.08,21.08,0,0,0,3.36,4.44,22.64,22.64,0,0,0,12.74,6.21c-6.89,0-12.46,0-16.1,0-11.58-.06-15.82-.18-23,0-6.45.13-11.63.41-14.76.6a22.36,22.36,0,0,0,10-5.33,21.83,21.83,0,0,0,4.18-5.36q-.47-39.75-.63-79.49-.15-39.48,0-79a17.84,17.84,0,0,0-15.2-11.32Z"/><path class="cls-4" d="M136.46,63.13h24.19l12.57-.05a14,14,0,0,0-8.88,4,13.73,13.73,0,0,0-3.69,7V232.05a20.42,20.42,0,0,0,3.36,4.44,22.58,22.58,0,0,0,12.74,6.21c-6.9,0-12.46,0-16.1,0-11.58-.06-15.83-.18-23,0-6.44.13-11.62.41-14.75.6a22.33,22.33,0,0,0,10-5.33,21.9,21.9,0,0,0,4.19-5.36q-.48-39.75-.63-79.49-.15-39.48,0-79a17.84,17.84,0,0,0-15.21-11.32Z"/><path class="cls-4" d="M176.43,63.13h24.18l12.58-.05a13.93,13.93,0,0,0-8.88,4,13.77,13.77,0,0,0-3.7,7V232.05a20.82,20.82,0,0,0,3.37,4.44,22.59,22.59,0,0,0,12.73,6.21c-6.89,0-12.46,0-16.1,0-11.58-.06-15.82-.18-23,0-6.45.13-11.63.41-14.76.6a22.36,22.36,0,0,0,10-5.33,21.58,21.58,0,0,0,4.18-5.36q-.47-39.75-.62-79.49-.17-39.48,0-79a17.84,17.84,0,0,0-15.21-11.32Z"/></g></svg>