<svg xmlns="http://www.w3.org/2000/svg" viewBox="0 0 300 300"><defs><style>.cls-1{fill:#ed71a8;}.cls-2{fill:#96d5f6;}.cls-3{fill:none;stroke:#fff;stroke-miterlimit:10;stroke-width:5px;}.cls-4{fill:#fff;}</style></defs><g id="Capa_1" data-name="Capa 1"><path class="cls-1" d="M150,10a140,140,0,0,1,0,280Z"/><path class="cls-2" d="M150,10V290a140,140,0,0,1,0-280Z"/><circle class="cls-3" cx="150" cy="150" r="140"/></g><g id="Capa_2" data-name="Capa 2"><path class="cls-4" d="M120.63,60.22l-7.21,0a20.91,20.91,0,0,1,5.83,5,21.58,21.58,0,0,1,4.57,11.54l31.47,163.06h19.19q15.89-81,31.78-162c.29-2.46,1.44-9.33,7.15-14.37a20.82,20.82,0,0,1,5-3.25l-8.73,0H187.15l-9.62,0A13.32,13.32,0,0,1,182,63.77c3.82,4.78,2.85,10.66,2.65,11.75l-19.5,119.84Q156,135.27,146.77,75.18c-.15-.78-1.11-6.67,3-11.2a12.7,12.7,0,0,1,6.36-3.76H120.63Z"/><path class="cls-4" d="M96.75,60.1h24.19l12.58,0a14,14,0,0,0-8.89,4,13.83,13.83,0,0,0-3.69,7V229a21.08,21.08,0,0,0,3.36,4.44A22.64,22.64,0,0,0,137,239.68c-6.89,0-12.46,0-16.1,0-11.58,0-15.82-.17-23,0-6.44.13-11.62.4-14.75.59a22.31,22.31,0,0,0,10-5.32,21.83,21.83,0,0,0,4.18-5.36q-.47-39.75-.63-79.49-.15-39.48,0-79a17.84,17.84,0,0,0-15.2-11.32Z"/></g></svg>