<svg xmlns="http://www.w3.org/2000/svg" viewBox="0 0 300 300"><defs><style>.cls-1,.cls-5{fill:#fff;}.cls-2,.cls-6{fill:#1d1d1b;}.cls-3,.cls-4{fill:none;}.cls-3,.cls-4,.cls-5,.cls-6{stroke:#1d1d1b;stroke-miterlimit:10;}.cls-3{stroke-width:5px;}</style></defs><g id="Capa_1" data-name="Capa 1"><path class="cls-1" d="M150,10a140,140,0,0,1,0,280Z"/><path class="cls-2" d="M150,10V290a140,140,0,0,1,0-280Z"/><circle class="cls-3" cx="150" cy="150" r="140"/><line class="cls-4" x1="150" y1="10" x2="150" y2="290"/></g><g id="Capa_2" data-name="Capa 2"><path class="cls-5" d="M104.69,60.05l-7.21,0a21.08,21.08,0,0,1,5.83,5,21.58,21.58,0,0,1,4.57,11.54l31.47,163.07h19.19q15.89-81,31.78-162c.29-2.45,1.44-9.32,7.15-14.36A20.09,20.09,0,0,1,202.52,60l-8.74,0H171.21l-9.62,0a13.2,13.2,0,0,1,4.49,3.58c3.82,4.78,2.85,10.65,2.65,11.74l-19.5,119.84Q140,135.1,130.83,75c-.15-.79-1.11-6.67,3-11.21a12.77,12.77,0,0,1,6.36-3.76H104.69Z"/><path class="cls-6" d="M148.72,240h9.8q15.89-81,31.78-162c.29-2.45,1.44-9.32,7.15-14.36a20.23,20.23,0,0,1,5-3.25l-8.73,0H171.19l-9.62,0A13.32,13.32,0,0,1,166.06,64c3.82,4.78,2.85,10.65,2.65,11.74l-19.5,119.84"/></g></svg>