<svg xmlns="http://www.w3.org/2000/svg" viewBox="0 0 300 300"><defs><style>.cls-1{fill:#d60b52;}.cls-2{fill:#1d71b8;}.cls-3{fill:none;stroke:#fff;stroke-miterlimit:10;stroke-width:5px;}.cls-4{fill:#fff;}</style></defs><g id="Capa_1" data-name="Capa 1"><path class="cls-1" d="M150,10a140,140,0,0,1,0,280Z"/><path class="cls-2" d="M150,10V290a140,140,0,0,1,0-280Z"/><circle class="cls-3" cx="150" cy="150" r="140"/></g><g id="Capa_2" data-name="Capa 2"><path class="cls-4" d="M179.13,60.1h24.19l12.57,0a14,14,0,0,0-8.88,4,13.67,13.67,0,0,0-3.69,7V229a20.42,20.42,0,0,0,3.36,4.44,22.59,22.59,0,0,0,12.73,6.21c-6.89,0-12.45,0-16.09,0-11.59,0-15.83-.17-23,0-6.45.13-11.63.4-14.76.59a22.31,22.31,0,0,0,10-5.32,21.58,21.58,0,0,0,4.18-5.36q-.47-39.75-.62-79.49-.16-39.48,0-79a17.84,17.84,0,0,0-15.21-11.32Z"/><path class="cls-4" d="M87.79,60.24l-7.2,0a21,21,0,0,1,5.82,5A21.58,21.58,0,0,1,91,76.74L122.45,239.8h19.19q15.88-81,31.79-162c.28-2.45,1.43-9.32,7.15-14.36a20.16,20.16,0,0,1,5-3.25l-8.74,0H154.31l-9.62,0a13.32,13.32,0,0,1,4.49,3.58c3.82,4.78,2.85,10.66,2.65,11.74q-9.75,59.93-19.49,119.85-9.21-60.09-18.41-120.18c-.15-.79-1.11-6.67,3-11.2a12.62,12.62,0,0,1,6.36-3.76H87.79Z"/></g></svg>