<svg xmlns="http://www.w3.org/2000/svg" viewBox="0 0 300 300"><defs><style>.cls-1{fill:#ea507f;}.cls-2{fill:#36a9e1;}.cls-3{fill:none;stroke:#fff;stroke-miterlimit:10;stroke-width:5px;}.cls-4{fill:#fff;}</style></defs><g id="Capa_1" data-name="Capa 1"><path class="cls-1" d="M150,10a140,140,0,0,1,0,280Z"/><path class="cls-2" d="M150,10V290a140,140,0,0,1,0-280Z"/><circle class="cls-3" cx="150" cy="150" r="140"/></g><g id="Capa_2" data-name="Capa 2"><path class="cls-4" d="M144.54,60.1h24.19l12.57,0a14,14,0,0,0-8.88,4,13.75,13.75,0,0,0-3.69,7V229a20.42,20.42,0,0,0,3.36,4.44,22.58,22.58,0,0,0,12.74,6.21c-6.9,0-12.46,0-16.1,0-11.58,0-15.83-.17-23,0-6.44.13-11.62.4-14.75.59a22.29,22.29,0,0,0,10-5.32,21.9,21.9,0,0,0,4.19-5.36q-.48-39.75-.63-79.49-.15-39.48,0-79a17.84,17.84,0,0,0-15.21-11.32Z"/><path class="cls-4" d="M178.16,60.1h24.19l12.57,0a14,14,0,0,0-8.88,4,13.75,13.75,0,0,0-3.69,7V229a20.42,20.42,0,0,0,3.36,4.44,22.58,22.58,0,0,0,12.74,6.21c-6.9,0-12.46,0-16.1,0-11.59,0-15.83-.17-23,0-6.45.13-11.63.4-14.76.59a22.31,22.31,0,0,0,10-5.32,21.9,21.9,0,0,0,4.19-5.36q-.48-39.75-.63-79.49-.16-39.48,0-79A17.84,17.84,0,0,0,163,59.77Z"/><path class="cls-4" d="M213.71,60.1H237.9l12.58,0a14,14,0,0,0-8.89,4,13.83,13.83,0,0,0-3.69,7V229a21.08,21.08,0,0,0,3.36,4.44A22.64,22.64,0,0,0,254,239.68c-6.89,0-12.46,0-16.1,0-11.58,0-15.82-.17-23,0-6.44.13-11.62.4-14.75.59a22.29,22.29,0,0,0,10-5.32,21.9,21.9,0,0,0,4.19-5.36q-.47-39.75-.63-79.49-.15-39.48,0-79A17.84,17.84,0,0,0,198.5,59.77Z"/><path class="cls-4" d="M53.21,60.24,46,60.2a20.89,20.89,0,0,1,5.82,5,21.58,21.58,0,0,1,4.57,11.54L87.86,239.8h19.19q15.9-81,31.79-162c.29-2.45,1.44-9.32,7.15-14.36a20.16,20.16,0,0,1,5-3.25l-8.74,0H119.73l-9.63,0a13.32,13.32,0,0,1,4.49,3.58c3.83,4.78,2.85,10.66,2.65,11.74q-9.75,59.93-19.49,119.85Q88.54,135.29,79.34,75.2c-.14-.79-1.11-6.67,3-11.2a12.68,12.68,0,0,1,6.37-3.76H53.21Z"/></g></svg>