<?xml version="1.0" encoding="UTF-8"?>
<svg id="Capa_1" data-name="Capa 1" xmlns="http://www.w3.org/2000/svg" viewBox="0 0 300 300">
  <defs>
    <style>
      .cls-1 {
        fill: none;
        stroke: #fff;
        stroke-miterlimit: 10;
        stroke-width: 5px;
      }

      .cls-2 {
        fill: #630b57;
      }

      .cls-2, .cls-3, .cls-4 {
        stroke-width: 0px;
      }

      .cls-3 {
        fill: #fff;
      }

      .cls-4 {
        fill: #ff0040;
      }
    </style>
  </defs>
  <g id="Capa_1-2" data-name="Capa 1">
    <path class="cls-2" d="m150,10c77.32,0,140,62.68,140,140s-62.68,140-140,140V10Z"/>
    <path class="cls-4" d="m150,10v280c-77.32,0-140-62.68-140-140S72.68,10,150,10Z"/>
    <circle class="cls-1" cx="150" cy="150" r="140"/>
  </g>
  <g>
    <path class="cls-3" d="m88.19,60.11h39.92c-3.63.23-7.05,1.65-9.64,4-2.05,1.92-3.44,4.36-4.01,7v157.93c.99,1.63,2.22,3.12,3.65,4.44,3.77,3.38,8.62,5.56,13.83,6.21h-17.48c-12.57,0-17.19-.17-24.97,0-6.99.13-12.62.4-16.02.59,4.06-.88,7.8-2.72,10.86-5.32,1.81-1.56,3.35-3.37,4.55-5.36-.35-26.5-.58-53.01-.68-79.5-.11-26.32-.11-52.66,0-79.01-2.69-6.38-9.11-10.78-16.52-11.32l16.52.35Z"/>
    <path class="cls-3" d="m135.61,60.04l-7.83-.02c2.42.76,4.57,1.75,6.32,2.93,2.85,1.94,4.57,4.29,4.96,6.76l34.17,95.56h20.84c11.51-31.65,23.02-63.29,34.52-94.94.31-1.44,1.56-5.46,7.76-8.42,1.62-.78,3.45-1.42,5.43-1.9h-44.4c1.89.5,3.55,1.22,4.88,2.1,4.16,2.8,3.09,6.25,2.88,6.88-7.06,23.41-14.11,46.83-21.16,70.24-6.67-23.47-13.33-46.94-19.99-70.42-.15-.46-1.21-3.91,3.26-6.56,1.85-1.09,4.26-1.86,6.92-2.2,0,0-38.55,0-38.55,0Z"/>
    <path class="cls-3" d="m174.15,240.25c-2.66-.35-5.07-1.11-6.92-2.2-4.46-2.65-3.41-6.1-3.26-6.56,6.66-23.48,13.32-46.95,19.99-70.42,7.05,23.41,14.11,46.82,21.16,70.24.22.63,1.28,4.08-2.88,6.88-1.32.88-2.99,1.6-4.88,2.1h44.4c-1.97-.49-3.8-1.13-5.43-1.9-6.2-2.95-7.45-6.98-7.76-8.42-11.5-31.65-23.01-63.29-34.52-94.94h-20.84l-34.17,95.56c-.39,2.47-2.12,4.82-4.96,6.76-1.75,1.18-3.9,2.17-6.32,2.93l7.83-.02s38.55,0,38.55,0Z"/>
  </g>
</svg>