<svg id="Capa_1" data-name="Capa 1" xmlns="http://www.w3.org/2000/svg" viewBox="0 0 300 300"><defs><style>.cls-1{fill:#00a2de;}.cls-2{fill:#ef7fb0;}</style></defs><path class="cls-1" d="M181,17.1q2.68,19.47,5.39,38.95L175.28,44.6,145.83,74.05A54.65,54.65,0,1,1,124.7,52.91l29.06-29.06L143.38,13.08ZM117.41,120a27.33,27.33,0,1,0-38.65,0A27.33,27.33,0,0,0,117.41,120Z"/><path class="cls-2" d="M256.59,167a54.67,54.67,0,0,1-39.72,52.58v18.91h22.26v29.89H216.87v18.49H187V268.42H165.36V238.53H187V219.62A54.67,54.67,0,1,1,256.59,167Zm-27.33,0a27.34,27.34,0,1,0-27.34,27.33A27.34,27.34,0,0,0,229.26,167Z"/></svg>