<?xml version="1.0" encoding="UTF-8"?>
<svg xmlns="http://www.w3.org/2000/svg" xmlns:xlink="http://www.w3.org/1999/xlink" viewBox="0 0 300 300">
  <defs>
    <style>
      .cls-1 {
        fill: #fff;
        mix-blend-mode: lighten;
        opacity: .71;
        stroke-width: 0px;
      }

      .cls-2 {
        stroke: #ca9e67;
        stroke-linecap: round;
      }

      .cls-2, .cls-3, .cls-4, .cls-5, .cls-6, .cls-7, .cls-8, .cls-9, .cls-10 {
        stroke-miterlimit: 10;
      }

      .cls-2, .cls-8 {
        fill: none;
      }

      .cls-3 {
        fill: #ededed;
      }

      .cls-3, .cls-4, .cls-5, .cls-6, .cls-7, .cls-8, .cls-9, .cls-10 {
        stroke: #1d1d1b;
      }

      .cls-4 {
        fill: #dadada;
      }

      .cls-5 {
        fill: #b2b2b2;
      }

      .cls-6 {
        fill: #9d9d9c;
      }

      .cls-7 {
        fill: #3c3c3b;
      }

      .cls-9 {
        fill: url(#Degradado_sin_nombre_103);
      }

      .cls-11 {
        isolation: isolate;
      }

      .cls-10 {
        fill: url(#Ceniza);
      }
    </style>
    <linearGradient id="Ceniza" x1="20.84" y1="227.63" x2="276.17" y2="227.63" gradientUnits="userSpaceOnUse">
      <stop offset=".01" stop-color="#fef4d8"/>
      <stop offset=".17" stop-color="#fce0a9"/>
      <stop offset=".3" stop-color="#fce8b7"/>
      <stop offset=".54" stop-color="#efd8aa"/>
      <stop offset=".66" stop-color="#f6dbaa"/>
      <stop offset=".78" stop-color="#fdf2da"/>
      <stop offset=".96" stop-color="#fbe7c2"/>
    </linearGradient>
    <radialGradient id="Degradado_sin_nombre_103" data-name="Degradado sin nombre 103" cx="148.88" cy="144.89" fx="148.88" fy="179.85" r="158" gradientUnits="userSpaceOnUse">
      <stop offset=".06" stop-color="#e30613"/>
      <stop offset=".77" stop-color="#e6852a"/>
    </radialGradient>
  </defs>
  <g class="cls-11">
    <g id="Capa_4" data-name="Capa 4">
      <g>
        <path class="cls-10" d="m276.17,172.36c-8.95,62.51-62.69,110.55-127.67,110.55S29.79,234.87,20.84,172.36h84.13c7.18,16.95,23.96,28.84,43.53,28.84s36.35-11.89,43.54-28.84h84.13Z"/>
        <g id="Lineas_Madera" data-name="Lineas Madera">
          <path class="cls-2" d="m38.52,219.3c4.7-7.76,12.67-18.75,25.32-28.88,17.39-13.91,35-19.26,44.95-21.48"/>
          <path class="cls-2" d="m66.98,252.56c6.17-10.02,14.57-21.45,25.94-32.71,28.13-27.86,59.44-39.79,77.96-45.11"/>
          <path class="cls-2" d="m103.38,273.59c5.4-8.04,11.57-16.21,18.62-24.31,41.14-47.27,92.24-69.28,127.58-80"/>
          <path class="cls-2" d="m149.05,281.9c1.01-2.35,2.08-4.63,3.2-6.86,24.7-49.11,76.7-73.57,119.48-86.1"/>
        </g>
        <path class="cls-9" d="m276.35,136.63h-83.84c-6.9-17.57-23.99-30.01-44.01-30.01s-37.1,12.44-44,30.01H20.66c8.45-63.07,62.46-111.72,127.84-111.72s119.4,48.65,127.85,111.72Z"/>
        <path class="cls-5" d="m289.25,136.63v17.86h-102.06c.01-.19.01-.39.01-.58,0-2.82-.3-5.56-.88-8.21-.69-3.19-1.77-6.23-3.19-9.07-6.35-12.7-19.46-21.42-34.63-21.42s-28.27,8.72-34.62,21.42c-1.42,2.84-2.5,5.88-3.19,9.07-.58,2.65-.89,5.39-.89,8.21,0,.19,0,.39,0,.58H10.75v-17.86h93.75c6.9-17.57,23.99-30.01,44-30.01s37.11,12.44,44.01,30.01h96.74Z"/>
        <path class="cls-5" d="m289.25,154.49v17.87h-97.21c-7.19,16.95-23.96,28.84-43.54,28.84s-36.35-11.89-43.53-28.84H10.75v-17.87h99.06c.03,2.42.3,4.78.75,7.07.77,3.84,2.11,7.47,3.92,10.8,6.55,12.06,19.33,20.25,34.02,20.25s27.48-8.19,34.02-20.25c1.82-3.33,3.16-6.96,3.93-10.8.45-2.29.71-4.65.74-7.07h102.06Z"/>
        <path class="cls-7" d="m187.19,154.49c-.03,2.42-.29,4.78-.74,7.07-.77,3.84-2.11,7.47-3.93,10.8-6.54,12.06-19.32,20.25-34.02,20.25s-27.47-8.19-34.02-20.25c-1.81-3.33-3.15-6.96-3.92-10.8-.45-2.29-.72-4.65-.75-7.07h8.13c0,.13,0,.27.01.41,0,.17.01.35.02.53,0,.05,0,.1.01.15,0,.12.01.24.02.36s.01.24.03.37c.02.3.05.6.08.89,0,.04,0,.07,0,.11.03.24.06.46.09.69.06.49.14.98.23,1.47.04.24.09.47.14.7.09.47.2.93.32,1.39.13.5.27.99.42,1.47.1.32.2.65.32.96.01.05.03.1.05.14.08.26.18.51.28.76,0,.02.01.04.03.07.16.42.33.84.51,1.25.06.15.13.3.2.45.11.24.23.48.35.72.02.05.04.09.07.14.09.2.19.39.3.59.1.21.21.41.32.6.22.4.45.79.69,1.18.24.41.5.81.78,1.2.02.04.04.08.08.12.26.39.53.77.83,1.15.17.23.35.46.53.68.36.45.74.89,1.12,1.32.17.19.34.37.52.56.2.22.42.44.64.66.21.22.44.42.66.63.21.2.42.4.64.59.21.19.43.38.65.56.47.4.95.78,1.45,1.14.17.14.35.27.53.39.42.3.84.59,1.28.85.21.15.43.28.65.41.35.21.69.41,1.04.6.05.03.11.06.16.08.21.12.42.23.63.33.17.09.34.17.51.25.01.02.02.02.03.02.04.03.08.05.12.06.06.03.12.06.18.08.01,0,.03.02.04.02.25.13.51.25.78.36.26.12.53.23.79.33.2.08.41.16.62.24.34.13.69.26,1.04.37.14.05.28.1.42.14.19.07.38.13.58.18.19.06.38.12.58.17.38.11.76.2,1.15.29.51.13,1.03.24,1.56.33.27.05.54.09.81.13.52.09,1.05.15,1.59.2.27.03.55.05.82.07.32.03.65.05.98.06.42.02.84.03,1.27.03s.85-.01,1.27-.03c.33,0,.66-.03.98-.06.27-.02.55-.04.82-.07.54-.05,1.07-.11,1.59-.2.35-.05.7-.11,1.04-.18.19-.02.37-.06.55-.1.02,0,.03-.01.05-.01.36-.07.72-.16,1.07-.25.21-.05.43-.1.64-.16.37-.1.73-.21,1.09-.32.06-.01.13-.03.19-.06.29-.09.58-.18.87-.29.4-.14.79-.28,1.18-.44.29-.12.57-.23.85-.36.15-.06.3-.14.45-.2.33-.15.66-.3.99-.47.34-.16.67-.34,1-.52.07-.03.13-.07.2-.11.33-.18.66-.37.99-.57.62-.38,1.23-.78,1.82-1.2.18-.12.36-.25.53-.39.5-.36.98-.74,1.45-1.14.18-.15.36-.3.53-.45.39-.34.77-.69,1.14-1.06.38-.36.74-.73,1.09-1.11.32-.34.64-.69.95-1.05.04-.06.08-.1.12-.15.3-.37.6-.74.9-1.12.01-.02.03-.04.04-.06.13-.18.26-.35.39-.53.12-.17.25-.35.37-.53.19-.28.38-.55.56-.83.19-.29.37-.58.54-.87.02-.03.04-.06.06-.09.12-.2.24-.41.35-.62.04-.06.08-.12.1-.18.1-.17.19-.36.29-.53.11-.2.22-.41.32-.62l.18-.36c.04-.09.08-.18.12-.27.17-.34.32-.69.47-1.04.01-.03.03-.06.03-.09.2-.45.37-.9.54-1.36.09-.24.17-.47.25-.7s.16-.47.23-.71c.15-.48.29-.97.42-1.47.12-.46.23-.92.32-1.39.05-.23.09-.46.14-.7.09-.49.17-.98.23-1.47.03-.23.06-.45.09-.69.01-.04.01-.07.01-.11.03-.29.06-.59.08-.89.02-.13.02-.25.03-.37s.01-.24.02-.36c.01-.05.01-.1.01-.15.01-.18.02-.36.02-.53.01-.14.01-.28.01-.41h8.12Z"/>
        <path class="cls-5" d="m179.07,154.49c0,.13,0,.27-.01.41,0,.17,0,.35-.02.53,0,.05,0,.1-.01.15-.01.12-.01.24-.02.36s-.01.24-.03.37c-.02.3-.05.6-.08.89,0,.04,0,.07-.01.11-.03.24-.06.46-.09.69-.06.49-.14.98-.23,1.47-.05.24-.09.47-.14.7-.09.47-.2.93-.32,1.39-.13.5-.27.99-.42,1.47-.07.24-.15.48-.23.71s-.16.46-.25.7c-.17.46-.34.91-.54,1.36,0,.03-.02.06-.03.09-.15.35-.3.7-.47,1.04-.09.21-.19.42-.3.63-.1.21-.21.42-.32.62-.1.17-.19.36-.29.53-.03.06-.07.12-.1.18-.13.24-.27.47-.41.71-.17.29-.35.58-.54.87-.18.28-.37.55-.56.83-.12.18-.25.36-.37.53-.13.18-.26.35-.39.53-.01.02-.03.04-.04.06-.3.38-.6.75-.9,1.12-.04.05-.08.09-.12.15-.31.36-.63.71-.95,1.05-.35.38-.71.75-1.09,1.11-.37.37-.75.72-1.14,1.06-.17.15-.35.3-.53.45-.47.4-.95.78-1.45,1.14-.17.14-.35.27-.53.39-.59.42-1.2.82-1.82,1.2-.33.2-.66.39-.99.57-.07.04-.13.08-.2.11-.33.18-.66.36-1,.52-.33.17-.66.32-.99.47-.15.06-.3.14-.45.2-.28.13-.56.24-.85.36-.39.16-.78.3-1.18.44-.29.11-.58.2-.87.29-.06.03-.13.05-.19.06-.36.11-.72.22-1.09.32-.21.06-.43.11-.64.16-.35.09-.71.18-1.07.25-.02,0-.03.01-.05.01-.18.04-.37.07-.55.1-.34.07-.69.13-1.04.18-.52.09-1.05.15-1.59.2-.27.03-.55.05-.82.07-.32.03-.65.05-.98.06-.42.02-.84.03-1.27.03s-.85-.01-1.27-.03c-.33,0-.66-.03-.98-.06-.27-.02-.55-.04-.82-.07-.54-.05-1.07-.11-1.59-.2-.27-.04-.54-.08-.81-.13-.53-.09-1.05-.2-1.56-.33-.39-.09-.77-.18-1.15-.29-.2-.05-.39-.11-.58-.17-.2-.05-.39-.11-.58-.18-.14-.04-.28-.09-.42-.14-.35-.11-.7-.24-1.04-.37-.21-.08-.42-.16-.62-.24-.26-.1-.53-.21-.79-.33-.27-.11-.53-.23-.78-.36-.01,0-.03-.01-.04-.02-.06-.02-.12-.05-.18-.08-.04-.01-.08-.03-.12-.06-.01,0-.02,0-.03-.02-.17-.08-.34-.16-.51-.25-.21-.1-.42-.21-.63-.33-.05-.02-.11-.05-.16-.08-.35-.19-.69-.39-1.04-.6-.22-.13-.44-.26-.65-.41-.44-.26-.86-.55-1.28-.85-.18-.12-.36-.25-.53-.39-.5-.36-.98-.74-1.45-1.14-.22-.18-.44-.37-.65-.56-.22-.19-.43-.39-.64-.59-.22-.21-.45-.41-.66-.63-.22-.22-.44-.44-.64-.66-.18-.19-.35-.37-.52-.56-.38-.43-.76-.87-1.12-1.32-.18-.22-.36-.45-.53-.68-.3-.38-.57-.76-.83-1.15-.03-.04-.06-.08-.08-.12-.28-.39-.54-.79-.78-1.2-.24-.39-.47-.78-.69-1.18-.11-.19-.22-.39-.32-.6-.11-.2-.21-.39-.3-.59-.03-.05-.05-.09-.07-.14-.12-.24-.24-.48-.35-.72-.07-.15-.14-.3-.2-.45-.18-.41-.35-.83-.51-1.25-.02-.03-.03-.05-.03-.07-.1-.25-.19-.5-.28-.76-.02-.04-.04-.09-.05-.14-.11-.32-.22-.64-.32-.96-.15-.48-.29-.97-.42-1.47-.12-.46-.23-.92-.32-1.39-.05-.23-.1-.46-.14-.7-.09-.49-.17-.98-.23-1.47-.03-.23-.06-.45-.09-.69,0-.04,0-.07,0-.11-.03-.29-.06-.59-.08-.89-.02-.13-.02-.25-.03-.37s-.02-.24-.02-.36c-.01-.05-.01-.1-.01-.15-.01-.18-.02-.36-.02-.53-.01-.14-.01-.28-.01-.41h61.13Z"/>
        <path class="cls-5" d="m179.07,154.49c0,.13,0,.27-.01.41,0,.17,0,.35-.02.53,0,.05,0,.1-.01.15-.01.12-.01.24-.02.36s-.01.24-.03.37c-.02.3-.05.6-.08.89,0,.04,0,.07-.01.11-.03.24-.06.46-.09.69-.06.49-.14.98-.23,1.47-.05.24-.09.47-.14.7-.09.47-.2.93-.32,1.39-.13.5-.27.99-.42,1.47-.07.24-.15.48-.23.71s-.16.46-.25.7c-.17.46-.34.91-.54,1.36,0,.03-.02.06-.03.09-.15.35-.3.7-.47,1.04-.09.21-.19.42-.3.63-.1.21-.21.42-.32.62-.1.17-.19.36-.29.53-.03.06-.07.12-.1.18-.13.24-.27.47-.41.71-.17.29-.35.58-.54.87-.18.28-.37.55-.56.83-.12.18-.25.36-.37.53-.13.18-.26.35-.39.53-.01.02-.03.04-.04.06-.3.38-.6.75-.9,1.12-.04.05-.08.09-.12.15-.31.36-.63.71-.95,1.05-.35.38-.71.75-1.09,1.11-.37.37-.75.72-1.14,1.06-.17.15-.35.3-.53.45-.47.4-.95.78-1.45,1.14-.17.14-.35.27-.53.39-.59.42-1.2.82-1.82,1.2-.33.2-.66.39-.99.57-.07.04-.13.08-.2.11-.33.18-.66.36-1,.52-.33.17-.66.32-.99.47-.15.06-.3.14-.45.2-.28.13-.56.24-.85.36-.39.16-.78.3-1.18.44-.29.11-.58.2-.87.29-.06.03-.13.05-.19.06-.36.11-.72.22-1.09.32-.21.06-.43.11-.64.16-.35.09-.71.18-1.07.25-.02,0-.03.01-.05.01-.18.04-.37.07-.55.1-.34.07-.69.13-1.04.18-.52.09-1.05.15-1.59.2-.27.03-.55.05-.82.07-.32.03-.65.05-.98.06-.42.02-.84.03-1.27.03s-.85-.01-1.27-.03c-.33,0-.66-.03-.98-.06-.27-.02-.55-.04-.82-.07-.54-.05-1.07-.11-1.59-.2-.27-.04-.54-.08-.81-.13-.53-.09-1.05-.2-1.56-.33-.39-.09-.77-.18-1.15-.29-.2-.05-.39-.11-.58-.17-.2-.05-.39-.11-.58-.18-.14-.04-.28-.09-.42-.14-.35-.11-.7-.24-1.04-.37-.21-.08-.42-.16-.62-.24-.26-.1-.53-.21-.79-.33-.27-.11-.53-.23-.78-.36-.01,0-.03-.01-.04-.02-.06-.02-.12-.05-.18-.08-.04-.01-.08-.03-.12-.06-.01,0-.02,0-.03-.02-.17-.08-.34-.16-.51-.25-.21-.1-.42-.21-.63-.33-.05-.02-.11-.05-.16-.08-.35-.19-.69-.39-1.04-.6-.22-.13-.44-.26-.65-.41-.44-.26-.86-.55-1.28-.85-.18-.12-.36-.25-.53-.39-.5-.36-.98-.74-1.45-1.14-.22-.18-.44-.37-.65-.56-.22-.19-.43-.39-.64-.59-.22-.21-.45-.41-.66-.63-.22-.22-.44-.44-.64-.66-.18-.19-.35-.37-.52-.56-.38-.43-.76-.87-1.12-1.32-.18-.22-.36-.45-.53-.68-.3-.38-.57-.76-.83-1.15-.03-.04-.06-.08-.08-.12-.28-.39-.54-.79-.78-1.2-.24-.39-.47-.78-.69-1.18-.11-.19-.22-.39-.32-.6-.11-.2-.21-.39-.3-.59-.03-.05-.05-.09-.07-.14-.12-.24-.24-.48-.35-.72-.07-.15-.14-.3-.2-.45-.18-.41-.35-.83-.51-1.25-.02-.03-.03-.05-.03-.07-.1-.25-.19-.5-.28-.76-.02-.04-.04-.09-.05-.14-.11-.32-.22-.64-.32-.96-.15-.48-.29-.97-.42-1.47-.12-.46-.23-.92-.32-1.39-.05-.23-.1-.46-.14-.7-.09-.49-.17-.98-.23-1.47-.03-.23-.06-.45-.09-.69,0-.04,0-.07,0-.11-.03-.29-.06-.59-.08-.89-.02-.13-.02-.25-.03-.37s-.02-.24-.02-.36c-.01-.05-.01-.1-.01-.15-.01-.18-.02-.36-.02-.53-.01-.14-.01-.28-.01-.41h61.13Z"/>
        <path class="cls-5" d="m179.07,154.08c0-.13,0-.27-.01-.41,0-.17,0-.35-.02-.53,0-.05,0-.1-.01-.15-.01-.12-.01-.24-.02-.36s-.01-.24-.03-.37c-.02-.3-.05-.6-.08-.89,0-.04,0-.07-.01-.11-.03-.24-.06-.46-.09-.69-.06-.49-.14-.98-.23-1.47-.05-.24-.09-.47-.14-.7-.09-.47-.2-.93-.32-1.39-.13-.5-.27-.99-.42-1.47-.07-.24-.15-.48-.23-.71s-.16-.46-.25-.7c-.17-.46-.34-.91-.54-1.36,0-.03-.02-.06-.03-.09-.15-.35-.3-.7-.47-1.04-.09-.21-.19-.42-.3-.63-.1-.21-.21-.42-.32-.62-.1-.17-.19-.36-.29-.53-.03-.06-.07-.12-.1-.18-.13-.24-.27-.47-.41-.71-.17-.29-.35-.58-.54-.87-.18-.28-.37-.55-.56-.83-.12-.18-.25-.36-.37-.53-.13-.18-.26-.35-.39-.53-.01-.02-.03-.04-.04-.06-.3-.38-.6-.75-.9-1.12-.04-.05-.08-.09-.12-.15-.31-.36-.63-.71-.95-1.05-.35-.38-.71-.75-1.09-1.11-.37-.37-.75-.72-1.14-1.06-.17-.15-.35-.3-.53-.45-.47-.4-.95-.78-1.45-1.14-.17-.14-.35-.27-.53-.39-.59-.42-1.2-.82-1.82-1.2-.33-.2-.66-.39-.99-.57-.07-.04-.13-.08-.2-.11-.33-.18-.66-.36-1-.52-.33-.17-.66-.32-.99-.47-.15-.06-.3-.14-.45-.2-.28-.13-.56-.24-.85-.36-.39-.16-.78-.3-1.18-.44-.29-.11-.58-.2-.87-.29-.06-.03-.13-.05-.19-.06-.36-.11-.72-.22-1.09-.32-.21-.06-.43-.11-.64-.16-.35-.09-.71-.18-1.07-.25-.02,0-.03-.01-.05-.01-.18-.04-.37-.07-.55-.1-.34-.07-.69-.13-1.04-.18-.52-.09-1.05-.15-1.59-.2-.27-.03-.55-.05-.82-.07-.32-.03-.65-.05-.98-.06-.42-.02-.84-.03-1.27-.03s-.85.01-1.27.03c-.33,0-.66.03-.98.06-.27.02-.55.04-.82.07-.54.05-1.07.11-1.59.2-.27.04-.54.08-.81.13-.53.09-1.05.2-1.56.33-.39.09-.77.18-1.15.29-.2.05-.39.11-.58.17-.2.05-.39.11-.58.18-.14.04-.28.09-.42.14-.35.11-.7.24-1.04.37-.21.08-.42.16-.62.24-.26.1-.53.21-.79.33-.27.11-.53.23-.78.36-.01,0-.03.01-.04.02-.06.02-.12.05-.18.08-.04.01-.08.03-.12.06-.01,0-.02,0-.03.02-.17.08-.34.16-.51.25-.21.1-.42.21-.63.33-.05.02-.11.05-.16.08-.35.19-.69.39-1.04.6-.22.13-.44.26-.65.41-.44.26-.86.55-1.28.85-.18.12-.36.25-.53.39-.5.36-.98.74-1.45,1.14-.22.18-.44.37-.65.56-.22.19-.43.39-.64.59-.22.21-.45.41-.66.63-.22.22-.44.44-.64.66-.18.19-.35.37-.52.56-.38.43-.76.87-1.12,1.32-.18.22-.36.45-.53.68-.3.38-.57.76-.83,1.15-.03.04-.06.08-.08.12-.28.39-.54.79-.78,1.2-.24.39-.47.78-.69,1.18-.11.19-.22.39-.32.6-.11.2-.21.39-.3.59-.03.05-.05.09-.07.14-.12.24-.24.48-.35.72-.07.15-.14.3-.2.45-.18.41-.35.83-.51,1.25-.02.03-.03.05-.03.07-.1.25-.19.5-.28.76-.02.04-.04.09-.05.14-.11.32-.22.64-.32.96-.15.48-.29.97-.42,1.47-.12.46-.23.92-.32,1.39-.05.23-.1.46-.14.7-.09.49-.17.98-.23,1.47-.03.23-.06.45-.09.69,0,.04,0,.07,0,.11-.03.29-.06.59-.08.89-.02.13-.02.25-.03.37s-.02.24-.02.36c-.01.05-.01.1-.01.15-.01.18-.02.36-.02.53-.01.14-.01.28-.01.41h61.13Z"/>
        <path class="cls-7" d="m187.2,153.91h-8.12c0-2.84-.4-5.6-1.13-8.21-.58-2.08-1.37-4.07-2.35-5.94-.27-.54-.56-1.05-.88-1.56-.02-.04-.04-.07-.06-.1-.15-.25-.3-.5-.46-.74-.16-.25-.32-.49-.48-.73-1.1-1.59-2.34-3.08-3.72-4.44-.06-.07-.13-.13-.2-.2-.02-.03-.05-.05-.08-.08-.23-.22-.47-.45-.71-.66-.25-.24-.51-.46-.77-.68-2.13-1.81-4.53-3.34-7.12-4.51-.21-.1-.42-.19-.64-.28-.28-.12-.56-.24-.85-.35-.33-.13-.65-.25-.99-.36-1.48-.53-3.01-.94-4.59-1.22-.24-.05-.49-.09-.74-.13-.37-.06-.73-.11-1.1-.16-.14-.01-.27-.03-.41-.04-.3-.03-.6-.06-.9-.08-.42-.04-.84-.06-1.27-.07-.37-.02-.75-.03-1.13-.03s-.76.01-1.13.03c-.43.01-.85.03-1.27.07-.32.02-.65.05-.97.09-.1,0-.2.02-.3.03-.38.05-.76.1-1.14.16-.24.04-.49.08-.73.13-.26.04-.52.09-.77.15-.11.02-.22.04-.32.07-.33.06-.66.14-.99.23-.33.08-.65.17-.97.26-.26.08-.52.16-.78.25-.35.11-.7.23-1.04.35-.18.06-.36.13-.54.2-.35.14-.69.28-1.03.42-.23.09-.46.2-.69.3-.04.02-.09.05-.14.07-.4.18-.8.38-1.19.58-.01,0-.01.01-.02.01-.4.21-.8.43-1.19.65-.36.21-.71.42-1.07.64-.18.11-.36.23-.54.35-.39.26-.78.53-1.16.81-.38.28-.75.57-1.12.86-.11.08-.22.17-.32.26-.1.08-.21.17-.31.26-2.08,1.76-3.93,3.8-5.48,6.06-.49.72-.95,1.46-1.38,2.22-.2.35-.4.71-.58,1.08-.29.56-.57,1.12-.81,1.7-.14.29-.26.59-.38.89-.06.15-.12.31-.18.47-.13.31-.24.62-.34.94-.05.12-.09.25-.13.37-.16.46-.3.93-.43,1.4-.73,2.61-1.13,5.37-1.13,8.21h-8.13c0-2.82.31-5.56.89-8.21.69-3.19,1.77-6.23,3.19-9.07,6.35-12.7,19.46-21.42,34.62-21.42s28.28,8.72,34.63,21.42c1.42,2.84,2.5,5.88,3.19,9.07.58,2.65.88,5.39.88,8.21Z"/>
      </g>
      <g id="Cierre">
        <g id="Balines">
          <circle class="cls-3" cx="148.67" cy="119.35" r="3.14"/>
          <circle class="cls-3" cx="148.67" cy="119.35" r="3.14"/>
          <circle class="cls-3" cx="160.49" cy="121.43" r="3.14"/>
          <circle class="cls-3" cx="170.88" cy="127.43" r="3.14"/>
          <circle class="cls-3" cx="178.6" cy="136.63" r="3.14"/>
          <circle class="cls-3" cx="182.71" cy="147.91" r="3.14"/>
          <circle class="cls-3" cx="182.71" cy="159.92" r="3.14"/>
          <circle class="cls-3" cx="178.6" cy="171.2" r="3.14"/>
          <circle class="cls-3" cx="170.88" cy="180.39" r="3.14"/>
          <circle class="cls-3" cx="160.49" cy="186.39" r="3.14"/>
          <circle class="cls-3" cx="148.67" cy="188.48" r="3.14"/>
          <circle class="cls-3" cx="136.84" cy="186.39" r="3.14"/>
          <circle class="cls-3" cx="126.45" cy="180.39" r="3.14"/>
          <circle class="cls-3" cx="118.73" cy="171.2" r="3.14"/>
          <circle class="cls-3" cx="114.63" cy="159.92" r="3.14"/>
          <circle class="cls-3" cx="114.63" cy="147.91" r="3.14"/>
          <circle class="cls-3" cx="118.73" cy="136.63" r="3.14"/>
          <circle class="cls-3" cx="126.45" cy="127.43" r="3.14"/>
          <circle class="cls-3" cx="136.84" cy="121.43" r="3.14"/>
        </g>
        <path class="cls-5" d="m168.93,218.75c-.38,1.95-1.31,5.25-3.94,8.21-5.29,5.96-13.27,5.81-16.34,5.75-2.58-.06-10.85-.23-16.44-6.61-2.4-2.75-3.47-5.66-3.97-7.48-.97-35.28-1.06-61.07-.27-65.3.18-.98.63-3.64,2.75-5.04,1.22-.81,2.46-.95,3.11-.98h.38c-.03.09-.06.18-.09.27v14.96c.56,1.39,1.27,2.67,2.1,3.82,3.59,4.95,9.5,7.57,15.19,6.65,4.12-.66,7.74-3.12,10.15-6.65.8-1.16,1.46-2.44,1.96-3.82v-15.2s-.02-.03-.02-.05h.02c.62-.02,2.25-.02,3.64,1,.75.56,1.95,1.87,2.2,5.11.36,4.59.23,30.24-.42,65.36Z"/>
        <path class="cls-5" d="m163.52,154.81v7.72c-.5,1.37-1.16,2.65-1.96,3.82-2.41,3.53-6.03,5.99-10.15,6.65-5.69.92-11.6-1.7-15.19-6.65-.83-1.15-1.54-2.43-2.1-3.82v-7.72h29.4Z"/>
        <path class="cls-5" d="m163.52,147.33v7.48h-29.4v-7.24c.03-.09.06-.18.09-.27.57-1.79,1.42-3.44,2.49-4.87,2.49-3.32,6.15-5.57,10.23-6.06,5.31-.66,10.63,1.73,13.98,6.06,1.1,1.42,1.99,3.05,2.59,4.86,0,.02.02.03.02.05Z"/>
        <rect class="cls-5" x="138.1" y="218.87" width="21.44" height="5.65" rx="1.87" ry="1.87"/>
      </g>
      <g id="Copa">
        <g>
          <path class="cls-3" d="m191.25,22.83c0,4.63-18.9,8.37-42.23,8.37s-42.21-3.74-42.21-8.37c0-.1.01-.2.04-.3.03-.11.06-.21.08-.32h0c1.62-4.33,19.84-7.73,42.08-7.73s42.23,3.74,42.23,8.35Z"/>
          <path class="cls-5" d="m195.24,44.36c0,4.84-21.05,8.76-47.03,8.76s-47.03-3.92-47.03-8.76c0-.21.04-.41.11-.62,1.86-7.07,3.71-14.15,5.57-21.2-.03.1-.04.2-.04.3,0,4.63,18.9,8.37,42.21,8.37s42.23-3.74,42.23-8.37c.6,3.33,1.22,6.66,1.84,10,.67,3.66,1.36,7.3,2.04,10.94.04.2.07.39.11.59Z"/>
          <path class="cls-8" d="m102.13,40.57c10.57,3.28,26.24,6.85,45,6.85,20.03,0,36.24-4.34,47.11-7.91"/>
        </g>
        <ellipse class="cls-7" cx="147.07" cy="22.53" rx="16.26" ry="2.2"/>
        <path class="cls-4" d="m147.07,58.77h0c-5.5,0-9.99-.86-9.99-6.35v-7.78c0-5.5,4.5-9.99,9.99-9.99h0c5.5,0,9.99,4.5,9.99,9.99v7.78c0,5.5-4.5,6.35-9.99,6.35Z"/>
        <path class="cls-5" d="m94.66,28.92l-1.92,7.54c-1.36,5.32,2.79,7.27,8.11,8.63l5.96-23.38c-5.32-1.36-10.79,1.89-12.15,7.21Z"/>
        <path class="cls-6" d="m191.25,21.47l4.48,23.71c5.4-1.02,9.66-2.7,8.64-8.1l-1.44-7.65c-1.02-5.4-6.27-8.98-11.67-7.96Z"/>
      </g>
      <ellipse class="cls-1" cx="84.28" cy="86.89" rx="20.03" ry="16.48" transform="translate(-35.63 103.48) rotate(-53.75)"/>
    </g>
  </g>
</svg>