<svg id="Capa_1" data-name="Capa 1" xmlns="http://www.w3.org/2000/svg" xmlns:xlink="http://www.w3.org/1999/xlink" viewBox="0 0 200 200"><defs><style>.cls-1{fill:url(#Degradado_sin_nombre_116);}.cls-2{fill:#fff;}</style><linearGradient id="Degradado_sin_nombre_116" x1="101.57" y1="11.28" x2="98.47" y2="186.26" gradientUnits="userSpaceOnUse"><stop offset="0.16" stop-color="#3b69b1"/><stop offset="0.53" stop-color="#397ebb"/></linearGradient></defs><circle class="cls-1" cx="100" cy="100" r="97.5"/><path class="cls-2" d="M58.63,106.42a36.13,36.13,0,0,1,3.43-14.15C67,82,75.21,78.41,86.09,69.34a124.41,124.41,0,0,0,19.23-20.19L99.41,72.78a44.69,44.69,0,0,1,17.69,3,40.18,40.18,0,0,1,13.62,8.38c9.09,8.91,12.75,23.63,9.45,36.86-3.12,12.47-12.24,22.92-23.63,27.37-17.86,7-40.74-1.06-53.75-20.8,19.53,10.2,38.3,12.07,48.22,6.22a28.77,28.77,0,0,0,10.85-11.08,19.91,19.91,0,0,0,2.1-10.41c-.74-7.4-6.76-13.91-15.1-17.21l-5-6.71C97.67,95,92,97.47,87.86,98.47c-5.37,1.31-8.42.26-14.84,1.66A41,41,0,0,0,58.63,106.42ZM82.77,86.29a12.62,12.62,0,0,0,3.54-7.76,28.95,28.95,0,0,0-13.4,11.3A12.92,12.92,0,0,0,82.77,86.29Z"/></svg>