<svg id="Capa_1" data-name="Capa 1" xmlns="http://www.w3.org/2000/svg" xmlns:xlink="http://www.w3.org/1999/xlink" viewBox="0 0 200 200"><defs><style>.cls-1{fill:url(#Degradado_sin_nombre_108);}.cls-2{fill:#fff;}</style><linearGradient id="Degradado_sin_nombre_108" x1="100.17" y1="52.14" x2="99.76" y2="168.18" gradientUnits="userSpaceOnUse"><stop offset="0.13" stop-color="#c24d6b"/><stop offset="0.74" stop-color="#d45450"/></linearGradient></defs><circle class="cls-1" cx="100" cy="100.55" r="91.21"/><path class="cls-2" d="M75.31,105.82l.21-33.88a7,7,0,0,1,13.57,0,8.08,8.08,0,0,1,15.34,3.21c.25-.27,3.31-3.47,7.35-2.8,3.82.64,6.91,4.45,6.84,9.12a7.5,7.5,0,0,1,8-3.32,7.84,7.84,0,0,1,5.18,5v36.78a32.35,32.35,0,0,1-12,16.78c-9.12,6.45-18.72,5.78-22.18,5.49-1-.09-19.35-1.94-28.48-17.72-1.72-3-7.67-13.25-3.52-24.14a24.11,24.11,0,0,1,7.56-10.15L73.35,106Z"/></svg>