<svg id="Capa_1" data-name="Capa 1" xmlns="http://www.w3.org/2000/svg" xmlns:xlink="http://www.w3.org/1999/xlink" viewBox="0 0 200 200"><defs><style>.cls-1{fill:url(#Degradado_sin_nombre_76);}.cls-2{fill:#fff;}</style><linearGradient id="Degradado_sin_nombre_76" x1="106.21" y1="8.08" x2="98.83" y2="130.35" gradientUnits="userSpaceOnUse"><stop offset="0.14" stop-color="#5b69ab"/><stop offset="0.69" stop-color="#7470b2"/></linearGradient></defs><circle class="cls-1" cx="100.66" cy="100" r="97.5"/><path class="cls-2" d="M72.39,123.05c-2.09-2.64-14.46-18.85-8-37.81,5-14.53,18.85-24.34,33.37-25.39,18.39-1.34,38.41,11.31,40.75,29.82,2.1,16.58-11.1,29-12.7,30.42a14.41,14.41,0,0,0,.59,8c2.2,5.51,7.35,6.68,7.09,8C132.83,139.52,92.17,147.92,72.39,123.05Zm38.27-35.31a6.5,6.5,0,1,0,6.5,6.5A6.5,6.5,0,0,0,110.66,87.74Zm-24,0a6.5,6.5,0,1,0,6.5,6.5A6.5,6.5,0,0,0,86.69,87.74Z"/></svg>