<svg id="Capa_1" data-name="Capa 1" xmlns="http://www.w3.org/2000/svg" xmlns:xlink="http://www.w3.org/1999/xlink" viewBox="0 0 200 200"><defs><style>.cls-1{fill:url(#Degradado_sin_nombre_103);}.cls-2{fill:#fff;}</style><linearGradient id="Degradado_sin_nombre_103" x1="100.18" y1="48.26" x2="99.74" y2="172.29" gradientUnits="userSpaceOnUse"><stop offset="0.29" stop-color="#f3a25c"/><stop offset="0.75" stop-color="#f2b255"/></linearGradient></defs><circle class="cls-1" cx="100" cy="100" r="97.5"/><path class="cls-2" d="M106,50.08A42.45,42.45,0,0,1,99.76,68c-3.53,5.53-7.28,8.31-11.08,11.52-11.4,9.67-21.24,18-23.92,28.13-3.16,12,3.43,27.31,15.29,35.66,14.4,10.15,30.47,5.71,32.56,5.09-5.38-1.47-14.31-4.71-21-11.81a16.46,16.46,0,0,1-4.28-7c-.38-1.32-1.88-7.22,1.77-12.41a14.61,14.61,0,0,1,8.41-5.53,15.49,15.49,0,0,1,10.19.44,16.07,16.07,0,0,1,8.42,8.86c3.18,7.71-.81,14.83-1.33,15.73,2.52-.65,13.2-3.69,18.38-13.52,6.14-11.61,2.17-28.14-10.85-38.76-1.86,5.07-4.7,8.35-6.42,8s-3.11-4.94-2.22-11.08c-5.5,5.72-7.5,6.68-8.19,6.2-1.48-1,3.58-8.26,4.43-17.94A37.17,37.17,0,0,0,106,50.08Z"/></svg>