<svg id="Capa_1" data-name="Capa 1" xmlns="http://www.w3.org/2000/svg" xmlns:xlink="http://www.w3.org/1999/xlink" viewBox="0 0 200 200"><defs><style>.cls-1{fill:url(#Degradado_sin_nombre_56);}.cls-2{fill:#fff;}</style><linearGradient id="Degradado_sin_nombre_56" x1="100" y1="7.11" x2="100" y2="186.96" gradientUnits="userSpaceOnUse"><stop offset="0.25" stop-color="#e97a78"/><stop offset="0.7" stop-color="#f4a79b"/></linearGradient></defs><circle class="cls-1" cx="100" cy="100" r="97.5"/><path class="cls-2" d="M81.82,133.68A38.81,38.81,0,0,1,65.68,117c-1.35-2.73-7.74-17.15-1.11-32.8a40.07,40.07,0,0,1,18-19.32,39.58,39.58,0,0,1,18.73-4.93,34.82,34.82,0,0,1,6.12.55c13.87,2.5,28.9,13.92,30.78,30.88,1,9.25-1.69,22.64-12.69,29.92a29.1,29.1,0,0,1-16.12,4.63c-9.43,0-18.74-4.08-23.18-10.16a22.35,22.35,0,0,1-3.94-11.37,19.36,19.36,0,0,1,3.79-11.55,17.8,17.8,0,0,1,9.71-7,18.25,18.25,0,0,1,4.93-.7A13.27,13.27,0,0,1,107.85,87,11.16,11.16,0,0,1,112,91.35a11.4,11.4,0,0,1,1,7.1,10.67,10.67,0,0,1-1.28,4.14c2.38-4.89-.05-11.24-4.19-14a10.58,10.58,0,0,0-6-1.78,16.21,16.21,0,0,0-6.15,1.35c-4.93,2-8.46,6.62-9.78,12.65a19,19,0,0,0,2.14,13.53c4.07,6.85,11.14,8.53,14.54,9.34a31.46,31.46,0,0,0,7.16.82,26.91,26.91,0,0,0,16.76-5.54c12.71-9.93,10.07-26.56,10-27.26-2.37-14.1-15.17-25.52-30.41-27.14a31.57,31.57,0,0,0-3.5-.19c-15.79,0-28.09,11.29-33.27,22.49-5.85,12.65-2.55,24.69-1.39,28.08A37.5,37.5,0,0,0,81.82,133.68Z"/><path class="cls-2" d="M101.29,56.57a44.54,44.54,0,0,0-39.8,26.29c-7.42,17.51.11,33.43,1.18,35.59,9,18.24,27.86,23,34.55,24.22a49.28,49.28,0,0,0,8.66.76,53,53,0,0,0,20.25-4.12,53,53,0,0,1-12,1.38,49.07,49.07,0,0,1-15.35-2.42C94,136.71,76.52,131,70.68,113.81a35.45,35.45,0,0,1,1.26-25.59c4.89-10.56,16.27-20.55,30.23-20.55a30.33,30.33,0,0,1,3.14.17C118.16,69.21,130.55,79,132.78,92.2c.16,1,2.17,15.57-8.71,24.07a23.57,23.57,0,0,1-14.7,4.83,28.36,28.36,0,0,1-6.39-.73c-3-.73-9.09-2.16-12.43-7.79a15.76,15.76,0,0,1-1.74-11.11c.26-1.21,1.69-7.77,7.69-10.23a13.22,13.22,0,0,1,5-1.13,7.24,7.24,0,0,1,4.15,1.21c3.21,2.18,4.84,7.22,2.69,10.44a6.07,6.07,0,0,1-4.79,2.71,3.89,3.89,0,0,1-.68,0c-3-.43-5.48-3.76-5.16-8-1.88,4.71-.06,9.91,3.83,12.09a7.83,7.83,0,0,0,3.85,1,11.73,11.73,0,0,0,8.12-3.78,12.16,12.16,0,0,0,2.8-6.79,14.73,14.73,0,0,0-1.33-9.16,14.5,14.5,0,0,0-5.31-5.61,16.77,16.77,0,0,0-8.94-2.44,21.87,21.87,0,0,0-5.83.82,21.42,21.42,0,0,0-11.52,8.27,22.82,22.82,0,0,0-4.43,13.58,25.52,25.52,0,0,0,4.58,13.29c5.05,6.92,15.29,11.54,25.89,11.54a32.4,32.4,0,0,0,18-5.19c11.76-7.78,15.38-22.19,14.17-33.08-2-18.34-18.24-31.05-33.52-33.81a37.74,37.74,0,0,0-6.71-.6Zm24.84,82.74h0Z"/></svg>