<svg id="Capa_1" data-name="Capa 1" xmlns="http://www.w3.org/2000/svg" xmlns:xlink="http://www.w3.org/1999/xlink" viewBox="0 0 200 200"><defs><style>.cls-1{fill:url(#Nueva_muestra_de_degradado_1);}.cls-2{fill:#fff;}</style><linearGradient id="Nueva_muestra_de_degradado_1" x1="100.17" y1="51.03" x2="99.76" y2="168.42" gradientUnits="userSpaceOnUse"><stop offset="0.11" stop-color="#6495ce"/><stop offset="0.8" stop-color="#83bee1"/></linearGradient></defs><circle class="cls-1" cx="100" cy="100" r="92.27"/><path class="cls-2" d="M112.49,83.43c10.15,21.24,12.09,24.68,11.53,30.5-1.12,11.6-11.58,26.39-25,25.89s-22.63-16-23.06-27.56c-.18-4.92,1.23-8.54,11.84-27.78,5.45-9.88,10.18-18.16,13.73-24.31C103.8,65.13,107.65,73.31,112.49,83.43ZM87,125.36c1,1.2,5.72,6.88,13.1,7,7.74.15,15.76-5.84,15.3-10.48a4.72,4.72,0,0,0-2.2-3.46c-4.1-2.47-9.34,3.91-15.61,3.88-3.74,0-8.94-2.32-15.2-12.58A21.57,21.57,0,0,0,87,125.36Z"/></svg>