<svg id="Capa_1" data-name="Capa 1" xmlns="http://www.w3.org/2000/svg" xmlns:xlink="http://www.w3.org/1999/xlink" viewBox="0 0 200 200"><defs><style>.cls-1{fill:url(#Degradado_sin_nombre_121);}.cls-2{fill:#fff;}</style><linearGradient id="Degradado_sin_nombre_121" x1="100.18" y1="48.26" x2="99.74" y2="172.29" gradientUnits="userSpaceOnUse"><stop offset="0.13" stop-color="#98c03f"/><stop offset="0.67" stop-color="#abc644"/></linearGradient></defs><circle class="cls-1" cx="100" cy="100" r="97.5"/><path class="cls-2" d="M108.1,96.68c4.06-3.45,8.7-3.41,14.84-9.75a35.47,35.47,0,0,0,5.31-7.09A41.87,41.87,0,0,1,137.56,90a42.69,42.69,0,0,1,5.09,11.3c.92,3.22,4.07,14.27-.66,26.13-.69,1.73-7.79,19.53-19.72,19.27-9.72-.21-15.76-12.26-17-14.84C99.43,120.35,99.84,103.66,108.1,96.68Z"/><path class="cls-2" d="M91.9,96.68c-4.06-3.45-8.7-3.41-14.84-9.75a35.47,35.47,0,0,1-5.31-7.09A41.87,41.87,0,0,0,62.44,90a42.69,42.69,0,0,0-5.09,11.3c-.92,3.22-4.07,14.27.66,26.13.69,1.73,7.79,19.53,19.72,19.27,9.72-.21,15.76-12.26,17-14.84C100.57,120.35,100.16,103.66,91.9,96.68Z"/><path class="cls-2" d="M98.68,87.37a42.69,42.69,0,0,1,22.15-11.85,19.23,19.23,0,0,0-3-6.31,18.91,18.91,0,0,0-4.06-4.13,7.84,7.84,0,0,0,1.85-4.51c.24-4-3-6.63-3.32-6.86a10.51,10.51,0,0,1-7.61,10.78A11.79,11.79,0,0,1,97,64.26a10.17,10.17,0,0,1-5.91-5,9.64,9.64,0,0,1-.66-6,13.53,13.53,0,0,0-4.21,7.53,12.79,12.79,0,0,0,0,4.21A18.82,18.82,0,0,0,82,68.77a19,19,0,0,0-3.32,6,30.16,30.16,0,0,1,20,12.61Z"/></svg>