<svg id="Capa_1" data-name="Capa 1" xmlns="http://www.w3.org/2000/svg" xmlns:xlink="http://www.w3.org/1999/xlink" viewBox="0 0 200 200"><defs><style>.cls-1{fill:url(#Degradado_sin_nombre_97);}.cls-2{fill:#fff;}</style><linearGradient id="Degradado_sin_nombre_97" x1="102.73" y1="5.34" x2="96.53" y2="220.41" gradientUnits="userSpaceOnUse"><stop offset="0.01" stop-color="#94a6d5"/><stop offset="0.4" stop-color="#a9bce2"/></linearGradient></defs><circle class="cls-1" cx="100" cy="100" r="97.5"/><path class="cls-2" d="M147.45,58c-21.21,12.83-39.29,17.81-52.27,19.93-10.8,1.76-18.51,1.61-26.14,8-9.48,7.91-17.27,24.56-10.19,37.22,4.53,8.09,13.16,11,16.25,11.89a44.34,44.34,0,0,0,17,1.62,43.72,43.72,0,0,0,24.37-11.74,29.66,29.66,0,0,1-14.84,1.55,28.51,28.51,0,0,1-6.87-2,52.28,52.28,0,0,0,12.85-3.76,53.37,53.37,0,0,0,17.28-12.18,48.38,48.38,0,0,1-18.61,4.43,47.16,47.16,0,0,1-9.52-.67,61.27,61.27,0,0,0,36.54-20.15A53.38,53.38,0,0,1,112,97a52.55,52.55,0,0,1-12.62-1.33,46.33,46.33,0,0,0,19.35-6.47,47.7,47.7,0,0,0,8.33-6.6A142.56,142.56,0,0,0,147.45,58Z"/></svg>