<svg id="Capa_1" data-name="Capa 1" xmlns="http://www.w3.org/2000/svg" xmlns:xlink="http://www.w3.org/1999/xlink" viewBox="0 0 200 200"><defs><style>.cls-1{fill:url(#Degradado_sin_nombre_46);}.cls-2{fill:#fff;}</style><linearGradient id="Degradado_sin_nombre_46" x1="101.12" y1="10.23" x2="99.05" y2="176" gradientUnits="userSpaceOnUse"><stop offset="0.21" stop-color="#88cabf"/><stop offset="0.74" stop-color="#a0d4d1"/></linearGradient></defs><circle class="cls-1" cx="100" cy="100" r="91.21"/><polygon class="cls-2" points="101.88 103.82 101.53 129.54 128.31 148.83 124.37 116.15 101.88 103.82"/><polygon class="cls-2" points="97.55 103.82 97.89 129.54 71.12 148.83 75.06 116.15 97.55 103.82"/><polygon class="cls-2" points="101.88 96.18 101.53 70.46 128.31 51.17 124.37 83.85 101.88 96.18"/><polygon class="cls-2" points="97.55 96.18 97.89 70.46 71.12 51.17 75.06 83.85 97.55 96.18"/><polygon class="cls-2" points="102.8 99.59 125.73 113.98 157.73 100.47 126.19 86.12 102.8 99.59"/><polygon class="cls-2" points="97.2 99.59 74.27 113.98 42.27 100.47 73.81 86.12 97.2 99.59"/></svg>