<svg id="Capa_1" data-name="Capa 1" xmlns="http://www.w3.org/2000/svg" xmlns:xlink="http://www.w3.org/1999/xlink" viewBox="0 0 200 200"><defs><style>.cls-1{fill:url(#Degradado_sin_nombre_66);}.cls-2{fill:#fff;}</style><linearGradient id="Degradado_sin_nombre_66" x1="102.33" y1="2.73" x2="98.49" y2="162.8" gradientTransform="translate(100 -41.42) rotate(45)" gradientUnits="userSpaceOnUse"><stop offset="0.16" stop-color="#6fb65a"/><stop offset="0.72" stop-color="#71bc7b"/></linearGradient></defs><circle class="cls-1" cx="100" cy="100" r="97.5" transform="translate(-41.42 100) rotate(-45)"/><path class="cls-2" d="M103.47,143.94a49.66,49.66,0,0,1-25.22-7.42l-.63-.41L94,116.84l.44.16a26.57,26.57,0,0,0,9.25,1.67,30.81,30.81,0,0,0,13.93-3.53c-2.09-1.87-6.38-5-11.91-5l-.69,0a15.44,15.44,0,0,0-4.74,1l-2.22.84,11.1-14.3.53.43a10.63,10.63,0,0,0,6.56,2.39c4.64,0,7.62-3.23,8.66-4.57a13.58,13.58,0,0,0-7.38-2.39h-.2a13.14,13.14,0,0,0-4,.63l-1.62.52.83-1.48c.86-1.54,1.76-3.08,2.67-4.6,3-5,6.24-9.82,9.72-14.5a157.67,157.67,0,0,0-14.63,11.25c-1.24,1.07-2.47,2.18-3.66,3.27l-1.34,1.25.22-1.82a19.36,19.36,0,0,0-2-11.33,13,13,0,0,0-4,9.89,12.21,12.21,0,0,0,2.75,6.88l.38.46-11.7,12.28.61-2.46a17.28,17.28,0,0,0,.32-6.89,18.56,18.56,0,0,0-6.49-11c-1.78,3.91-4,10.94-1.84,18.74a25.3,25.3,0,0,0,3,6.83l.32.5L68.61,127.29l-.43-.52c-9.86-11.84-12.87-27.38-7.85-40.56,5.76-15.12,20.06-21.45,24.3-23,4.75-1.77,7.85-1.9,14-2.18,2.32-.1,5-.22,8.3-.44a271.43,271.43,0,0,0,33.63-4.48l.88-.18-.08.89a215.62,215.62,0,0,0-.57,31.94c.22,3.91.5,7,.74,9.64.58,6.34.9,9.83-.46,15.15-1.11,4.31-5.89,19-20.91,26.52A37.14,37.14,0,0,1,103.47,143.94Z"/><path class="cls-2" d="M140.73,56.73a216.9,216.9,0,0,0-.57,32c.75,13.24,2.19,17.19.3,24.59-2.24,8.75-8.59,20.09-20.56,26.09a36.44,36.44,0,0,1-16.43,3.83c-13.51,0-24.24-6.9-24.85-7.3l15.62-18.34a26.74,26.74,0,0,0,5.42,1.4,26.13,26.13,0,0,0,4.06.31,31.81,31.81,0,0,0,15.07-4c-1.3-1.27-6.19-5.8-13.05-5.8l-.72,0a16.12,16.12,0,0,0-5,1l9.23-11.88a11.25,11.25,0,0,0,7,2.54h0c5.9,0,9.3-5,9.58-5.4a14.47,14.47,0,0,0-8.31-2.9h-.22a13.8,13.8,0,0,0-4.21.66c.85-1.51,1.73-3,2.66-4.57a175.5,175.5,0,0,1,12.07-17.58,155.58,155.58,0,0,0-18,13.47q-1.89,1.65-3.67,3.29a20,20,0,0,0-2.54-12.49c-.58.5-5.3,4.66-4.88,11a13,13,0,0,0,2.9,7.25l-9.54,10a18,18,0,0,0,.33-7.16,19.36,19.36,0,0,0-7.4-11.93c-1.36,2.8-4.78,10.78-2.24,20a25.63,25.63,0,0,0,3.14,7L68.69,126.34C59.1,114.83,56,99.55,61,86.45c5.84-15.34,20.41-21.34,23.9-22.64,6.4-2.38,9.89-1.75,22.15-2.58a268.36,268.36,0,0,0,33.72-4.5m1.5-1.66-1.76.35a269.89,269.89,0,0,1-33.55,4.47c-3.33.23-6,.34-8.28.44-6.06.27-9.4.42-14.25,2.22-4.31,1.61-18.82,8-24.68,23.42-5.11,13.41-2.06,29.21,7.95,41.23l.86,1,1-.86,9.17-7.68,8.11-6.79.9-.76-.63-1a24.32,24.32,0,0,1-3-6.65,26.92,26.92,0,0,1,1.44-17.45,17.5,17.5,0,0,1,5.58,10,16.43,16.43,0,0,1-.3,6.61l-1.23,4.93,3.5-3.68,1.09-1.14,8.45-8.87.82-.85-.74-.92a11.57,11.57,0,0,1-2.62-6.5,12.06,12.06,0,0,1,3.2-8.69A18.61,18.61,0,0,1,104.87,88l-.45,3.64,2.69-2.49c1.19-1.1,2.41-2.2,3.64-3.26q5.41-4.71,11.31-8.93c-2.62,3.69-5.1,7.48-7.41,11.33-.91,1.51-1.81,3.06-2.68,4.61l-1.67,3,3.25-1a12.37,12.37,0,0,1,3.8-.6h.2a12.68,12.68,0,0,1,6.38,1.87,10.45,10.45,0,0,1-7.63,3.75,9.92,9.92,0,0,1-6.16-2.25l-1.06-.85-.84,1.08-5.75,7.4L99,109.72l-2.91,3.76,4.44-1.68a14.73,14.73,0,0,1,4.54-1l.66,0a17.27,17.27,0,0,1,10.7,4.16,29.84,29.84,0,0,1-12.72,3,26.19,26.19,0,0,1-3.86-.29,25.45,25.45,0,0,1-5.16-1.34l-.87-.32-.61.71L86,125.28,77.6,135.1l-1,1.15,1.26.83a50.43,50.43,0,0,0,25.59,7.53,37.64,37.64,0,0,0,17-4c15.28-7.65,20.13-22.56,21.26-26.95,1.39-5.42,1-9.17.48-15.37-.24-2.68-.52-5.72-.74-9.62a215.5,215.5,0,0,1,.56-31.83l.17-1.79Zm-1.5,3Z"/></svg>