<svg id="Capa_1" data-name="Capa 1" xmlns="http://www.w3.org/2000/svg" xmlns:xlink="http://www.w3.org/1999/xlink" viewBox="0 0 200 200"><defs><style>.cls-1{fill:url(#Degradado_sin_nombre_29);}.cls-2{fill:#fff;stroke:#fff;stroke-miterlimit:10;stroke-width:1.34px;}</style><linearGradient id="Degradado_sin_nombre_29" x1="100.24" y1="12.43" x2="99.8" y2="172.35" gradientUnits="userSpaceOnUse"><stop offset="0.18" stop-color="#c3b88e"/><stop offset="0.82" stop-color="#d1c996"/></linearGradient></defs><circle class="cls-1" cx="100" cy="100" r="97.5"/><path class="cls-2" d="M55.1,122.75a3.52,3.52,0,0,1-.92-1.63c0-.19,1.35-15.64,1.36-15.83,0,0,.24-2.71.24-2.71.64-.71,1.28-1.42,1.91-2.14Q70,86.7,81,72.77a19.8,19.8,0,0,1,2.71-1.54,21.93,21.93,0,0,1,2.87-1.07l28.86-2.69a2.85,2.85,0,0,1,2.2.59,2.91,2.91,0,0,1,1,2.45Q116.8,82,115,93.46l-1.35,2.62-1.81,3.52q-14.67,11.48-29.32,23a17.23,17.23,0,0,1-3.38,1.53,16.34,16.34,0,0,1-4.73.78L58,123.71A3.71,3.71,0,0,1,55.1,122.75Z"/><path class="cls-2" d="M85,132.18a.58.58,0,0,1,.19-.47L115.07,112a8.24,8.24,0,0,1,1-.47,5.7,5.7,0,0,1,.7-.23l5.06-.3a2.35,2.35,0,0,1,1,0,2.41,2.41,0,0,1,1,.52l.72,6.28a1.66,1.66,0,0,1,0,.62,1.43,1.43,0,0,1-.31.58l-16.25,12.08a4.69,4.69,0,0,1-1,.44,5,5,0,0,1-1.37.23l-20.38.78A.54.54,0,0,1,85,132.18Z"/><path class="cls-2" d="M134.1,111.47a3.73,3.73,0,0,0,2.68-.65c3-1.67,5.33-3,6.94-3.88a3.72,3.72,0,0,0,2-2,3.2,3.2,0,0,0,.11-1.25c-.31-2.28-7.72-25.31-8.39-27.38a1.37,1.37,0,0,0-1.13-1A1.38,1.38,0,0,0,135,76l-9.6,19.48a3.29,3.29,0,0,0-.55,2,3.43,3.43,0,0,0,.28,1.13L132,110.33A3.69,3.69,0,0,0,134.1,111.47Z"/></svg>