<?xml version="1.0" encoding="UTF-8"?>
<svg id="Capa_2" data-name="Capa 2" xmlns="http://www.w3.org/2000/svg" xmlns:xlink="http://www.w3.org/1999/xlink" viewBox="0 0 300 300">
  <defs>
    <style>
      .cls-1 {
        fill: url(#Degradado_sin_nombre_28);
      }

      .cls-1, .cls-2, .cls-3, .cls-4, .cls-5, .cls-6 {
        stroke-width: 0px;
      }

      .cls-2 {
        opacity: .81;
      }

      .cls-2, .cls-3, .cls-5 {
        fill: #fff;
      }

      .cls-3 {
        opacity: .16;
      }

      .cls-7 {
        stroke-linecap: round;
      }

      .cls-7, .cls-8 {
        fill: none;
        stroke: #1d1d1b;
        stroke-miterlimit: 10;
        stroke-width: 16px;
      }

      .cls-9 {
        opacity: .52;
      }

      .cls-4, .cls-6 {
        fill: #1d1d1b;
      }

      .cls-5, .cls-6 {
        opacity: .68;
      }
    </style>
    <linearGradient id="Degradado_sin_nombre_28" data-name="Degradado sin nombre 28" x1="150" y1="19.6" x2="150" y2="275.53" gradientTransform="translate(247.77 -38.76) rotate(73.15)" gradientUnits="userSpaceOnUse">
      <stop offset=".04" stop-color="#a86ef4"/>
      <stop offset=".16" stop-color="#0047ea"/>
      <stop offset=".33" stop-color="#00f0fb"/>
      <stop offset=".38" stop-color="#00f0f7"/>
      <stop offset=".42" stop-color="#00f0ed"/>
      <stop offset=".46" stop-color="#00f1dc"/>
      <stop offset=".5" stop-color="#00f3c3"/>
      <stop offset=".53" stop-color="#00f4a4"/>
      <stop offset=".56" stop-color="#00f67d"/>
      <stop offset=".6" stop-color="#00f94f"/>
      <stop offset=".63" stop-color="#00fc1c"/>
      <stop offset=".64" stop-color="#00fd0d"/>
      <stop offset=".99" stop-color="#e4fe00"/>
    </linearGradient>
  </defs>
  <g>
    <circle class="cls-1" cx="150" cy="147.57" r="127.97" transform="translate(-34.71 248.37) rotate(-73.15)"/>
    <path class="cls-4" d="m150,24.6c32.85,0,63.72,12.79,86.95,36.02,23.23,23.23,36.02,54.1,36.02,86.95s-12.79,63.72-36.02,86.95c-23.23,23.23-54.1,36.02-86.95,36.02s-63.72-12.79-86.95-36.02c-23.23-23.23-36.02-54.1-36.02-86.95s12.79-63.72,36.02-86.95c23.23-23.23,54.1-36.02,86.95-36.02m0-10C76.57,14.6,17.03,74.13,17.03,147.57s59.53,132.97,132.97,132.97,132.97-59.53,132.97-132.97S223.43,14.6,150,14.6h0Z"/>
  </g>
  <g class="cls-9">
    <path class="cls-4" d="m150.18,72.11c-2.17,14.98-3.12,23.89-.03,33,4.25,12.55,12.99,17.46,21.44,22.2,3.56,2,7.6,4.26,12.24,7.55,8.04,5.68,26.87,18.99,29.87,34.85,2.32,12.3-5.38,24.18-8.28,28.65-7.13,10.99-18.31,19.03-33.26,23.9-3.26,1.06-6.41,1.88-9.32,2.5-1.67-13.78-6.13-25.78-13.34-35.8-8.25-11.47-17.28-16.7-25.25-21.32-7.15-4.14-12.79-7.41-18.7-15.57-2.98-4.12-10.9-15.05-10.2-28.1.89-16.75,15.7-28.83,24.55-36.05,9.87-8.06,20.47-12.92,30.28-15.81m19.75-19.72c-12.41.9-37.51,4.66-60.15,23.14-10.11,8.25-29.14,23.78-30.41,47.59-1,18.7,9.46,33.15,13.22,38.34,15.24,21.05,30.94,18.8,43.92,36.84,5.85,8.14,12.06,21.68,10.95,44.46,5.76-.16,49.56-2.04,71.39-35.69,3.64-5.61,14.09-21.72,10.58-40.32-4.2-22.22-26.42-37.93-36.35-44.95-15.54-10.98-24.29-11.56-27.76-21.81-2.13-6.29-.98-14.11,1.32-29.75,1.11-7.56,2.38-13.72,3.3-17.85h0Z"/>
    <path class="cls-7" d="m108.46,89.29c7.65,6.21,15.55,12.88,29.08,19.17,16.42,7.62,41.95,19.82,52.88,21.39"/>
    <path class="cls-8" d="m87.31,114.41c17.57,12.53,41.61,27.11,72.05,39,25.09,9.8,48.01,15.22,66.76,18.31"/>
    <path class="cls-8" d="m99.81,156.02c19.65,11.4,37.16,19.63,65.5,29.77,18.55,6.64,36.01,11.48,51.89,15.03"/>
  </g>
  <path class="cls-6" d="m72.11,223.48c43.76,39.12,109.47,38.98,150.8,2.17,44.98-40.06,49.47-113.2,6.52-160.81,22.11,53.77,6.27,114.21-36.26,146.27-33.79,25.47-80.23,29.87-121.06,12.37Z"/>
  <path class="cls-5" d="m229.42,64.84c-43.6-40.71-110.46-41.34-152.33-4.35-45.76,40.42-49.84,115.32-4.99,162.99-24.07-54.24-8.46-116.23,34.73-148.45,34.25-25.54,81.61-29.19,122.59-10.19Z"/>
  <ellipse class="cls-3" cx="87.31" cy="89.29" rx="51.23" ry="30.38" transform="translate(-37.06 100.6) rotate(-50.84)"/>
  <ellipse class="cls-3" cx="102.85" cy="101.95" rx="70.11" ry="48.8" transform="translate(-41.15 117.32) rotate(-50.84)"/>
  <ellipse class="cls-2" cx="82.78" cy="70.21" rx="19.64" ry="13.54" transform="translate(-25.77 69.47) rotate(-39.91)"/>
</svg>