<?xml version="1.0" encoding="UTF-8"?>
<svg id="Capa_1" data-name="Capa 1" xmlns="http://www.w3.org/2000/svg" viewBox="0 0 472.92 105.75">
  <defs>
    <style>
      .cls-1 {
        fill: #ffed00;
      }

      .cls-2 {
        fill: #2d2e83;
      }

      .cls-3 {
        fill: none;
        stroke: #1d1d1b;
        stroke-linecap: round;
        stroke-linejoin: round;
        stroke-width: .5px;
      }
    </style>
  </defs>
  <g>
    <path class="cls-1" d="M450.74,71.94l6.4,8.02c-.66,1.48-2.15,2.96-4.47,4.46s-5.07,2.73-8.24,3.68c-3.18,.95-6.29,1.42-9.34,1.42-5.08,0-9.09-1.39-12.02-4.18-2.39-2.32-3.59-5.73-3.59-10.23,0-2.06,.25-4.15,.74-6.26s1.16-4.03,1.99-5.77c.83-1.73,1.77-3.16,2.83-4.28,2.2-2.37,4.64-4.08,7.31-5.14,2.67-1.05,5.49-1.58,8.44-1.58,2.53,0,5.02,.35,7.47,1.06,2.45,.7,4.69,1.65,6.73,2.84l-20.88,25.03c.33,.1,.85,.14,1.58,.14,1.9,0,4.04-.51,6.43-1.54,2.4-1.03,4.43-2.28,6.1-3.73,1.68-1.45,2.52-2.76,2.52-3.94Zm-20.96,5.84l13.4-16.42c-2.11-1.47-4.35-2.21-6.72-2.21-1.4,0-2.69,.24-3.86,.74-1.17,.49-2.11,1.13-2.82,1.93-1.64,1.83-2.46,4.46-2.46,7.91,0,1.83,.24,3.53,.72,5.1s1.06,2.55,1.74,2.95Z"/>
    <path class="cls-1" d="M410.79,59.6c.4,2.55,.6,4.65,.6,6.31,0,3.66-.88,7.26-2.64,10.8-.37,.72-.82,1.63-1.33,2.7-.52,1.08-1.06,2.07-1.62,2.96s-1.26,1.76-2.11,2.62c-.84,.85-1.85,1.64-3.02,2.37-2.84,1.73-6.1,2.6-9.78,2.6-4.87,0-9.29-1.44-13.25-4.32-2.02-1.43-3.62-3.24-4.82-5.42-1.19-2.18-2.05-4.63-2.56-7.34-.52-2.72-.78-5.62-.78-8.69,0-4.15,.41-8.9,1.23-14.27l13.26,1.44c-.47,3.91-.7,7.57-.7,10.97,0,4.59,.43,8.91,1.3,12.94,.44,1.99,1.2,3.58,2.28,4.78,1.08,1.19,2.27,1.79,3.59,1.79s2.47-.57,3.62-1.72,2.11-2.86,2.88-5.14c.8-2.32,1.48-5.05,2.04-8.19s.84-6.07,.84-8.79c0-1.05-.09-2.4-.28-4.04l10.66,.28c0,1.03,.19,2.82,.59,5.36Z"/>
    <polygon class="cls-1" points="372.25 28.82 350.95 89.33 338.26 89.33 318.39 29.14 312.06 28.26 311.78 23.38 329.33 25.38 344.9 70.87 354.95 27.7 372.25 28.82"/>
    <polygon class="cls-1" points="320.86 63.26 320.26 70.15 292.07 71.03 292.07 65.26 320.86 63.26"/>
    <polygon class="cls-1" points="299.21 43.8 281 67 297.17 88.17 285.68 87.89 275.17 74.49 264.65 87.89 253.12 88.17 269.33 67 251.12 43.8 263.49 44.12 275.17 59.38 286.84 44.12 299.21 43.8"/>
    <path class="cls-1" d="M243.96,67.78l6.39,8.01c-.65,1.48-2.14,2.97-4.46,4.47s-5.07,2.72-8.24,3.67c-3.18,.95-6.29,1.43-9.34,1.43-5.08,0-9.09-1.4-12.02-4.19-2.39-2.32-3.59-5.73-3.59-10.23,0-2.06,.25-4.15,.74-6.26s1.15-4.03,1.99-5.76c.83-1.74,1.77-3.17,2.83-4.29,2.2-2.37,4.64-4.08,7.31-5.13,2.67-1.06,5.48-1.59,8.44-1.59,2.53,0,5.02,.36,7.47,1.06s4.69,1.65,6.73,2.85l-20.88,25.03c.33,.09,.85,.14,1.58,.14,1.9,0,4.04-.52,6.43-1.55s4.43-2.27,6.1-3.72c1.68-1.46,2.52-2.77,2.52-3.94Zm-20.96,5.83l13.4-16.41c-2.11-1.48-4.35-2.22-6.72-2.22-1.4,0-2.69,.25-3.86,.74-1.18,.49-2.11,1.14-2.82,1.93-1.64,1.83-2.46,4.47-2.46,7.91,0,1.83,.24,3.53,.72,5.1s1.06,2.56,1.74,2.95Z"/>
    <path class="cls-1" d="M206.33,12.72l.88,72-11.53,.85v-4.47c-3.63,1.74-7.36,2.6-11.18,2.6-2.93,0-5.18-.55-6.75-1.65-1.99-1.36-3.57-3.31-4.73-5.85-1.16-2.55-1.74-5.31-1.74-8.28,0-1.53,.18-3.04,.53-4.55,.35-1.52,.88-2.97,1.58-4.36,.7-1.4,1.63-2.72,2.78-3.96,1.24-1.36,2.62-2.59,4.15-3.69,1.52-1.1,3.07-2.02,4.65-2.74,1.59-.73,3.11-1.27,4.59-1.62s2.94-.53,4.4-.53c.77,0,1.34,.03,1.72,.07l-.56-28.93,11.21-4.89Zm-12.66,54.64v-7.49c-.63,0-1.19-.17-1.68-.49-.71-.57-1.06-1.64-1.06-3.24,0-2.3,.92-4.05,2.74-5.27-1.28,.16-2.56,.57-3.81,1.23-1.25,.65-2.33,1.43-3.22,2.32s-1.58,1.87-2.09,2.93c-.5,1.07-.75,2.12-.75,3.15,0,2.13,1,3.87,3.02,5.2,1.78,1.2,3.59,1.8,5.41,1.8,.35,0,.83-.05,1.44-.14Z"/>
    <polygon class="cls-1" points="157.12 38.54 139.73 48.74 136.04 45.5 148.14 31.76 157.12 38.54"/>
    <path class="cls-1" d="M162.86,69.89l6.4,8.01c-.66,1.48-2.15,2.97-4.47,4.47s-5.07,2.72-8.24,3.67c-3.18,.95-6.29,1.43-9.34,1.43-5.08,0-9.09-1.4-12.02-4.19-2.39-2.32-3.59-5.73-3.59-10.23,0-2.06,.25-4.15,.74-6.26s1.16-4.03,1.99-5.76c.83-1.74,1.77-3.17,2.83-4.29,2.2-2.37,4.64-4.08,7.31-5.13,2.67-1.06,5.48-1.59,8.44-1.59,2.53,0,5.02,.36,7.47,1.06s4.69,1.65,6.73,2.85l-20.88,25.03c.33,.09,.85,.14,1.58,.14,1.9,0,4.04-.52,6.43-1.55s4.43-2.27,6.1-3.73c1.68-1.45,2.52-2.76,2.52-3.93Zm-20.96,5.83l13.4-16.41c-2.11-1.48-4.35-2.22-6.72-2.22-1.4,0-2.69,.25-3.86,.74-1.18,.49-2.11,1.14-2.82,1.93-1.64,1.83-2.46,4.47-2.46,7.91,0,1.83,.24,3.53,.72,5.1s1.06,2.55,1.74,2.95Z"/>
    <path class="cls-1" d="M81.5,58.43c1.01,2.19,1.51,4.55,1.51,7.08,0,3.54-.96,7.02-2.88,10.44-2.09,3.87-4.82,6.82-8.21,8.84-3.39,2.03-6.79,3.04-10.21,3.04-3.02,0-5.57-.71-7.63-2.14-1.99-1.36-3.57-3.31-4.73-5.85-1.16-2.55-1.74-5.31-1.74-8.28,0-1.53,.18-3.04,.53-4.56,.35-1.51,.88-2.96,1.58-4.36,.7-1.39,1.63-2.71,2.78-3.95,1.78-1.92,3.65-3.53,5.61-4.83,1.95-1.3,3.89-2.28,5.81-2.92,1.93-.65,3.75-.97,5.49-.97,3.14,0,5.71,.89,7.7,2.67,1.92,1.67,3.38,3.59,4.39,5.79Zm-4.6,1.56c0-1.17-.14-2.25-.43-3.23-.39,1.78-1.26,3.35-2.58,4.71s-2.62,2.04-3.88,2.04c-.64,0-1.2-.17-1.69-.5-.7-.56-1.06-1.54-1.06-2.95,0-1.08,.36-2.14,1.08-3.2,.71-1.05,1.84-1.88,3.39-2.49-1.57,0-3.07,.29-4.5,.87-1.43,.59-2.66,1.35-3.69,2.27-1.03,.93-1.86,1.97-2.48,3.13s-.93,2.33-.93,3.5c0,2.18,1,3.91,3.02,5.2,1.88,1.2,3.66,1.8,5.34,1.8s3.14-.56,4.43-1.67c1.29-1.12,2.28-2.55,2.96-4.29,.68-1.75,1.02-3.48,1.02-5.19Z"/>
    <path class="cls-1" d="M129.14,88.17l-27.64-20.46,.57,19.58-12.38,.28-3.16-63.35-4.93,2.6,1.16-4.89,14.42-6.04,2.6,40.6,16.7-8.08,10.05,1.44-18.7,13.53c.84,.61,2.32,1.68,4.43,3.2,2.11,1.53,4.13,2.99,6.06,4.4,1.94,1.4,4.07,2.94,6.4,4.6,2.34,1.67,3.52,2.5,3.57,2.5,.14,0,.32,1.38,.53,4.15,.21,2.76,.32,4.74,.32,5.94Z"/>
    <path class="cls-1" d="M58.74,24.98c.22,.44,.33,1.03,.33,1.77,0,2.15-1.09,4.97-3.28,8.46-2.19,3.5-5.06,7.15-8.61,10.96-3.54,3.81-7.01,7.12-10.39,9.92l7.75,27.36-7.75,4.75L18.83,35.46c-.08-.33-.3-.5-.66-.5-.57,0-1.3,.32-2.16,.95-.87,.64-1.62,1.38-2.25,2.23l-5.04-13.49c2.45-.75,5.72-1.68,9.81-2.81,4.08-1.13,7.46-2.01,10.15-2.66,2.68-.65,5.27-1.16,7.78-1.53,2.5-.37,4.91-.55,7.22-.55,1.89,0,3.61,.14,5.15,.43,1.55,.29,2.94,.74,4.19,1.36s2.37,1.43,3.35,2.44c.97,1,1.76,2.22,2.37,3.65Zm-15.06,16.75c3.44-3.99,5.15-7.23,5.15-9.74,0-1.32-.75-2.2-2.26-2.64-.75-.16-1.61-.25-2.6-.25-1.1,0-2.46,.13-4.07,.4-1.61,.26-3.19,.59-4.74,.99-1.56,.4-3.27,.82-5.14,1.26l5.07,19.27c2.29-2.2,5.15-5.3,8.59-9.29Z"/>
    <path class="cls-2" d="M76.47,56.76c.29,.98,.43,2.06,.43,3.23,0,1.71-.34,3.44-1.02,5.19-.68,1.74-1.67,3.17-2.96,4.29-1.29,1.11-2.76,1.67-4.43,1.67s-3.46-.6-5.34-1.8c-2.02-1.29-3.02-3.02-3.02-5.2,0-1.17,.31-2.34,.93-3.5s1.45-2.2,2.48-3.13c1.03-.92,2.26-1.68,3.69-2.27,1.43-.58,2.93-.87,4.5-.87-1.55,.61-2.68,1.44-3.39,2.49-.72,1.06-1.08,2.12-1.08,3.2,0,1.41,.36,2.39,1.06,2.95,.49,.33,1.05,.5,1.69,.5,1.26,0,2.56-.68,3.88-2.04s2.19-2.93,2.58-4.71Z"/>
    <path class="cls-2" d="M193.67,59.87v7.49c-.61,.09-1.09,.14-1.44,.14-1.82,0-3.63-.6-5.41-1.8-2.02-1.33-3.02-3.07-3.02-5.2,0-1.03,.25-2.08,.75-3.15,.51-1.06,1.2-2.04,2.09-2.93s1.97-1.67,3.22-2.32c1.25-.66,2.53-1.07,3.81-1.23-1.82,1.22-2.74,2.97-2.74,5.27,0,1.6,.35,2.67,1.06,3.24,.49,.32,1.05,.49,1.68,.49Z"/>
    <path class="cls-2" d="M430,75.18l10.79-13.36c-1.15-.59-2.32-.88-3.52-.88-1.26,0-2.49,.26-3.67,.77-1.18,.52-2.02,1.13-2.51,1.83-1.46,1.88-2.18,3.94-2.18,6.19,0,.82,.08,1.6,.24,2.35,.17,.75,.45,1.79,.85,3.1Zm-.22-13.36c.71-.8,1.65-1.44,2.82-1.93,1.17-.5,2.46-.74,3.86-.74,2.37,0,4.61,.74,6.72,2.21l-13.4,16.42c-.68-.4-1.26-1.38-1.74-2.95s-.72-3.27-.72-5.1c0-3.45,.82-6.08,2.46-7.91Z"/>
    <path class="cls-2" d="M423.07,85.34c2.93,2.79,6.94,4.18,12.02,4.18,3.05,0,6.16-.47,9.34-1.42,3.17-.95,5.92-2.18,8.24-3.68s3.81-2.98,4.47-4.46l-6.4-8.02c0,1.18-.84,2.49-2.52,3.94-1.67,1.45-3.7,2.7-6.1,3.73-2.39,1.03-4.53,1.54-6.43,1.54-.73,0-1.25-.04-1.58-.14l20.88-25.03c-2.04-1.19-4.28-2.14-6.73-2.84-2.45-.71-4.94-1.06-7.47-1.06-2.95,0-5.77,.53-8.44,1.58-2.67,1.06-5.11,2.77-7.31,5.14-1.06,1.12-2,2.55-2.83,4.28-.83,1.74-1.5,3.66-1.99,5.77s-.74,4.2-.74,6.26c0,4.5,1.2,7.91,3.59,10.23Zm5.78-31.89c2.01-1.08,4.09-1.88,6.24-2.42,2.16-.54,4.37-.81,6.65-.81,2.97,0,5.8,.47,8.49,1.42,2.68,.95,5.03,2.33,7.05,4.13l-19.3,23.03c1.71,0,3.33-.36,4.87-1.07,1.53-.72,2.94-1.74,4.23-3.06,1.29-1.33,2.44-2.88,3.45-4.66l8.47,10.23c-.68,1.97-2.29,3.77-4.83,5.41-2.55,1.65-5.57,2.94-9.07,3.89-3.51,.95-7.01,1.42-10.5,1.42-3.09,0-5.85-.41-8.28-1.23-2.42-.82-4.29-2.06-5.61-3.72-2.27-2.86-3.41-6.52-3.41-10.97,0-3.52,.64-6.98,1.92-10.39s2.63-5.8,4.06-7.16c1.71-1.61,3.57-2.96,5.57-4.04Z"/>
    <path class="cls-2" d="M411.92,75.86c-.61,2.56-1.96,5.24-4.05,8.05-2.08,2.82-4.1,4.79-6.04,5.91-3.05,1.74-6.6,2.6-10.65,2.6-2.82,0-5.55-.4-8.21-1.19-2.66-.8-5.11-1.98-7.33-3.55-2.09-1.46-3.76-3.36-5.01-5.7-1.26-2.34-2.13-4.9-2.62-7.66-.49-2.77-.74-5.84-.74-9.21,0-2.02,.06-3.96,.19-5.84s.3-3.79,.51-5.75c.21-1.95,.46-3.92,.74-5.89l17.26,2.01c-.42,5.55-.63,10.13-.63,13.74,0,1.81,.05,3.37,.16,4.68,.1,1.31,.27,2.51,.51,3.58,.23,1.08,.51,2.01,.84,2.78,1.48,3.35,2.83,5.03,4.04,5.03,.94,0,1.9-1.2,2.89-3.59,.65-1.66,1.24-3.3,1.76-4.9,.51-1.61,.91-3.13,1.19-4.59,.28-1.45,.49-3.04,.63-4.78,.14-1.73,.21-3.63,.21-5.7s-.02-3.66-.07-4.81l14.7,.88c.77,4.85,1.23,7.77,1.37,8.77s.21,2.24,.21,3.74c0,2.56-.62,6.35-1.86,11.39Zm-3.17,.85c1.76-3.54,2.64-7.14,2.64-10.8,0-1.66-.2-3.76-.6-6.31-.4-2.54-.59-4.33-.59-5.36l-10.66-.28c.19,1.64,.28,2.99,.28,4.04,0,2.72-.28,5.65-.84,8.79s-1.24,5.87-2.04,8.19c-.77,2.28-1.73,3.99-2.88,5.14s-2.36,1.72-3.62,1.72-2.51-.6-3.59-1.79c-1.08-1.2-1.84-2.79-2.28-4.78-.87-4.03-1.3-8.35-1.3-12.94,0-3.4,.23-7.06,.7-10.97l-13.26-1.44c-.82,5.37-1.23,10.12-1.23,14.27,0,3.07,.26,5.97,.78,8.69,.51,2.71,1.37,5.16,2.56,7.34,1.2,2.18,2.8,3.99,4.82,5.42,3.96,2.88,8.38,4.32,13.25,4.32,3.68,0,6.94-.87,9.78-2.6,1.17-.73,2.18-1.52,3.02-2.37,.85-.86,1.55-1.73,2.11-2.62s1.1-1.88,1.62-2.96c.51-1.07,.96-1.98,1.33-2.7Z"/>
    <path class="cls-2" d="M316.11,31.71l-6.05-1.44-.32-8.93,21.34,1.44,13.22,41.76,9.53-39.16,20.43,1.16-21.31,65.07-15.82-.28-21.02-59.62Zm13.22-6.33l-17.55-2,.28,4.88,6.33,.88,19.87,60.19h12.69l21.3-60.51-17.3-1.12-10.05,43.17-15.57-45.49Z"/>
    <path class="cls-2" d="M292.07,71.03l28.19-.88,.6-6.89-28.79,2v5.77Zm30.79,.88l-33.4,1.12,.85-9.49,33.71-3.16-1.16,11.53Z"/>
    <path class="cls-2" d="M299.21,43.8l-12.37,.32-11.67,15.26-11.68-15.26-12.37-.32,18.21,23.2-16.21,21.17,11.53-.28,10.52-13.4,10.51,13.4,11.49,.28-16.17-21.17,18.21-23.2Zm-14.97,23.13l17.57,23.24-18.17-.56-8.47-11-8.51,11-18.14,.56,17.58-23.24-19.87-25.7,19.27,.85,9.67,12.76,9.63-12.76,19.3-.85-19.86,25.7Z"/>
    <path class="cls-2" d="M236.4,57.2l-13.4,16.41c-.68-.39-1.26-1.38-1.74-2.95s-.72-3.27-.72-5.1c0-3.44,.82-6.08,2.46-7.91,.71-.79,1.64-1.44,2.82-1.93,1.17-.49,2.46-.74,3.86-.74,2.37,0,4.61,.74,6.72,2.22Zm-14.28,8.36c0,.82,.09,1.61,.25,2.36s.44,1.78,.84,3.09l10.8-13.36c-1.15-.58-2.32-.88-3.52-.88-1.26,0-2.49,.26-3.67,.78-1.19,.51-2.02,1.12-2.52,1.83-1.45,1.87-2.18,3.93-2.18,6.18Z"/>
    <path class="cls-2" d="M227.82,86.8c-3.09,0-5.85-.41-8.28-1.23s-4.29-2.07-5.61-3.73c-2.27-2.86-3.41-6.52-3.41-10.97,0-3.51,.64-6.98,1.92-10.39s2.63-5.79,4.06-7.15c1.71-1.62,3.57-2.97,5.57-4.04,2.01-1.08,4.08-1.89,6.24-2.43s4.37-.81,6.65-.81c2.97,0,5.8,.48,8.49,1.43,2.68,.94,5.03,2.32,7.05,4.13l-19.31,23.02c1.71,0,3.34-.35,4.87-1.07,1.54-.71,2.95-1.73,4.24-3.06,1.29-1.32,2.44-2.87,3.45-4.66l8.47,10.23c-.68,1.97-2.29,3.78-4.84,5.42-2.54,1.64-5.56,2.93-9.07,3.88-3.5,.95-7,1.43-10.49,1.43Zm-2.25-37.3c-2.67,1.05-5.11,2.76-7.31,5.13-1.06,1.12-2,2.55-2.83,4.29-.84,1.73-1.5,3.65-1.99,5.76s-.74,4.2-.74,6.26c0,4.5,1.2,7.91,3.59,10.23,2.93,2.79,6.94,4.19,12.02,4.19,3.05,0,6.16-.48,9.34-1.43,3.17-.95,5.92-2.17,8.24-3.67s3.81-2.99,4.46-4.47l-6.39-8.01c0,1.17-.84,2.48-2.52,3.94-1.67,1.45-3.71,2.69-6.1,3.72s-4.53,1.55-6.43,1.55c-.73,0-1.25-.05-1.58-.14l20.88-25.03c-2.04-1.2-4.28-2.15-6.73-2.85s-4.94-1.06-7.47-1.06c-2.96,0-5.77,.53-8.44,1.59Z"/>
    <path class="cls-2" d="M193.96,46.47c-1.46,0-2.92,.18-4.4,.53s-3,.89-4.59,1.62c-1.58,.72-3.13,1.64-4.65,2.74-1.53,1.1-2.91,2.33-4.15,3.69-1.15,1.24-2.08,2.56-2.78,3.96-.7,1.39-1.23,2.84-1.58,4.36-.35,1.51-.53,3.02-.53,4.55,0,2.97,.58,5.73,1.74,8.28,1.16,2.54,2.74,4.49,4.73,5.85,1.57,1.1,3.82,1.65,6.75,1.65,3.82,0,7.55-.86,11.18-2.6v4.47l11.53-.85-.88-72-11.21,4.89,.56,28.93c-.38-.04-.95-.07-1.72-.07Zm-25,20.53c0-5.64,1.63-10.2,4.89-13.67,2.81-2.95,5.71-5.19,8.7-6.72,2.99-1.52,6.04-2.28,9.16-2.28,.86,0,1.52,.02,1.96,.07l-.31-27.67,14.69-6.61,.88,47.6c.19,1.22,.28,2.6,.28,4.15,0,1.36-.04,2.37-.14,3.02l.43,21.56-15.83,.84v-2.15c-2.57,1.06-5.18,1.59-7.8,1.59-2.02,0-3.91-.31-5.68-.92s-3.3-1.43-4.59-2.46c-2.08-1.73-3.71-4.07-4.88-7.01s-1.76-6.05-1.76-9.34Z"/>
    <path class="cls-2" d="M141.9,59.76c.71-.79,1.64-1.44,2.82-1.93,1.17-.49,2.46-.74,3.86-.74,2.37,0,4.61,.74,6.72,2.22l-13.4,16.41c-.68-.4-1.26-1.38-1.74-2.95s-.72-3.27-.72-5.1c0-3.44,.82-6.08,2.46-7.91Zm3.82-.1c-1.19,.51-2.02,1.12-2.52,1.82-1.45,1.88-2.18,3.94-2.18,6.19,0,.82,.09,1.61,.25,2.36s.45,1.78,.84,3.09l10.8-13.36c-1.15-.58-2.32-.88-3.52-.88-1.26,0-2.49,.26-3.67,.78Z"/>
    <path class="cls-2" d="M152.91,50.02c-2.96,0-5.77,.53-8.44,1.59-2.67,1.05-5.11,2.76-7.31,5.13-1.06,1.12-2,2.55-2.83,4.29-.83,1.73-1.5,3.65-1.99,5.76s-.74,4.2-.74,6.26c0,4.5,1.2,7.91,3.59,10.23,2.93,2.79,6.94,4.19,12.02,4.19,3.05,0,6.16-.48,9.34-1.43,3.17-.95,5.92-2.17,8.24-3.67s3.81-2.99,4.47-4.47l-6.4-8.01c0,1.17-.84,2.48-2.52,3.93-1.67,1.46-3.71,2.7-6.1,3.73s-4.53,1.55-6.43,1.55c-.73,0-1.25-.05-1.58-.14l20.88-25.03c-2.04-1.2-4.28-2.15-6.73-2.85s-4.94-1.06-7.47-1.06Zm-22.61,27.5l-.51-.38c-.24-1.3-.37-2.69-.37-4.16,0-3.51,.64-6.98,1.92-10.39s2.63-5.79,4.06-7.15c1.71-1.62,3.57-2.97,5.57-4.05,2.01-1.07,4.09-1.88,6.24-2.42,2.16-.54,4.37-.81,6.65-.81,2.97,0,5.8,.48,8.49,1.42,2.68,.95,5.03,2.33,7.05,4.14l-19.3,23.02c1.71,0,3.33-.35,4.86-1.07,1.54-.71,2.95-1.73,4.24-3.06,1.29-1.32,2.44-2.88,3.45-4.66l8.47,10.23c-.68,1.97-2.29,3.78-4.84,5.42-2.54,1.64-5.56,2.93-9.07,3.88-3.5,.95-7,1.43-10.49,1.43-3.09,0-5.85-.41-8.28-1.23-2.42-.82-4.29-2.07-5.61-3.73-1.04-1.31-1.85-2.8-2.41-4.45l-.12-1.98Z"/>
    <path class="cls-2" d="M140.06,50.45l-5.99-4.52,13.93-16.26,11.87,8.78-19.81,12Zm-.33-1.71l17.39-10.2-8.98-6.78-12.1,13.74,3.69,3.24Z"/>
    <path class="cls-2" d="M81.04,20.77l17.86-7.48,2.6,40.6,14.7-8.05,15.26,2.29-19.9,15.25,18.23,13.76c.16,.82,.37,1.61,.63,2.36l.72,12.11-27.63-19.86,.88,17.26-16.74,.32-3.16-61.07-5.17,1.16,1.72-8.65Zm5.49,3.45l3.16,63.35,12.38-.28-.57-19.58,27.64,20.46c0-1.2-.11-3.18-.32-5.94-.21-2.77-.39-4.15-.53-4.15-.05,0-1.23-.83-3.57-2.5-2.33-1.66-4.46-3.2-6.4-4.6-1.93-1.41-3.95-2.87-6.06-4.4-2.11-1.52-3.59-2.59-4.43-3.2l18.7-13.53-10.05-1.44-16.7,8.08-2.6-40.6-14.42,6.04-1.16,4.89,4.93-2.6Z"/>
    <path class="cls-2" d="M47.61,71.56c0,2.97,.58,5.73,1.74,8.28,1.16,2.54,2.74,4.49,4.73,5.85,2.06,1.43,4.61,2.14,7.63,2.14,3.42,0,6.82-1.01,10.21-3.04,3.39-2.02,6.12-4.97,8.21-8.84,1.92-3.42,2.88-6.9,2.88-10.44,0-2.53-.5-4.89-1.51-7.08-1.01-2.2-2.47-4.12-4.39-5.79-1.99-1.78-4.56-2.67-7.7-2.67-1.74,0-3.56,.32-5.49,.97-1.92,.64-3.86,1.62-5.81,2.92-1.96,1.3-3.83,2.91-5.61,4.83-1.15,1.24-2.08,2.56-2.78,3.95-.7,1.4-1.23,2.85-1.58,4.36-.35,1.52-.53,3.03-.53,4.56Zm4.33,15.43c-2.09-1.73-3.72-4.07-4.89-7.01s-1.76-6.06-1.76-9.34c0-5.64,1.63-10.2,4.89-13.67,2.79-2.98,5.67-5.22,8.65-6.74,2.97-1.51,6.02-2.26,9.14-2.26,1.83,0,3.58,.23,5.27,.68,1.69,.46,3.46,1.19,5.31,2.2,1.66,.89,3.02,2.09,4.06,3.6,1.04,1.52,1.8,3.21,2.28,5.1s.73,3.85,.73,5.89c0,1.69-.14,3.32-.41,4.89s-.64,3.01-1.11,4.32-1.02,2.43-1.65,3.34c-1.48,2.2-3.06,4.1-4.74,5.7-1.69,1.59-3.41,2.87-5.17,3.85-1.76,.97-3.5,1.68-5.22,2.14-1.73,.46-3.43,.69-5.12,.69-1.99,0-3.88-.32-5.68-.94-1.79-.62-3.32-1.43-4.58-2.44Z"/>
    <path class="cls-2" d="M48.83,31.99c0,2.51-1.71,5.75-5.15,9.74s-6.3,7.09-8.59,9.29l-5.07-19.27c1.87-.44,3.58-.86,5.14-1.26,1.55-.4,3.13-.73,4.74-.99,1.61-.27,2.97-.4,4.07-.4,.99,0,1.85,.09,2.6,.25,1.51,.44,2.26,1.32,2.26,2.64Zm-2.59,.99c0-.52-.23-.82-.67-.9-1.23-.28-2.46-.42-3.67-.42-3.63,0-6.7,.92-9.2,2.77l3.38,12.17c1.71-1.73,3.83-4.1,6.36-7.1,2.53-2.99,3.8-5.17,3.8-6.52Z"/>
    <path class="cls-2" d="M57.23,38.39c-3.37,4.51-6.75,8.44-10.15,11.8s-5.93,5.76-7.61,7.22l7.43,26.04-10.82,7.8L17.14,37.15c-.05,0-.31,.26-.78,.79-.47,.52-1.08,1.2-1.84,2.04-.75,.84-1.23,1.35-1.42,1.55-.08,0-.35-.6-.81-1.78-.45-1.18-1.06-2.83-1.81-4.93-.76-2.11-1.61-4.44-2.56-7.02-.95-2.57-1.59-4.18-1.92-4.84,3.33-1.1,6.46-2.12,9.39-3.06,2.93-.93,6.02-1.82,9.26-2.66,3.25-.84,6.35-1.51,9.31-2,2.96-.5,5.86-.74,8.73-.74,2.22,0,4.27,.17,6.14,.51,1.88,.35,3.64,.92,5.31,1.71,1.66,.8,3.15,1.87,4.45,3.2,1.31,1.34,2.38,2.91,3.2,4.73,.33,.74,.5,1.52,.5,2.35,0,3.08-1.69,6.88-5.06,11.39Zm-10.05,7.78c3.55-3.81,6.42-7.46,8.61-10.96,2.19-3.49,3.28-6.31,3.28-8.46,0-.74-.11-1.33-.33-1.77-.61-1.43-1.4-2.65-2.37-3.65-.98-1.01-2.1-1.82-3.35-2.44s-2.64-1.07-4.19-1.36c-1.54-.29-3.26-.43-5.15-.43-2.31,0-4.72,.18-7.22,.55-2.51,.37-5.1,.88-7.78,1.53-2.69,.65-6.07,1.53-10.15,2.66-4.09,1.13-7.36,2.06-9.81,2.81l5.04,13.49c.63-.85,1.38-1.59,2.25-2.23,.86-.63,1.59-.95,2.16-.95,.36,0,.58,.17,.66,.5l17.96,52.74,7.75-4.75-7.75-27.36c3.38-2.8,6.85-6.11,10.39-9.92Z"/>
  </g>
  <g>
    <path class="cls-3" d="M6,22.96c3.33-1.1,6.46-2.12,9.39-3.06,2.93-.93,6.02-1.82,9.26-2.66,3.25-.84,6.35-1.51,9.31-2,2.96-.5,5.86-.74,8.73-.74,2.22,0,4.27,.17,6.14,.51,1.88,.35,3.64,.92,5.31,1.71,1.66,.8,3.15,1.87,4.45,3.2,1.31,1.34,2.38,2.91,3.2,4.73,.33,.74,.5,1.52,.5,2.35,0,3.08-1.69,6.88-5.06,11.39s-6.75,8.44-10.15,11.8-5.93,5.76-7.61,7.22l7.43,26.04-10.82,7.8L17.14,37.15c-.05,0-.31,.26-.78,.79-.47,.52-1.08,1.2-1.84,2.04-.75,.84-1.23,1.35-1.42,1.55-.08,0-.35-.6-.81-1.78-.45-1.18-1.06-2.83-1.81-4.93-.76-2.11-1.61-4.44-2.56-7.02-.95-2.57-1.59-4.18-1.92-4.84Z"/>
    <path class="cls-3" d="M8.72,24.65l5.04,13.49c.63-.85,1.38-1.59,2.25-2.23,.86-.63,1.59-.95,2.16-.95,.36,0,.58,.17,.66,.5l17.96,52.74,7.75-4.75-7.75-27.36c3.38-2.8,6.85-6.11,10.39-9.92,3.55-3.81,6.42-7.46,8.61-10.96,2.19-3.49,3.28-6.31,3.28-8.46,0-.74-.11-1.33-.33-1.77-.61-1.43-1.4-2.65-2.37-3.65-.98-1.01-2.1-1.82-3.35-2.44s-2.64-1.07-4.19-1.36c-1.54-.29-3.26-.43-5.15-.43-2.31,0-4.72,.18-7.22,.55-2.51,.37-5.1,.88-7.78,1.53-2.69,.65-6.07,1.53-10.15,2.66-4.09,1.13-7.36,2.06-9.81,2.81Z"/>
    <path class="cls-3" d="M30.02,31.75c1.87-.44,3.58-.86,5.14-1.26,1.55-.4,3.13-.73,4.74-.99,1.61-.27,2.97-.4,4.07-.4,.99,0,1.85,.09,2.6,.25,1.51,.44,2.26,1.32,2.26,2.64,0,2.51-1.71,5.75-5.15,9.74s-6.3,7.09-8.59,9.29l-5.07-19.27Z"/>
    <path class="cls-3" d="M32.7,34.43l3.38,12.17c1.71-1.73,3.83-4.1,6.36-7.1,2.53-2.99,3.8-5.17,3.8-6.52,0-.52-.23-.82-.67-.9-1.23-.28-2.46-.42-3.67-.42-3.63,0-6.7,.92-9.2,2.77Z"/>
    <path class="cls-3" d="M78.55,50.85c1.66,.89,3.02,2.09,4.06,3.6,1.04,1.52,1.8,3.21,2.28,5.1s.73,3.85,.73,5.89c0,1.69-.14,3.32-.41,4.89s-.64,3.01-1.11,4.32-1.02,2.43-1.65,3.34c-1.48,2.2-3.06,4.1-4.74,5.7-1.69,1.59-3.41,2.87-5.17,3.85-1.76,.97-3.5,1.68-5.22,2.14-1.73,.46-3.43,.69-5.12,.69-1.99,0-3.88-.32-5.68-.94-1.79-.62-3.32-1.43-4.58-2.44-2.09-1.73-3.72-4.07-4.89-7.01s-1.76-6.06-1.76-9.34c0-5.64,1.63-10.2,4.89-13.67,2.79-2.98,5.67-5.22,8.65-6.74,2.97-1.51,6.02-2.26,9.14-2.26,1.83,0,3.58,.23,5.27,.68,1.69,.46,3.46,1.19,5.31,2.2Z"/>
    <path class="cls-3" d="M77.11,52.64c-1.99-1.78-4.56-2.67-7.7-2.67-1.74,0-3.56,.32-5.49,.97-1.92,.64-3.86,1.62-5.81,2.92-1.96,1.3-3.83,2.91-5.61,4.83-1.15,1.24-2.08,2.56-2.78,3.95-.7,1.4-1.23,2.85-1.58,4.36-.35,1.52-.53,3.03-.53,4.56,0,2.97,.58,5.73,1.74,8.28,1.16,2.54,2.74,4.49,4.73,5.85,2.06,1.43,4.61,2.14,7.63,2.14,3.42,0,6.82-1.01,10.21-3.04,3.39-2.02,6.12-4.97,8.21-8.84,1.92-3.42,2.88-6.9,2.88-10.44,0-2.53-.5-4.89-1.51-7.08-1.01-2.2-2.47-4.12-4.39-5.79Z"/>
    <path class="cls-3" d="M76.47,56.76c.29,.98,.43,2.06,.43,3.23,0,1.71-.34,3.44-1.02,5.19-.68,1.74-1.67,3.17-2.96,4.29-1.29,1.11-2.76,1.67-4.43,1.67s-3.46-.6-5.34-1.8c-2.02-1.29-3.02-3.02-3.02-5.2,0-1.17,.31-2.34,.93-3.5s1.45-2.2,2.48-3.13c1.03-.92,2.26-1.68,3.69-2.27,1.43-.58,2.93-.87,4.5-.87-1.55,.61-2.68,1.44-3.39,2.49-.72,1.06-1.08,2.12-1.08,3.2,0,1.41,.36,2.39,1.06,2.95,.49,.33,1.05,.5,1.69,.5,1.26,0,2.56-.68,3.88-2.04s2.19-2.93,2.58-4.71Z"/>
    <polygon class="cls-3" points="130.42 79.5 131.14 91.61 103.51 71.75 104.39 89.01 87.65 89.33 84.49 28.26 79.32 29.42 81.04 20.77 98.9 13.29 101.5 53.89 116.2 45.84 131.46 48.13 111.56 63.38 129.79 77.14 130.3 77.52 130.42 79.5"/>
    <path class="cls-3" d="M126.53,49.85l-10.05-1.44-16.7,8.08-2.6-40.6-14.42,6.04-1.16,4.89,4.93-2.6,3.16,63.35,12.38-.28-.57-19.58,27.64,20.46c0-1.2-.11-3.18-.32-5.94-.21-2.77-.39-4.15-.53-4.15-.05,0-1.23-.83-3.57-2.5-2.33-1.66-4.46-3.2-6.4-4.6-1.93-1.41-3.95-2.87-6.06-4.4-2.11-1.52-3.59-2.59-4.43-3.2l18.7-13.53Z"/>
    <polygon class="cls-3" points="134.07 45.93 148 29.67 159.87 38.45 140.06 50.45 134.07 45.93"/>
    <polygon class="cls-3" points="136.04 45.5 139.73 48.74 157.12 38.54 148.14 31.76 136.04 45.5"/>
    <path class="cls-3" d="M129.79,77.14c-.24-1.3-.37-2.69-.37-4.16,0-3.51,.64-6.98,1.92-10.39s2.63-5.79,4.06-7.15c1.71-1.62,3.57-2.97,5.57-4.05,2.01-1.07,4.09-1.88,6.24-2.42,2.16-.54,4.37-.81,6.65-.81,2.97,0,5.8,.48,8.49,1.42,2.68,.95,5.03,2.33,7.05,4.14l-19.3,23.02c1.71,0,3.33-.35,4.86-1.07,1.54-.71,2.95-1.73,4.24-3.06,1.29-1.32,2.44-2.88,3.45-4.66l8.47,10.23c-.68,1.97-2.29,3.78-4.84,5.42-2.54,1.64-5.56,2.93-9.07,3.88-3.5,.95-7,1.43-10.49,1.43-3.09,0-5.85-.41-8.28-1.23-2.42-.82-4.29-2.07-5.61-3.73-1.04-1.31-1.85-2.8-2.41-4.45-.26-.75-.47-1.54-.63-2.36Z"/>
    <path class="cls-3" d="M162.86,69.89c0,1.17-.84,2.48-2.52,3.93-1.67,1.46-3.71,2.7-6.1,3.73s-4.53,1.55-6.43,1.55c-.73,0-1.25-.05-1.58-.14l20.88-25.03c-2.04-1.2-4.28-2.15-6.73-2.85s-4.94-1.06-7.47-1.06c-2.96,0-5.77,.53-8.44,1.59-2.67,1.05-5.11,2.76-7.31,5.13-1.06,1.12-2,2.55-2.83,4.29-.83,1.73-1.5,3.65-1.99,5.76s-.74,4.2-.74,6.26c0,4.5,1.2,7.91,3.59,10.23,2.93,2.79,6.94,4.19,12.02,4.19,3.05,0,6.16-.48,9.34-1.43,3.17-.95,5.92-2.17,8.24-3.67s3.81-2.99,4.47-4.47l-6.4-8.01Z"/>
    <path class="cls-3" d="M141.9,75.72c-.68-.4-1.26-1.38-1.74-2.95s-.72-3.27-.72-5.1c0-3.44,.82-6.08,2.46-7.91,.71-.79,1.64-1.44,2.82-1.93,1.17-.49,2.46-.74,3.86-.74,2.37,0,4.61,.74,6.72,2.22l-13.4,16.41Z"/>
    <path class="cls-3" d="M152.91,59.76c-1.15-.58-2.32-.88-3.52-.88-1.26,0-2.49,.26-3.67,.78-1.19,.51-2.02,1.12-2.52,1.82-1.45,1.88-2.18,3.94-2.18,6.19,0,.82,.09,1.61,.25,2.36s.45,1.78,.84,3.09l10.8-13.36Z"/>
    <path class="cls-3" d="M193.36,16.73l14.69-6.61,.88,47.6c.19,1.22,.28,2.6,.28,4.15,0,1.36-.04,2.37-.14,3.02l.43,21.56-15.83,.84v-2.15c-2.57,1.06-5.18,1.59-7.8,1.59-2.02,0-3.91-.31-5.68-.92s-3.3-1.43-4.59-2.46c-2.08-1.73-3.71-4.07-4.88-7.01s-1.76-6.05-1.76-9.34c0-5.64,1.63-10.2,4.89-13.67,2.81-2.95,5.71-5.19,8.7-6.72,2.99-1.52,6.04-2.28,9.16-2.28,.86,0,1.52,.02,1.96,.07l-.31-27.67Z"/>
    <path class="cls-3" d="M195.12,17.61l.56,28.93c-.38-.04-.95-.07-1.72-.07-1.46,0-2.92,.18-4.4,.53s-3,.89-4.59,1.62c-1.58,.72-3.13,1.64-4.65,2.74-1.53,1.1-2.91,2.33-4.15,3.69-1.15,1.24-2.08,2.56-2.78,3.96-.7,1.39-1.23,2.84-1.58,4.36-.35,1.51-.53,3.02-.53,4.55,0,2.97,.58,5.73,1.74,8.28,1.16,2.54,2.74,4.49,4.73,5.85,1.57,1.1,3.82,1.65,6.75,1.65,3.82,0,7.55-.86,11.18-2.6v4.47l11.53-.85-.88-72-11.21,4.89Z"/>
    <path class="cls-3" d="M193.67,50.87c-1.82,1.22-2.74,2.97-2.74,5.27,0,1.6,.35,2.67,1.06,3.24,.49,.32,1.05,.49,1.68,.49v7.49c-.61,.09-1.09,.14-1.44,.14-1.82,0-3.63-.6-5.41-1.8-2.02-1.33-3.02-3.07-3.02-5.2,0-1.03,.25-2.08,.75-3.15,.51-1.06,1.2-2.04,2.09-2.93s1.97-1.67,3.22-2.32c1.25-.66,2.53-1.07,3.81-1.23Z"/>
    <path class="cls-3" d="M243.75,65.84l8.47,10.23c-.68,1.97-2.29,3.78-4.84,5.42-2.54,1.64-5.56,2.93-9.07,3.88-3.5,.95-7,1.43-10.49,1.43-3.09,0-5.85-.41-8.28-1.23s-4.29-2.07-5.61-3.73c-2.27-2.86-3.41-6.52-3.41-10.97,0-3.51,.64-6.98,1.92-10.39s2.63-5.79,4.06-7.15c1.71-1.62,3.57-2.97,5.57-4.04,2.01-1.08,4.08-1.89,6.24-2.43s4.37-.81,6.65-.81c2.97,0,5.8,.48,8.49,1.43,2.68,.94,5.03,2.32,7.05,4.13l-19.31,23.02c1.71,0,3.34-.35,4.87-1.07,1.54-.71,2.95-1.73,4.24-3.06,1.29-1.32,2.44-2.87,3.45-4.66Z"/>
    <path class="cls-3" d="M243.96,67.78c0,1.17-.84,2.48-2.52,3.94-1.67,1.45-3.71,2.69-6.1,3.72s-4.53,1.55-6.43,1.55c-.73,0-1.25-.05-1.58-.14l20.88-25.03c-2.04-1.2-4.28-2.15-6.73-2.85s-4.94-1.06-7.47-1.06c-2.96,0-5.77,.53-8.44,1.59-2.67,1.05-5.11,2.76-7.31,5.13-1.06,1.12-2,2.55-2.83,4.29-.84,1.73-1.5,3.65-1.99,5.76s-.74,4.2-.74,6.26c0,4.5,1.2,7.91,3.59,10.23,2.93,2.79,6.94,4.19,12.02,4.19,3.05,0,6.16-.48,9.34-1.43,3.17-.95,5.92-2.17,8.24-3.67s3.81-2.99,4.46-4.47l-6.39-8.01Z"/>
    <path class="cls-3" d="M223,73.61c-.68-.39-1.26-1.38-1.74-2.95s-.72-3.27-.72-5.1c0-3.44,.82-6.08,2.46-7.91,.71-.79,1.64-1.44,2.82-1.93,1.17-.49,2.46-.74,3.86-.74,2.37,0,4.61,.74,6.72,2.22l-13.4,16.41Z"/>
    <path class="cls-3" d="M234.01,57.65c-1.15-.58-2.32-.88-3.52-.88-1.26,0-2.49,.26-3.67,.78-1.19,.51-2.02,1.12-2.52,1.83-1.45,1.87-2.18,3.93-2.18,6.18,0,.82,.09,1.61,.25,2.36s.44,1.78,.84,3.09l10.8-13.36Z"/>
    <polygon class="cls-3" points="275.17 78.61 266.66 89.61 248.52 90.17 266.1 66.93 246.23 41.23 265.5 42.08 275.17 54.84 284.8 42.08 304.1 41.23 284.24 66.93 301.81 90.17 283.64 89.61 275.17 78.61"/>
    <polygon class="cls-3" points="281 67 299.21 43.8 286.84 44.12 275.17 59.38 263.49 44.12 251.12 43.8 269.33 67 253.12 88.17 264.65 87.89 275.17 74.49 285.68 87.89 297.17 88.17 281 67"/>
    <polygon class="cls-3" points="290.31 63.54 324.02 60.38 322.86 71.91 289.46 73.03 290.31 63.54"/>
    <polygon class="cls-3" points="292.07 65.26 292.07 71.03 320.26 70.15 320.86 63.26 292.07 65.26"/>
    <polygon class="cls-3" points="316.11 31.71 310.06 30.27 309.74 21.34 331.08 22.78 344.3 64.54 353.83 25.38 374.26 26.54 352.95 91.61 337.13 91.33 316.11 31.71"/>
    <polygon class="cls-3" points="318.39 29.14 338.26 89.33 350.95 89.33 372.25 28.82 354.95 27.7 344.9 70.87 329.33 25.38 311.78 23.38 312.06 28.26 318.39 29.14"/>
    <path class="cls-3" d="M368.71,47.63l17.26,2.01c-.42,5.55-.63,10.13-.63,13.74,0,1.81,.05,3.37,.16,4.68,.1,1.31,.27,2.51,.51,3.58,.23,1.08,.51,2.01,.84,2.78,1.48,3.35,2.83,5.03,4.04,5.03,.94,0,1.9-1.2,2.89-3.59,.65-1.66,1.24-3.3,1.76-4.9,.51-1.61,.91-3.13,1.19-4.59,.28-1.45,.49-3.04,.63-4.78,.14-1.73,.21-3.63,.21-5.7s-.02-3.66-.07-4.81l14.7,.88c.77,4.85,1.23,7.77,1.37,8.77s.21,2.24,.21,3.74c0,2.56-.62,6.35-1.86,11.39-.61,2.56-1.96,5.24-4.05,8.05-2.08,2.82-4.1,4.79-6.04,5.91-3.05,1.74-6.6,2.6-10.65,2.6-2.82,0-5.55-.4-8.21-1.19-2.66-.8-5.11-1.98-7.33-3.55-2.09-1.46-3.76-3.36-5.01-5.7-1.26-2.34-2.13-4.9-2.62-7.66-.49-2.77-.74-5.84-.74-9.21,0-2.02,.06-3.96,.19-5.84s.3-3.79,.51-5.75c.21-1.95,.46-3.92,.74-5.89Z"/>
    <path class="cls-3" d="M370.71,49.92c-.82,5.37-1.23,10.12-1.23,14.27,0,3.07,.26,5.97,.78,8.69,.51,2.71,1.37,5.16,2.56,7.34,1.2,2.18,2.8,3.99,4.82,5.42,3.96,2.88,8.38,4.32,13.25,4.32,3.68,0,6.94-.87,9.78-2.6,1.17-.73,2.18-1.52,3.02-2.37,.85-.86,1.55-1.73,2.11-2.62s1.1-1.88,1.62-2.96c.51-1.07,.96-1.98,1.33-2.7,1.76-3.54,2.64-7.14,2.64-10.8,0-1.66-.2-3.76-.6-6.31-.4-2.54-.59-4.33-.59-5.36l-10.66-.28c.19,1.64,.28,2.99,.28,4.04,0,2.72-.28,5.65-.84,8.79s-1.24,5.87-2.04,8.19c-.77,2.28-1.73,3.99-2.88,5.14s-2.36,1.72-3.62,1.72-2.51-.6-3.59-1.79c-1.08-1.2-1.84-2.79-2.28-4.78-.87-4.03-1.3-8.35-1.3-12.94,0-3.4,.23-7.06,.7-10.97l-13.26-1.44Z"/>
    <path class="cls-3" d="M450.53,70.01l8.47,10.23c-.68,1.97-2.29,3.77-4.83,5.41-2.55,1.65-5.57,2.94-9.07,3.89-3.51,.95-7.01,1.42-10.5,1.42-3.09,0-5.85-.41-8.28-1.23-2.42-.82-4.29-2.06-5.61-3.72-2.27-2.86-3.41-6.52-3.41-10.97,0-3.52,.64-6.98,1.92-10.39s2.63-5.8,4.06-7.16c1.71-1.61,3.57-2.96,5.57-4.04,2.01-1.08,4.09-1.88,6.24-2.42,2.16-.54,4.37-.81,6.65-.81,2.97,0,5.8,.47,8.49,1.42,2.68,.95,5.03,2.33,7.05,4.13l-19.3,23.03c1.71,0,3.33-.36,4.87-1.07,1.53-.72,2.94-1.74,4.23-3.06,1.29-1.33,2.44-2.88,3.45-4.66Z"/>
    <path class="cls-3" d="M450.74,71.94c0,1.18-.84,2.49-2.52,3.94-1.67,1.45-3.7,2.7-6.1,3.73-2.39,1.03-4.53,1.54-6.43,1.54-.73,0-1.25-.04-1.58-.14l20.88-25.03c-2.04-1.19-4.28-2.14-6.73-2.84-2.45-.71-4.94-1.06-7.47-1.06-2.95,0-5.77,.53-8.44,1.58-2.67,1.06-5.11,2.77-7.31,5.14-1.06,1.12-2,2.55-2.83,4.28-.83,1.74-1.5,3.66-1.99,5.77s-.74,4.2-.74,6.26c0,4.5,1.2,7.91,3.59,10.23,2.93,2.79,6.94,4.18,12.02,4.18,3.05,0,6.16-.47,9.34-1.42,3.17-.95,5.92-2.18,8.24-3.68s3.81-2.98,4.47-4.46l-6.4-8.02Z"/>
    <path class="cls-3" d="M429.78,77.78c-.68-.4-1.26-1.38-1.74-2.95s-.72-3.27-.72-5.1c0-3.45,.82-6.08,2.46-7.91,.71-.8,1.65-1.44,2.82-1.93,1.17-.5,2.46-.74,3.86-.74,2.37,0,4.61,.74,6.72,2.21l-13.4,16.42Z"/>
    <path class="cls-3" d="M440.79,61.82c-1.15-.59-2.32-.88-3.52-.88-1.26,0-2.49,.26-3.67,.77-1.18,.52-2.02,1.13-2.51,1.83-1.46,1.88-2.18,3.94-2.18,6.19,0,.82,.08,1.6,.24,2.35,.17,.75,.45,1.79,.85,3.1l10.79-13.36Z"/>
  </g>
</svg>