<?xml version="1.0" encoding="UTF-8"?>
<svg id="Capa_1" data-name="Capa 1" xmlns="http://www.w3.org/2000/svg" viewBox="0 0 200 200">
  <defs>
    <style>
      .cls-1 {
        fill: #fff;
        stroke: #e63719;
        stroke-linecap: round;
        stroke-linejoin: round;
        stroke-width: .5px;
      }
    </style>
  </defs>
  <path class="cls-1" d="M176.57,39.63l6.11-6.11-16.2-16.2-6.11,6.11C143.76,10.33,122.8,2.5,100,2.5,46.15,2.5,2.5,46.15,2.5,100c0,22.8,7.83,43.76,20.93,60.37l-5.94,5.94,16.2,16.2,5.94-5.94c16.6,13.11,37.57,20.93,60.37,20.93,53.85,0,97.5-43.65,97.5-97.5,0-22.8-7.83-43.76-20.93-60.37ZM22,100c0-43.08,34.92-78,78-78,17.41,0,33.48,5.71,46.46,15.34L37.34,146.46c-9.64-12.98-15.34-29.05-15.34-46.46Zm78,78c-17.41,0-33.48-5.71-46.46-15.34L162.66,53.54c9.64,12.98,15.34,29.05,15.34,46.46,0,43.08-34.92,78-78,78Z"/>
</svg>