<svg id="Capa_1" data-name="Capa 1" xmlns="http://www.w3.org/2000/svg" viewBox="0 0 300 300"><defs><style>.cls-1{fill:#fff;}.cls-10,.cls-2{fill:#1d1d1b;}.cls-3{fill:#1d71b8;}.cls-4{fill:#be1622;}.cls-5,.cls-7,.cls-8{fill:#f6f6f6;}.cls-6{fill:none;stroke:#1d1d1b;stroke-miterlimit:10;}.cls-7{opacity:0.8;}.cls-8{opacity:0.75;}.cls-9{fill:#b2b2b2;}.cls-10,.cls-9{opacity:0.21;}</style></defs><path class="cls-1" d="M150,116.87A33.13,33.13,0,1,1,116.88,150,33.13,33.13,0,0,1,150,116.87ZM176.51,150A26.51,26.51,0,1,0,150,176.5,26.51,26.51,0,0,0,176.51,150Z"/><path class="cls-2" d="M288,150a138.64,138.64,0,0,1-2.48,26.1H182.14a41.41,41.41,0,0,1-64.28,0H14.46a138.85,138.85,0,0,1-.37-50.24H116.36a41.4,41.4,0,0,1,67.28,0H285.92A139.11,139.11,0,0,1,288,150Zm-104.9,0A33.13,33.13,0,1,0,150,183.12,33.13,33.13,0,0,0,183.13,150Z"/><path class="cls-3" d="M285.92,125.86H183.64a41.4,41.4,0,0,0-67.28,0H14.09A137.13,137.13,0,0,1,31.9,78.54,192.08,192.08,0,0,0,50.78,92.37a193.1,193.1,0,0,0,48.91,22.48l17.19-18.51A452.16,452.16,0,0,0,86.47,60c-6.7-7.2-13.33-13.86-19.81-20a138.05,138.05,0,0,1,166.22-.36c-6.61,6.25-13.37,13-20.2,20.37a451.92,451.92,0,0,0-30.4,36.36l17.18,18.51a193.3,193.3,0,0,0,48.92-22.48,191.78,191.78,0,0,0,19.44-14.31A137,137,0,0,1,285.92,125.86Z"/><path class="cls-1" d="M182.14,176.1H285.55a136.77,136.77,0,0,1-12.19,35.84c-42.29,40.52-101.41,54.16-151,34.67C75.52,228.2,54.8,187.19,49.64,176.1h68.22a41.41,41.41,0,0,0,64.28,0Z"/><path class="cls-4" d="M271.16,75.19q-1.62,1.43-3.34,2.87a138.83,138.83,0,0,0-34.94-38.45c.81-.77,1.62-1.54,2.43-2.29a98.4,98.4,0,0,1,35.85,37.87Z"/><path class="cls-4" d="M267.82,78.06a191.78,191.78,0,0,1-19.44,14.31,193.3,193.3,0,0,1-48.92,22.48L182.28,96.34A451.92,451.92,0,0,1,212.68,60c6.83-7.34,13.59-14.12,20.2-20.37A138.83,138.83,0,0,1,267.82,78.06Z"/><path class="cls-5" d="M273.36,211.94A138,138,0,0,1,14.46,176.1H49.64c5.16,11.09,25.88,52.1,72.71,70.51C172,266.1,231.07,252.46,273.36,211.94Z"/><path class="cls-1" d="M150,123.49A26.51,26.51,0,1,1,123.5,150,26.51,26.51,0,0,1,150,123.49Z"/><path class="cls-4" d="M116.88,96.34,99.69,114.85A193.1,193.1,0,0,1,50.78,92.37,192.08,192.08,0,0,1,31.9,78.54,138.64,138.64,0,0,1,66.66,40c6.48,6.15,13.11,12.81,19.81,20A452.16,452.16,0,0,1,116.88,96.34Z"/><path class="cls-4" d="M63.84,37.32c.94.87,1.87,1.76,2.82,2.65A138.64,138.64,0,0,0,31.9,78.54c-1.35-1.13-2.65-2.24-3.91-3.35A98.4,98.4,0,0,1,63.84,37.32Z"/><path class="cls-6" d="M183.13,150A33.13,33.13,0,1,1,150,116.87,33.12,33.12,0,0,1,183.13,150Z"/><path class="cls-6" d="M176.51,150A26.51,26.51,0,1,1,150,123.49,26.51,26.51,0,0,1,176.51,150Z"/><path class="cls-6" d="M31.9,78.54a137.13,137.13,0,0,0-17.81,47.32"/><path class="cls-6" d="M232.88,39.61A138.05,138.05,0,0,0,66.66,40"/><path class="cls-6" d="M285.92,125.86a137,137,0,0,0-18.1-47.8"/><path class="cls-6" d="M14.46,176.1a138,138,0,0,0,271.09,0"/><path class="cls-6" d="M285.92,125.86H183.64a41.4,41.4,0,0,0-67.28,0H14.09a138.85,138.85,0,0,0,.37,50.24h103.4a41.41,41.41,0,0,0,64.28,0H285.55a138.85,138.85,0,0,0,.37-50.24Z"/><path class="cls-6" d="M267.82,78.06a191.78,191.78,0,0,1-19.44,14.31,193.3,193.3,0,0,1-48.92,22.48L182.28,96.34A451.92,451.92,0,0,1,212.68,60c6.83-7.34,13.59-14.12,20.2-20.37.81-.77,1.62-1.54,2.43-2.29a98.4,98.4,0,0,1,35.85,37.87Q269.54,76.62,267.82,78.06Z"/><path class="cls-6" d="M31.9,78.54A192.08,192.08,0,0,0,50.78,92.37a193.1,193.1,0,0,0,48.91,22.48l17.19-18.51A452.16,452.16,0,0,0,86.47,60c-6.7-7.2-13.33-13.86-19.81-20-1-.89-1.88-1.78-2.82-2.65A98.4,98.4,0,0,0,28,75.19C29.25,76.3,30.55,77.41,31.9,78.54Z"/><path class="cls-7" d="M90.29,53.92c-6.17-5.16-4.25-22,8-27.76C112.22,19.6,129.4,31.69,129,39.53,128.48,49.52,99,61.17,90.29,53.92Z"/><path class="cls-8" d="M73,46.88A92.26,92.26,0,0,0,39.39,84l12.53,9.16A80.45,80.45,0,0,1,81.31,55Z"/><path class="cls-8" d="M225.51,46.88A92.26,92.26,0,0,1,259.11,84l-12.53,9.16A80.51,80.51,0,0,0,217.2,55Z"/><path class="cls-9" d="M30.68,80.48a57.19,57.19,0,0,0,17.19,23.8c6.52,5.22,12.88,7.74,21.15,11A141.09,141.09,0,0,0,91.5,121.9a197.1,197.1,0,0,0,24.86,4L14.71,125.1a126.68,126.68,0,0,1,16-44.62Z"/><path class="cls-10" d="M268.81,80.11c-5.27,13.14-12.92,20.38-17.19,23.8-6.52,5.22-12.88,7.74-21.15,11A141.09,141.09,0,0,1,208,121.53a197.1,197.1,0,0,1-24.86,4l101.65-.77a126.68,126.68,0,0,0-16-44.62Z"/></svg>