<svg id="Capa_1" data-name="Capa 1" xmlns="http://www.w3.org/2000/svg" viewBox="0 0 300 300"><defs><style>.cls-1,.cls-11{fill:#fff;}.cls-2,.cls-9{fill:#1d1d1b;}.cls-3{fill:#f6f6f6;}.cls-4{fill:#5b3c90;}.cls-5{fill:#b33c8e;}.cls-6{fill:#951b81;}.cls-7,.cls-8{fill:none;stroke-miterlimit:10;}.cls-7{stroke:#1d1d1b;}.cls-8{stroke:#fff;}.cls-10,.cls-9{opacity:0.21;}.cls-10{fill:#b2b2b2;}.cls-11{fill-opacity:0.05;}</style></defs><path class="cls-1" d="M117.86,176.11a41.41,41.41,0,0,0,64.28,0H285.55A136.77,136.77,0,0,1,273.36,212c-42.29,40.52-101.41,54.16-151,34.66-46.83-18.4-67.55-59.41-72.71-70.5Z"/><path class="cls-2" d="M150,108.6a41.31,41.31,0,0,1,33.64,17.27H285.92a138.85,138.85,0,0,1-.37,50.24H182.14a41.41,41.41,0,0,1-64.28,0H14.46a138.85,138.85,0,0,1-.37-50.24H116.36A41.34,41.34,0,0,1,150,108.6ZM183.13,150A33.13,33.13,0,1,0,150,183.13,33.12,33.12,0,0,0,183.13,150Z"/><path class="cls-3" d="M273.36,212a138,138,0,0,1-258.9-35.84H49.64c5.16,11.09,25.88,52.1,72.71,70.5C172,266.11,231.07,252.47,273.36,212Z"/><path class="cls-4" d="M150,12A138.06,138.06,0,0,1,285.92,125.87H183.64a41.4,41.4,0,0,0-67.28,0H14.09a136.22,136.22,0,0,1,5.46-21,69.57,69.57,0,0,0,28.63,5.28c26.13-.85,43.32-16.78,48-21.16,29.4-27.25,26.48-67.62,26-73.26A138.24,138.24,0,0,0,20.2,103,138.05,138.05,0,0,1,150,12ZM241.31,47.5a139.05,139.05,0,0,0-63.86-31.79c-.5,5.64-3.42,46,26,73.26,4.71,4.38,21.9,20.31,48,21.16a69.52,69.52,0,0,0,28.64-5.29A138.67,138.67,0,0,0,241.31,47.5ZM195.1,117Q183.64,87,172.17,57.13L151,83.13l-21.15-26Q118.41,87,106.94,117l10.59.09L131.71,73.3,151,95.91,170.34,73.3q7.08,21.89,14.17,43.76Z"/><path class="cls-5" d="M241.31,47.5a138.67,138.67,0,0,1,38.79,57.34,69.52,69.52,0,0,1-28.64,5.29c-26.13-.85-43.32-16.78-48-21.16C174,61.72,177,21.35,177.45,15.71A139.05,139.05,0,0,1,241.31,47.5Z"/><path class="cls-5" d="M122.19,15.71c.5,5.64,3.42,46-26,73.26-4.71,4.38-21.9,20.31-48,21.16a69.57,69.57,0,0,1-28.63-5.28c.21-.62.42-1.23.65-1.84a138.24,138.24,0,0,1,102-87.3Z"/><path class="cls-6" d="M20.2,103c-.23.61-.44,1.22-.65,1.84h0C19.74,104.26,20,103.65,20.2,103Z"/><path class="cls-7" d="M183.13,150A33.13,33.13,0,1,1,150,116.88,33.13,33.13,0,0,1,183.13,150Z"/><path class="cls-7" d="M176.51,150A26.51,26.51,0,1,1,150,123.5,26.51,26.51,0,0,1,176.51,150Z"/><path class="cls-7" d="M19.55,104.85a136.22,136.22,0,0,0-5.46,21"/><path class="cls-7" d="M285.92,125.87A138.05,138.05,0,0,0,20.2,103"/><path class="cls-7" d="M14.46,176.11a138,138,0,0,0,271.09,0"/><path class="cls-7" d="M285.92,125.87H183.64a41.4,41.4,0,0,0-67.28,0H14.09a138.85,138.85,0,0,0,.37,50.24h103.4a41.41,41.41,0,0,0,64.28,0H285.55a138.85,138.85,0,0,0,.37-50.24Z"/><path class="cls-8" d="M172.17,57.13,151,83.13l-21.15-26Q118.41,87,106.94,117l10.59.09L131.71,73.3,151,95.91,170.34,73.3q7.08,21.89,14.17,43.76L195.1,117Q183.64,87,172.17,57.13Z"/><path class="cls-9" d="M268.81,80.48a57.19,57.19,0,0,1-17.19,23.8c-6.52,5.22-12.88,7.74-21.15,11A141.09,141.09,0,0,1,208,121.9a197.1,197.1,0,0,1-24.86,4l101.65-.77a126.68,126.68,0,0,0-16-44.62Z"/><path class="cls-10" d="M30.68,80.48a57.19,57.19,0,0,0,17.19,23.8c6.52,5.22,12.88,7.74,21.15,11A141.09,141.09,0,0,0,91.5,121.9a197.1,197.1,0,0,0,24.86,4L14.71,125.1a126.68,126.68,0,0,1,16-44.62Z"/><path class="cls-11" d="M30.68,80.48a142.76,142.76,0,0,1,91-64.67c.84,5.38,1.42,15-4.54,21.48a18,18,0,0,1-2.31,2.1c-10.74,8.52-22,6.78-33.49,12.78-4,2.06-6.63,4.64-12,9.8A115.26,115.26,0,0,0,43.68,99.43a43.5,43.5,0,0,1-13-19Z"/><path class="cls-11" d="M268.67,80.48a142.76,142.76,0,0,0-91-64.67c-.83,5.38-1.41,15,4.54,21.48a19.71,19.71,0,0,0,2.31,2.1c10.75,8.52,22,6.78,33.49,12.78,3.95,2.06,6.64,4.64,12,9.8a115.11,115.11,0,0,1,25.67,37.46,43.28,43.28,0,0,0,13-19Z"/><path class="cls-11" d="M122.19,15.71a136.62,136.62,0,0,1,55.26,0l-.63,7.76a102.65,102.65,0,0,0-54.37.66C122.36,21.32,122.27,18.52,122.19,15.71Z"/></svg>