<svg id="Capa_1" data-name="Capa 1" xmlns="http://www.w3.org/2000/svg" viewBox="0 0 300 300"><defs><style>.cls-1,.cls-6{fill:#fff;}.cls-2,.cls-8{fill:#1d1d1b;}.cls-3{fill:#e30613;}.cls-4{fill:#f6f6f6;}.cls-5{fill:none;stroke:#1d1d1b;stroke-linecap:round;stroke-linejoin:round;stroke-width:0.5px;}.cls-6{opacity:0.8;}.cls-7{fill:#b2b2b2;}.cls-7,.cls-8{opacity:0.21;}</style></defs><path class="cls-1" d="M150,116.87A33.13,33.13,0,1,1,116.88,150,33.13,33.13,0,0,1,150,116.87ZM176.51,150A26.51,26.51,0,1,0,150,176.5,26.51,26.51,0,0,0,176.51,150Z"/><path class="cls-2" d="M288,150a138.56,138.56,0,0,1-2.48,26.1H182.14a41.41,41.41,0,0,1-64.28,0H14.46a138.85,138.85,0,0,1-.37-50.24H116.36a41.4,41.4,0,0,1,67.28,0H285.92A139.11,139.11,0,0,1,288,150Zm-104.9,0A33.13,33.13,0,1,0,150,183.12,33.13,33.13,0,0,0,183.13,150Z"/><path class="cls-3" d="M285.92,125.86H183.64a41.4,41.4,0,0,0-67.28,0H14.09a138,138,0,0,1,271.83,0Z"/><path class="cls-1" d="M182.14,176.1H285.55a136.77,136.77,0,0,1-12.19,35.84c-42.29,40.52-101.41,54.16-151,34.67C75.52,228.2,54.8,187.19,49.64,176.1h68.22a41.41,41.41,0,0,0,64.28,0Z"/><path class="cls-4" d="M273.36,211.94A138,138,0,0,1,14.46,176.1H49.64c5.16,11.09,25.88,52.1,72.71,70.51C172,266.1,231.07,252.46,273.36,211.94Z"/><path class="cls-1" d="M150,123.49A26.51,26.51,0,1,1,123.5,150,26.51,26.51,0,0,1,150,123.49Z"/><path class="cls-5" d="M183.13,150A33.13,33.13,0,1,1,150,116.87,33.12,33.12,0,0,1,183.13,150Z"/><path class="cls-5" d="M176.51,150A26.51,26.51,0,1,1,150,123.49,26.51,26.51,0,0,1,176.51,150Z"/><path class="cls-5" d="M285.92,125.86a138,138,0,0,0-271.83,0"/><path class="cls-5" d="M14.46,176.1a138,138,0,0,0,271.09,0"/><path class="cls-5" d="M285.92,125.86H183.64a41.4,41.4,0,0,0-67.28,0H14.09a138.85,138.85,0,0,0,.37,50.24h103.4a41.41,41.41,0,0,0,64.28,0H285.55a138.85,138.85,0,0,0,.37-50.24Z"/><path class="cls-6" d="M60,73.54C54.66,66,71.86,35.26,95,33.88c11.44-.68,25,5.74,25.78,13.22C122,58.23,94.61,68.35,90.39,69.9,83.68,72.38,64.22,79.57,60,73.54Z"/><path class="cls-7" d="M30.68,80.86C36,94,43.6,101.24,47.87,104.66c6.52,5.22,12.88,7.74,21.15,11a141.09,141.09,0,0,0,22.48,6.61,197.32,197.32,0,0,0,24.86,4l-101.65-.77a126.68,126.68,0,0,1,16-44.62Z"/><path class="cls-8" d="M268.81,80.86c-5.27,13.15-12.92,20.38-17.19,23.8-6.52,5.22-12.88,7.74-21.15,11A141.09,141.09,0,0,1,208,122.29a197.32,197.32,0,0,1-24.86,4l101.65-.77a126.68,126.68,0,0,0-16-44.62Z"/></svg>