<svg id="Capa_1" data-name="Capa 1" xmlns="http://www.w3.org/2000/svg" viewBox="0 0 300 300"><defs><style>.cls-1,.cls-7{fill:#fff;}.cls-2,.cls-9{fill:#1d1d1b;}.cls-3{fill:#23203b;}.cls-4{fill:#fcea10;}.cls-5{fill:#f6f6f6;}.cls-6{fill:none;stroke:#1d1d1b;stroke-miterlimit:10;}.cls-7{opacity:0.8;}.cls-8{fill:#b2b2b2;}.cls-8,.cls-9{opacity:0.21;}</style></defs><path class="cls-1" d="M150,123.49A26.51,26.51,0,1,1,123.5,150,26.51,26.51,0,0,1,150,123.49Z"/><path class="cls-2" d="M288,150a138.56,138.56,0,0,1-2.48,26.1H182.14a41.39,41.39,0,0,1-64.28,0H14.46a138.85,138.85,0,0,1-.37-50.24H116.36a41.4,41.4,0,0,1,67.28,0H285.92A139.11,139.11,0,0,1,288,150Zm-104.9,0A33.13,33.13,0,1,0,150,183.12,33.13,33.13,0,0,0,183.13,150Z"/><path class="cls-3" d="M285.92,125.86H246.35q-1-37.56-2-75.13c-10.65-9.28-45.28-37.25-92-38.68a.07.07,0,0,0,0-.05A138,138,0,0,1,285.92,125.86Z"/><path class="cls-1" d="M182.14,176.1H285.55A137,137,0,0,1,273.36,212c-42.29,40.51-101.41,54.16-151,34.66C75.52,228.2,54.8,187.19,49.64,176.1h68.22a41.39,41.39,0,0,0,64.28,0Z"/><path class="cls-4" d="M244.35,50.73q1,37.58,2,75.13H200.06l-2-87.69A104.26,104.26,0,0,0,150,25.62a104.33,104.33,0,0,0-48.08,12.55l-2,87.69H53.66q1-37.56,2-75.13c10.66-9.28,45.28-37.25,92-38.68V12c.59,0,1.18,0,1.78,0h1.2c.6,0,1.19,0,1.78,0a.07.07,0,0,1,0,.05C199.07,13.48,233.7,41.45,244.35,50.73Z"/><path class="cls-5" d="M273.36,212A138,138,0,0,1,14.46,176.1H49.64c5.16,11.09,25.88,52.1,72.71,70.51C172,266.11,231.07,252.46,273.36,212Z"/><path class="cls-3" d="M198.08,38.17l2,87.69H183.64a41.4,41.4,0,0,0-67.28,0H99.94l2-87.69A104.33,104.33,0,0,1,150,25.62,104.26,104.26,0,0,1,198.08,38.17Z"/><path class="cls-1" d="M150,116.87A33.13,33.13,0,1,1,116.88,150,33.13,33.13,0,0,1,150,116.87ZM176.51,150A26.51,26.51,0,1,0,150,176.5,26.51,26.51,0,0,0,176.51,150Z"/><path class="cls-4" d="M152.38,12v0c-.59,0-1.18,0-1.78,0h1.78Z"/><path class="cls-4" d="M149.4,12c-.6,0-1.19,0-1.78,0v0h1.78Z"/><path class="cls-3" d="M147.62,12v.05c-46.69,1.43-81.31,29.4-92,38.68q-1,37.58-2,75.13H14.09A138,138,0,0,1,147.62,12Z"/><path class="cls-6" d="M183.13,150A33.13,33.13,0,1,1,150,116.87,33.12,33.12,0,0,1,183.13,150Z"/><path class="cls-6" d="M176.51,150A26.51,26.51,0,1,1,150,123.49,26.51,26.51,0,0,1,176.51,150Z"/><path class="cls-6" d="M147.62,12A138,138,0,0,0,14.09,125.86"/><path class="cls-6" d="M150.48,12h-1"/><path class="cls-6" d="M285.92,125.86A138,138,0,0,0,152.38,12"/><path class="cls-6" d="M14.46,176.1a138,138,0,0,0,271.09,0"/><path class="cls-6" d="M285.92,125.86H183.64a41.4,41.4,0,0,0-67.28,0H14.09a138.85,138.85,0,0,0,.37,50.24h103.4a41.39,41.39,0,0,0,64.28,0H285.55a138.85,138.85,0,0,0,.37-50.24Z"/><path class="cls-7" d="M64.37,55.48c-2.51,4.3-2.34,11.07,1.17,12.94s9-1.48,11.17-5.88S78,51.76,74.36,50.19C71,48.74,66.39,52,64.37,55.48Z"/><path class="cls-8" d="M30.68,80.48a57.19,57.19,0,0,0,17.19,23.8c6.52,5.22,12.88,7.74,21.15,11A141.09,141.09,0,0,0,91.5,121.9a197.1,197.1,0,0,0,24.86,4L14.71,125.1a126.68,126.68,0,0,1,16-44.62Z"/><path class="cls-9" d="M268.81,80.48a57.19,57.19,0,0,1-17.19,23.8c-6.52,5.22-12.88,7.74-21.15,11A141.09,141.09,0,0,1,208,121.9a197.1,197.1,0,0,1-24.86,4l101.65-.77a126.68,126.68,0,0,0-16-44.62Z"/></svg>