<svg id="Capa_1" data-name="Capa 1" xmlns="http://www.w3.org/2000/svg" viewBox="0 0 300 300"><defs><style>.cls-1{fill:#ffed00;stroke:#fff;stroke-linecap:round;stroke-linejoin:round;stroke-width:4px;}</style></defs><path class="cls-1" d="M127.71,274.43c-.9-11.07-5.36-49.06-36.55-81.73C57.29,157.22,15.36,152.59,5,151.75c10.2-.85,53.76-5.62,87.89-42.72,29.42-32,33.86-68.46,34.79-80,1,11.16,6,49.43,37.87,82.17,33.48,34.41,74.07,39.51,84.81,40.52-11.29,1.27-50.5,7.08-83.49,40.51C134.73,224.87,129,263,127.71,274.43Z"/><path class="cls-1" d="M241.08,114.94A53.45,53.45,0,0,0,192,65.87c4.08-.34,21.51-2.25,35.16-17.09a54.15,54.15,0,0,0,13.91-32,55.07,55.07,0,0,0,15.15,32.87,55.21,55.21,0,0,0,33.93,16.21,55.59,55.59,0,0,0-49.08,49.07Z"/><path class="cls-1" d="M217,265.38A53.45,53.45,0,0,0,168,216.31c4.08-.34,21.5-2.25,35.16-17.09a54.22,54.22,0,0,0,13.91-32,54.31,54.31,0,0,0,49.07,49.07A55.6,55.6,0,0,0,217,265.38Z"/></svg>