<?xml version="1.0" encoding="UTF-8"?>
<svg id="Capa_3" data-name="Capa 3" xmlns="http://www.w3.org/2000/svg" viewBox="0 0 300 300">
  <defs>
    <style>
      .cls-1 {
        fill: #0097cd;
      }

      .cls-1, .cls-2, .cls-3, .cls-4 {
        stroke-miterlimit: 10;
      }

      .cls-1, .cls-3, .cls-4 {
        stroke: #fff;
      }

      .cls-2 {
        stroke: #1d1d1b;
      }

      .cls-2, .cls-3, .cls-5 {
        fill: #fff;
      }

      .cls-4 {
        fill: #fb1a6e;
      }

      .cls-5 {
        stroke-width: 0px;
      }
    </style>
  </defs>
  <path class="cls-2" d="m296.18,81.75c-1.38-6.38-7.03-10.94-13.56-10.94h-39.39c-7.85-9.51-16.99-17.67-27.25-24.3-24.51-15.85-49.61-19.17-66.35-19.17-4.86,0-9.67.28-14.3.84-13.32,1.6-47.27,8.47-74.76,37.66-7.44,7.9-25.39,29.89-31.55,63.5-4.94,26.99-.19,49.9,4.67,64.38.2.59.44,1.15.71,1.7l-22.75,10.31c-5.95,2.7-9.21,9.18-7.83,15.56,1.38,6.38,7.03,10.94,13.56,10.94h39.39c7.85,9.51,16.99,17.67,27.25,24.3,24.51,15.84,49.61,19.17,66.35,19.17,4.86,0,9.67-.28,14.3-.84,13.32-1.6,47.27-8.47,74.76-37.67,7.44-7.9,25.39-29.89,31.55-63.5,4.94-26.98.19-49.9-4.67-64.38-.2-.59-.44-1.15-.71-1.7l22.75-10.31c5.95-2.7,9.21-9.18,7.83-15.56Zm-119.09,53.81c.65,1.07,2.29,3.9,3.28,7.91,2.88,11.63-2.56,21.42-3.16,22.45-5.46,9.44-16.57,15.53-28.29,15.53-3.68,0-6.4-.63-7.39-.88-8.82-2.27-18.79-9.43-21.91-21.02-3.03-11.23,2.03-20.5,3.16-22.45,5.46-9.44,16.57-15.53,28.28-15.53,2.53,0,5.02.3,7.39.88,2.73.67,12.74,3.51,18.63,13.11Z"/>
  <path class="cls-1" d="m17.38,218.36c31.44-14.25,62.88-28.49,94.31-42.74,2.82,3.88,11.46,14.7,26.53,18.42,19.01,4.7,40.9-3.72,51-21.17,7.85-13.55,5.68-27.53,4.75-32.13,19.73-9.01,39.46-18.01,59.19-27.02,3.37,10.04,8.97,31.26,4.18,57.47-5.92,32.35-24.01,52.25-28,56.49-26.03,27.64-58.21,32.43-66.31,33.4-8.43,1.01-40.43,3.86-71.47-16.21-13.8-8.92-22.76-19.36-28-26.53H17.38Z"/>
  <path class="cls-4" d="m282.62,84.68c-31.44,14.25-62.88,28.49-94.31,42.74-2.82-3.88-11.46-14.7-26.53-18.42-19.01-4.7-40.9,3.72-51,21.17-7.85,13.55-5.68,27.53-4.75,32.13-19.73,9.01-39.46,18.01-59.19,27.02-3.37-10.04-8.97-31.26-4.18-57.47,5.92-32.35,24.01-52.25,28-56.49,26.03-27.64,58.21-32.43,66.31-33.4,8.43-1.01,40.43-3.86,71.47,16.21,13.8,8.92,22.76,19.36,28,26.53,15.39,0,30.78,0,46.17,0Z"/>
  <path class="cls-5" d="m198.59,231.55c6.63-6.09,7.93-15.99,3.32-23.21-5.02-7.86-15.82-10.61-24.42-5.79-5.73,4.1-16.86,10.85-32.32,12.87-25.69,3.35-44.99-8.74-50.3-12.33,1.78,4.5,11.93,28.82,38.06,38.76,17.52,6.66,33.27,3.46,38.1,2.41,13.16-2.86,22.51-8.89,27.56-12.71Z"/>
  <path class="cls-5" d="m54.96,147.62c.96,8.95,8.16,15.88,16.7,16.46,9.31.63,17.94-6.43,19.16-16.21.1-7.05,1.28-20.01,8.84-33.65,12.56-22.66,33.74-31.01,39.79-33.16-4.68-1.24-30.27-7.52-53.79,7.61-15.76,10.14-22.54,24.72-24.56,29.23-5.51,12.28-6.21,23.39-6.14,29.72Z"/>
  <path class="cls-3" d="m197.41,69.95c-8.42-3.18-17.85.13-22.22,7.49-4.76,8.02-2.34,18.91,5.84,24.41,6.25,3.27,17.28,10.16,26.05,23.06,14.57,21.42,12.48,44.1,11.67,50.46,3.21-3.62,20.35-23.64,17.44-51.45-1.95-18.64-11.91-31.26-15.02-35.1-8.48-10.46-18.08-16.09-23.76-18.87Z"/>
</svg>