<?xml version="1.0" encoding="UTF-8"?>
<svg id="Capa_5" data-name="Capa 5" xmlns="http://www.w3.org/2000/svg" viewBox="0 0 300 300">
  <defs>
    <style>
      .cls-1 {
        stroke: #1d1d1b;
        stroke-miterlimit: 10;
      }

      .cls-1, .cls-2 {
        fill: #fff;
      }

      .cls-2, .cls-3, .cls-4 {
        stroke-width: 0px;
      }

      .cls-3 {
        fill: #ed6d00;
      }

      .cls-4 {
        fill: #003797;
      }
    </style>
  </defs>
  <path class="cls-1" d="m70.36,297.07c-2.12,0-4.25-.55-6.18-1.68-4.77-2.8-7.08-8.45-5.62-13.78l18.42-67.4c-3.17-3.91-6.15-7.98-8.9-12.17-1.76-2.68-3.45-5.44-5.05-8.25h-27.1c-5.5,0-10.32-3.67-11.79-8.97-1.47-5.3.78-10.93,5.5-13.76l23.96-14.37c-.17-3.97-.13-7.95.12-11.91.26-4.08.75-8.17,1.47-12.21L5.57,82.95c-3.9-3.9-4.71-9.94-1.96-14.73,2.22-3.87,6.31-6.15,10.62-6.15,1.02,0,2.06.13,3.09.4l68.52,17.87c2.85-2.84,5.93-5.45,9.21-7.78,3.45-2.46,7.09-4.6,10.89-6.43l-.4-26.59c-.08-5.54,3.57-10.45,8.9-11.96,1.11-.31,2.23-.46,3.33-.46,4.23,0,8.27,2.2,10.51,5.98l14.11,23.73c2.25-.19,4.51-.29,6.76-.29s4.5.1,6.73.29c3.87.33,7.72.95,11.51,1.85l49.17-49.89c2.36-2.4,5.52-3.65,8.72-3.65,2.08,0,4.17.53,6.07,1.62,4.82,2.76,7.18,8.42,5.74,13.78l-18.01,67.23c2.9,3.15,5.51,6.57,7.81,10.21,2.07,3.28,3.85,6.72,5.35,10.28l28.26,1.23c5.44.24,10.07,4.04,11.36,9.33,1.29,5.29-1.08,10.79-5.8,13.51l-23.23,13.33c.3,3.4.38,6.83.23,10.24-.22,4.98-.93,9.91-2.12,14.74l49.63,49.39c3.92,3.9,4.74,9.96,1.98,14.76-2.22,3.87-6.31,6.15-10.61,6.15-1.04,0-2.09-.13-3.12-.41l-68.8-18.17c-3.05,2.61-6.24,5.07-9.52,7.37-3.1,2.16-6.31,4.19-9.6,6.07v27.59c0,5.45-3.61,10.25-8.85,11.76-1.12.32-2.26.48-3.39.48-4.13,0-8.08-2.1-10.36-5.73l-15.05-23.95c-.34,0-.69,0-1.03,0-4.01,0-8.07-.19-12.06-.57-3.61-.34-7.23-.85-10.82-1.5l-50.4,49.68c-2.35,2.32-5.46,3.52-8.59,3.52Z"/>
  <path class="cls-3" d="m14.22,74.3l54.29,54.29c-1.14,4.71-2.16,10.43-2.58,16.97-.43,6.78-.11,12.78.46,17.72-10.15,6.09-20.3,12.18-30.45,18.27h34.43c2.15,4.29,4.77,8.93,7.94,13.77,4.09,6.22,8.28,11.5,12.18,15.89-6.71,24.54-13.42,49.08-20.13,73.62l55.08-54.29c4.6,1.1,9.93,2.08,15.89,2.65,6.96.66,13.22.62,18.54.26,6.27,9.97,12.53,19.95,18.8,29.92v-34.96c4.45-2.18,9.51-5.02,14.83-8.74,5.29-3.69,9.68-7.45,13.24-10.86,25.07,6.62,50.14,13.24,75.21,19.86l-54.82-54.55c1.6-4.48,3.35-10.92,3.71-18.8.29-6.48-.45-12-1.32-16.15,10.15-5.83,20.3-11.65,30.45-17.48l-36.55-1.59c-1.11-4.04-3.12-9.64-6.89-15.62-3.77-5.99-7.96-10.23-11.12-12.98,6.62-24.72,13.24-49.43,19.86-74.15-18.1,18.36-36.19,36.72-54.29,55.08-4.09-1.42-9.57-2.88-16.15-3.44-7.67-.66-14.15.13-18.8,1.06-6.09-10.24-12.18-20.48-18.27-30.72.18,11.65.35,23.3.53,34.96-4.23,1.41-10.05,3.86-16.15,8.21-5.58,3.98-9.55,8.22-12.2,11.54-25.24-6.58-50.48-13.16-75.72-19.74Z"/>
  <path class="cls-2" d="m91.55,125.94l-15.09-16.15,20.92,5.83c3.24-4.54,12.97-16.89,30.72-22.77,22.15-7.34,40.94.66,45.28,2.65,5.12-5.21,10.24-10.42,15.36-15.62l-5.03,21.45c4.54,2.97,16.88,11.91,23.07,28.78,8.5,23.16-1.14,43.36-2.94,46.96,5.21,5.3,10.42,10.59,15.62,15.89l-22.24-5.83c-2.61,3.89-13.13,18.62-33.63,24.36-20.62,5.77-37.36-1.47-41.58-3.44-4.86,4.86-9.71,9.71-14.57,14.57l5.03-20.92c-4.47-3.34-17.31-13.85-23.04-32.84-6.26-20.75.1-37.98,2.12-42.9Z"/>
  <path class="cls-4" d="m199.33,158.78c-1.4,8.84-5.05,15.58-7.94,19.86-2.71,4.38-8.98,13.12-20.39,18.8-19.74,9.83-39.01,2.64-42.37,1.33,5.83-.02,10.93-3.86,12.45-9.27,1.65-5.91-1.34-12.4-7.16-15.1-5.64-2.15-11.91-.47-15.35,3.98-4.39,5.68-1.71,12.67-1.59,12.98-3.57-2.91-13.91-12.07-18.01-28.07-3.82-14.91-.03-27.08,1.59-31.51,2.29-4.99,6.91-13.07,15.62-19.86,17.27-13.48,37.25-11.45,41.84-10.86-12.94.23-24.63,7.11-30.19,18.01-6.59,12.91-1.65,25.7-.8,27.8,2.24,5.54,5.57,9.54,8.44,12.26-2.43-3.07-3.88-6.95-3.88-11.17,0-9.95,8.06-18.02,18.02-18.02s18.03,8.06,18.03,18.02-8.07,18.03-18.03,18.03c-.91,0-1.8-.07-2.68-.19,3.06.98,6.81,1.75,11.09,1.74,1.97,0,15.05-.2,24.1-9.27,9.8-9.82,11.7-26.89,4.23-42.11,2.64,3.14,16.52,20.24,12.98,42.64Z"/>
</svg>