<?xml version="1.0" encoding="UTF-8"?>
<svg xmlns="http://www.w3.org/2000/svg" xmlns:xlink="http://www.w3.org/1999/xlink" viewBox="0 0 300 300">
  <defs>
    <style>
      .cls-1 {
        mix-blend-mode: lighten;
        opacity: .71;
        stroke-width: 0px;
      }

      .cls-1, .cls-2 {
        fill: #fff;
      }

      .cls-3 {
        stroke: #ca9e67;
        stroke-linecap: round;
      }

      .cls-3, .cls-2, .cls-4, .cls-5, .cls-6, .cls-7, .cls-8, .cls-9, .cls-10, .cls-11 {
        stroke-miterlimit: 10;
      }

      .cls-3, .cls-9 {
        fill: none;
      }

      .cls-2, .cls-4, .cls-5, .cls-6, .cls-7, .cls-8, .cls-9, .cls-10, .cls-11 {
        stroke: #1d1d1b;
      }

      .cls-4 {
        fill: #ededed;
      }

      .cls-5 {
        fill: #dadada;
      }

      .cls-6 {
        fill: #b2b2b2;
      }

      .cls-7 {
        fill: #9d9d9c;
      }

      .cls-8 {
        fill: #3c3c3b;
      }

      .cls-10 {
        fill: url(#Degradado_sin_nombre_103);
      }

      .cls-12 {
        isolation: isolate;
      }

      .cls-11 {
        fill: url(#Ceniza);
      }
    </style>
    <linearGradient id="Ceniza" x1="25.98" y1="224.1" x2="269.32" y2="224.1" gradientUnits="userSpaceOnUse">
      <stop offset=".01" stop-color="#fef4d8"/>
      <stop offset=".17" stop-color="#fce0a9"/>
      <stop offset=".3" stop-color="#fce8b7"/>
      <stop offset=".54" stop-color="#efd8aa"/>
      <stop offset=".66" stop-color="#f6dbaa"/>
      <stop offset=".78" stop-color="#fdf2da"/>
      <stop offset=".96" stop-color="#fbe7c2"/>
    </linearGradient>
    <radialGradient id="Degradado_sin_nombre_103" data-name="Degradado sin nombre 103" cx="148.01" cy="145.24" fx="148.01" fy="178.55" r="150.58" gradientUnits="userSpaceOnUse">
      <stop offset=".06" stop-color="#e30613"/>
      <stop offset=".77" stop-color="#e6852a"/>
    </radialGradient>
  </defs>
  <g class="cls-12">
    <g id="Capa_4" data-name="Capa 4">
      <g>
        <path class="cls-2" d="m281.78,125.09h-2c-6.08-28.03-21.01-53.54-42.75-72.71-7.73-6.82-16.16-12.68-25.1-17.51l-.37-1.94c-1.86-9.87-10.24-17.12-20.16-17.7-4.65-2.45-9.83-3.48-12.43-3.99-8.36-1.65-19.31-2.57-30.84-2.57s-21.47.83-29.65,2.34c-4.79.88-9.74,2.1-13.83,4.29-9.59.4-17.83,7.01-20.22,16.37l-.77,3.02c-9.05,4.86-17.59,10.78-25.41,17.68-21.75,19.18-36.68,44.71-42.76,72.75-6.38.44-11.42,5.74-11.42,12.23v34.05c0,6.58,5.18,11.93,11.68,12.24,6.27,27.8,21.27,53.07,42.94,72.02,24.62,21.52,56.2,33.37,88.93,33.37s64.32-11.85,88.94-33.37c21.67-18.94,36.66-44.2,42.94-71.99h2.26c6.78,0,12.27-5.5,12.27-12.27v-34.05c0-6.78-5.5-12.27-12.27-12.27Z"/>
        <g>
          <g>
            <path class="cls-11" d="m269.32,171.42c-8.53,59.58-59.75,105.36-121.68,105.36s-113.14-45.78-121.67-105.36h80.18c6.84,16.15,22.84,27.49,41.49,27.49s34.64-11.33,41.5-27.49h80.18Z"/>
            <g id="Lineas_Madera" data-name="Lineas Madera">
              <path class="cls-3" d="m42.83,216.16c4.48-7.39,12.07-17.87,24.14-27.52,16.57-13.25,33.35-18.35,42.84-20.47"/>
              <path class="cls-3" d="m69.95,247.85c5.88-9.55,13.89-20.44,24.72-31.17,26.81-26.55,56.65-37.93,74.3-42.99"/>
              <path class="cls-3" d="m104.64,267.9c5.15-7.67,11.03-15.45,17.75-23.17,39.21-45.05,87.91-66.02,121.59-76.25"/>
              <path class="cls-3" d="m148.17,275.81c.96-2.24,1.98-4.42,3.05-6.54,23.54-46.8,73.1-70.11,113.87-82.05"/>
            </g>
            <path class="cls-10" d="m269.49,137.37h-79.9c-6.58-16.75-22.86-28.6-41.94-28.6s-35.36,11.86-41.93,28.6H25.8c8.05-60.11,59.53-106.47,121.84-106.47s113.79,46.37,121.85,106.47Z"/>
            <path class="cls-6" d="m281.78,137.37v17.02h-97.27c0-.18,0-.37,0-.55,0-2.69-.29-5.3-.84-7.82-.66-3.04-1.69-5.94-3.04-8.64-6.05-12.1-18.55-20.41-33-20.41s-26.94,8.31-32.99,20.41c-1.35,2.71-2.38,5.6-3.04,8.64-.55,2.53-.85,5.14-.85,7.82,0,.18,0,.37,0,.55H16.36v-17.02h89.35c6.58-16.75,22.86-28.6,41.93-28.6s35.37,11.86,41.94,28.6h92.2Z"/>
            <path class="cls-6" d="m281.78,154.39v17.03h-92.65c-6.85,16.15-22.84,27.49-41.5,27.49s-34.64-11.33-41.49-27.49H16.36v-17.03h94.41c.03,2.31.29,4.56.71,6.74.73,3.66,2.01,7.12,3.74,10.29,6.24,11.49,18.42,19.3,32.42,19.3s26.19-7.81,32.42-19.3c1.73-3.17,3.01-6.63,3.75-10.29.43-2.18.68-4.43.71-6.74h97.27Z"/>
            <path class="cls-8" d="m184.52,154.39c-.03,2.31-.28,4.56-.71,6.74-.73,3.66-2.01,7.12-3.75,10.29-6.23,11.49-18.41,19.3-32.42,19.3s-26.18-7.81-32.42-19.3c-1.73-3.17-3-6.63-3.74-10.29-.43-2.18-.69-4.43-.71-6.74h7.75c0,.12,0,.26,0,.39,0,.16,0,.33.02.51,0,.05,0,.1,0,.14,0,.11,0,.23.02.34s0,.23.03.35c.02.29.05.57.08.85,0,.04,0,.07,0,.1.03.23.06.44.09.66.06.47.13.93.22,1.4.04.23.09.45.13.67.09.45.19.89.3,1.32.12.48.26.94.4,1.4.1.3.19.62.3.91,0,.05.03.1.05.13.08.25.17.49.27.72,0,.02,0,.04.03.07.15.4.31.8.49,1.19.06.14.12.29.19.43.1.23.22.46.33.69.02.05.04.09.07.13.09.19.18.37.29.56.1.2.2.39.31.57.21.38.43.75.66,1.12.23.39.48.77.74,1.14.02.04.04.08.08.11.25.37.51.73.79,1.1.16.22.33.44.51.65.34.43.71.85,1.07,1.26.16.18.32.35.5.53.19.21.4.42.61.63.2.21.42.4.63.6.2.19.4.38.61.56.2.18.41.36.62.53.45.38.91.74,1.38,1.09.16.13.33.26.51.37.4.29.8.56,1.22.81.2.14.41.27.62.39.33.2.66.39.99.57.05.03.1.06.15.08.2.11.4.22.6.31.16.09.32.16.49.24,0,.02.02.02.03.02.04.03.08.05.11.06.06.03.11.06.17.08,0,0,.03.02.04.02.24.12.49.24.74.34.25.11.51.22.75.31.19.08.39.15.59.23.32.12.66.25.99.35.13.05.27.1.4.13.18.07.36.12.55.17.18.06.36.11.55.16.36.1.72.19,1.1.28.49.12.98.23,1.49.31.26.05.51.09.77.12.5.09,1,.14,1.52.19.26.03.52.05.78.07.3.03.62.05.93.06.4.02.8.03,1.21.03s.81,0,1.21-.03c.31,0,.63-.03.93-.06.26-.02.52-.04.78-.07.51-.05,1.02-.1,1.52-.19.33-.05.67-.1.99-.17.18-.02.35-.06.52-.1.02,0,.03,0,.05,0,.34-.07.69-.15,1.02-.24.2-.05.41-.1.61-.15.35-.1.7-.2,1.04-.3.06,0,.12-.03.18-.06.28-.09.55-.17.83-.28.38-.13.75-.27,1.12-.42.28-.11.54-.22.81-.34.14-.06.29-.13.43-.19.31-.14.63-.29.94-.45.32-.15.64-.32.95-.5.07-.03.12-.07.19-.1.31-.17.63-.35.94-.54.59-.36,1.17-.74,1.73-1.14.17-.11.34-.24.51-.37.48-.34.93-.71,1.38-1.09.17-.14.34-.29.51-.43.37-.32.73-.66,1.09-1.01.36-.34.71-.7,1.04-1.06.31-.32.61-.66.91-1,.04-.06.08-.1.11-.14.29-.35.57-.71.86-1.07,0-.02.03-.04.04-.06.12-.17.25-.33.37-.51.11-.16.24-.33.35-.51.18-.27.36-.52.53-.79.18-.28.35-.55.51-.83.02-.03.04-.06.06-.09.11-.19.23-.39.33-.59.04-.06.08-.11.1-.17.1-.16.18-.34.28-.51.1-.19.21-.39.3-.59l.17-.34c.04-.09.08-.17.11-.26.16-.32.31-.66.45-.99,0-.03.03-.06.03-.09.19-.43.35-.86.51-1.3.09-.23.16-.45.24-.67s.15-.45.22-.68c.14-.46.28-.92.4-1.4.11-.44.22-.88.3-1.32.05-.22.09-.44.13-.67.09-.47.16-.93.22-1.4.03-.22.06-.43.09-.66,0-.04,0-.07,0-.1.03-.28.06-.56.08-.85.02-.12.02-.24.03-.35s0-.23.02-.34c0-.05,0-.1,0-.14,0-.17.02-.34.02-.51,0-.13,0-.27,0-.39h7.74Z"/>
            <path class="cls-6" d="m176.78,154.39c0,.12,0,.26,0,.39,0,.16,0,.33-.02.51,0,.05,0,.1,0,.14,0,.11,0,.23-.02.34s0,.23-.03.35c-.02.29-.05.57-.08.85,0,.04,0,.07,0,.1-.03.23-.06.44-.09.66-.06.47-.13.93-.22,1.4-.05.23-.09.45-.13.67-.09.45-.19.89-.3,1.32-.12.48-.26.94-.4,1.4-.07.23-.14.46-.22.68s-.15.44-.24.67c-.16.44-.32.87-.51,1.3,0,.03-.02.06-.03.09-.14.33-.29.67-.45.99-.09.2-.18.4-.29.6-.1.2-.2.4-.3.59-.1.16-.18.34-.28.51-.03.06-.07.11-.1.17-.12.23-.26.45-.39.68-.16.28-.33.55-.51.83-.17.27-.35.52-.53.79-.11.17-.24.34-.35.51-.12.17-.25.33-.37.51,0,.02-.03.04-.04.06-.29.36-.57.71-.86,1.07-.04.05-.08.09-.11.14-.3.34-.6.68-.91,1-.33.36-.68.71-1.04,1.06-.35.35-.71.69-1.09,1.01-.16.14-.33.29-.51.43-.45.38-.91.74-1.38,1.09-.16.13-.33.26-.51.37-.56.4-1.14.78-1.73,1.14-.31.19-.63.37-.94.54-.07.04-.12.08-.19.1-.31.17-.63.34-.95.5-.31.16-.63.3-.94.45-.14.06-.29.13-.43.19-.27.12-.53.23-.81.34-.37.15-.74.29-1.12.42-.28.1-.55.19-.83.28-.06.03-.12.05-.18.06-.34.1-.69.21-1.04.3-.2.06-.41.1-.61.15-.33.09-.68.17-1.02.24-.02,0-.03,0-.05,0-.17.04-.35.07-.52.1-.32.07-.66.12-.99.17-.5.09-1,.14-1.52.19-.26.03-.52.05-.78.07-.31.03-.62.05-.93.06-.4.02-.8.03-1.21.03s-.81,0-1.21-.03c-.31,0-.63-.03-.93-.06-.26-.02-.52-.04-.78-.07-.51-.05-1.02-.1-1.52-.19-.26-.04-.51-.08-.77-.12-.51-.09-1-.19-1.49-.31-.37-.09-.73-.17-1.1-.28-.19-.05-.37-.1-.55-.16-.19-.05-.37-.1-.55-.17-.13-.04-.27-.09-.4-.13-.33-.1-.67-.23-.99-.35-.2-.08-.4-.15-.59-.23-.25-.1-.51-.2-.75-.31-.26-.1-.51-.22-.74-.34,0,0-.03,0-.04-.02-.06-.02-.11-.05-.17-.08-.04,0-.08-.03-.11-.06,0,0-.02,0-.03-.02-.16-.08-.32-.15-.49-.24-.2-.1-.4-.2-.6-.31-.05-.02-.1-.05-.15-.08-.33-.18-.66-.37-.99-.57-.21-.12-.42-.25-.62-.39-.42-.25-.82-.52-1.22-.81-.17-.11-.34-.24-.51-.37-.48-.34-.93-.71-1.38-1.09-.21-.17-.42-.35-.62-.53-.21-.18-.41-.37-.61-.56-.21-.2-.43-.39-.63-.6-.21-.21-.42-.42-.61-.63-.17-.18-.33-.35-.5-.53-.36-.41-.72-.83-1.07-1.26-.17-.21-.34-.43-.51-.65-.29-.36-.54-.72-.79-1.1-.03-.04-.06-.08-.08-.11-.27-.37-.51-.75-.74-1.14-.23-.37-.45-.74-.66-1.12-.1-.18-.21-.37-.31-.57-.1-.19-.2-.37-.29-.56-.03-.05-.05-.09-.07-.13-.11-.23-.23-.46-.33-.69-.07-.14-.13-.29-.19-.43-.17-.39-.33-.79-.49-1.19-.02-.03-.03-.05-.03-.07-.1-.24-.18-.48-.27-.72-.02-.04-.04-.09-.05-.13-.1-.3-.21-.61-.3-.91-.14-.46-.28-.92-.4-1.4-.11-.44-.22-.88-.3-1.32-.05-.22-.1-.44-.13-.67-.09-.47-.16-.93-.22-1.4-.03-.22-.06-.43-.09-.66,0-.04,0-.07,0-.1-.03-.28-.06-.56-.08-.85-.02-.12-.02-.24-.03-.35s-.02-.23-.02-.34c0-.05,0-.1,0-.14,0-.17-.02-.34-.02-.51,0-.13,0-.27,0-.39h58.26Z"/>
            <path class="cls-6" d="m176.78,154.39c0,.12,0,.26,0,.39,0,.16,0,.33-.02.51,0,.05,0,.1,0,.14,0,.11,0,.23-.02.34s0,.23-.03.35c-.02.29-.05.57-.08.85,0,.04,0,.07,0,.1-.03.23-.06.44-.09.66-.06.47-.13.93-.22,1.4-.05.23-.09.45-.13.67-.09.45-.19.89-.3,1.32-.12.48-.26.94-.4,1.4-.07.23-.14.46-.22.68s-.15.44-.24.67c-.16.44-.32.87-.51,1.3,0,.03-.02.06-.03.09-.14.33-.29.67-.45.99-.09.2-.18.4-.29.6-.1.2-.2.4-.3.59-.1.16-.18.34-.28.51-.03.06-.07.11-.1.17-.12.23-.26.45-.39.68-.16.28-.33.55-.51.83-.17.27-.35.52-.53.79-.11.17-.24.34-.35.51-.12.17-.25.33-.37.51,0,.02-.03.04-.04.06-.29.36-.57.71-.86,1.07-.04.05-.08.09-.11.14-.3.34-.6.68-.91,1-.33.36-.68.71-1.04,1.06-.35.35-.71.69-1.09,1.01-.16.14-.33.29-.51.43-.45.38-.91.74-1.38,1.09-.16.13-.33.26-.51.37-.56.4-1.14.78-1.73,1.14-.31.19-.63.37-.94.54-.07.04-.12.08-.19.1-.31.17-.63.34-.95.5-.31.16-.63.3-.94.45-.14.06-.29.13-.43.19-.27.12-.53.23-.81.34-.37.15-.74.29-1.12.42-.28.1-.55.19-.83.28-.06.03-.12.05-.18.06-.34.1-.69.21-1.04.3-.2.06-.41.1-.61.15-.33.09-.68.17-1.02.24-.02,0-.03,0-.05,0-.17.04-.35.07-.52.1-.32.07-.66.12-.99.17-.5.09-1,.14-1.52.19-.26.03-.52.05-.78.07-.31.03-.62.05-.93.06-.4.02-.8.03-1.21.03s-.81,0-1.21-.03c-.31,0-.63-.03-.93-.06-.26-.02-.52-.04-.78-.07-.51-.05-1.02-.1-1.52-.19-.26-.04-.51-.08-.77-.12-.51-.09-1-.19-1.49-.31-.37-.09-.73-.17-1.1-.28-.19-.05-.37-.1-.55-.16-.19-.05-.37-.1-.55-.17-.13-.04-.27-.09-.4-.13-.33-.1-.67-.23-.99-.35-.2-.08-.4-.15-.59-.23-.25-.1-.51-.2-.75-.31-.26-.1-.51-.22-.74-.34,0,0-.03,0-.04-.02-.06-.02-.11-.05-.17-.08-.04,0-.08-.03-.11-.06,0,0-.02,0-.03-.02-.16-.08-.32-.15-.49-.24-.2-.1-.4-.2-.6-.31-.05-.02-.1-.05-.15-.08-.33-.18-.66-.37-.99-.57-.21-.12-.42-.25-.62-.39-.42-.25-.82-.52-1.22-.81-.17-.11-.34-.24-.51-.37-.48-.34-.93-.71-1.38-1.09-.21-.17-.42-.35-.62-.53-.21-.18-.41-.37-.61-.56-.21-.2-.43-.39-.63-.6-.21-.21-.42-.42-.61-.63-.17-.18-.33-.35-.5-.53-.36-.41-.72-.83-1.07-1.26-.17-.21-.34-.43-.51-.65-.29-.36-.54-.72-.79-1.1-.03-.04-.06-.08-.08-.11-.27-.37-.51-.75-.74-1.14-.23-.37-.45-.74-.66-1.12-.1-.18-.21-.37-.31-.57-.1-.19-.2-.37-.29-.56-.03-.05-.05-.09-.07-.13-.11-.23-.23-.46-.33-.69-.07-.14-.13-.29-.19-.43-.17-.39-.33-.79-.49-1.19-.02-.03-.03-.05-.03-.07-.1-.24-.18-.48-.27-.72-.02-.04-.04-.09-.05-.13-.1-.3-.21-.61-.3-.91-.14-.46-.28-.92-.4-1.4-.11-.44-.22-.88-.3-1.32-.05-.22-.1-.44-.13-.67-.09-.47-.16-.93-.22-1.4-.03-.22-.06-.43-.09-.66,0-.04,0-.07,0-.1-.03-.28-.06-.56-.08-.85-.02-.12-.02-.24-.03-.35s-.02-.23-.02-.34c0-.05,0-.1,0-.14,0-.17-.02-.34-.02-.51,0-.13,0-.27,0-.39h58.26Z"/>
            <path class="cls-6" d="m176.78,154c0-.12,0-.26,0-.39,0-.16,0-.33-.02-.51,0-.05,0-.1,0-.14,0-.11,0-.23-.02-.34s0-.23-.03-.35c-.02-.29-.05-.57-.08-.85,0-.04,0-.07,0-.1-.03-.23-.06-.44-.09-.66-.06-.47-.13-.93-.22-1.4-.05-.23-.09-.45-.13-.67-.09-.45-.19-.89-.3-1.32-.12-.48-.26-.94-.4-1.4-.07-.23-.14-.46-.22-.68s-.15-.44-.24-.67c-.16-.44-.32-.87-.51-1.3,0-.03-.02-.06-.03-.09-.14-.33-.29-.67-.45-.99-.09-.2-.18-.4-.29-.6-.1-.2-.2-.4-.3-.59-.1-.16-.18-.34-.28-.51-.03-.06-.07-.11-.1-.17-.12-.23-.26-.45-.39-.68-.16-.28-.33-.55-.51-.83-.17-.27-.35-.52-.53-.79-.11-.17-.24-.34-.35-.51-.12-.17-.25-.33-.37-.51,0-.02-.03-.04-.04-.06-.29-.36-.57-.71-.86-1.07-.04-.05-.08-.09-.11-.14-.3-.34-.6-.68-.91-1-.33-.36-.68-.71-1.04-1.06-.35-.35-.71-.69-1.09-1.01-.16-.14-.33-.29-.51-.43-.45-.38-.91-.74-1.38-1.09-.16-.13-.33-.26-.51-.37-.56-.4-1.14-.78-1.73-1.14-.31-.19-.63-.37-.94-.54-.07-.04-.12-.08-.19-.1-.31-.17-.63-.34-.95-.5-.31-.16-.63-.3-.94-.45-.14-.06-.29-.13-.43-.19-.27-.12-.53-.23-.81-.34-.37-.15-.74-.29-1.12-.42-.28-.1-.55-.19-.83-.28-.06-.03-.12-.05-.18-.06-.34-.1-.69-.21-1.04-.3-.2-.06-.41-.1-.61-.15-.33-.09-.68-.17-1.02-.24-.02,0-.03,0-.05,0-.17-.04-.35-.07-.52-.1-.32-.07-.66-.12-.99-.17-.5-.09-1-.14-1.52-.19-.26-.03-.52-.05-.78-.07-.31-.03-.62-.05-.93-.06-.4-.02-.8-.03-1.21-.03s-.81,0-1.21.03c-.31,0-.63.03-.93.06-.26.02-.52.04-.78.07-.51.05-1.02.1-1.52.19-.26.04-.51.08-.77.12-.51.09-1,.19-1.49.31-.37.09-.73.17-1.1.28-.19.05-.37.1-.55.16-.19.05-.37.1-.55.17-.13.04-.27.09-.4.13-.33.1-.67.23-.99.35-.2.08-.4.15-.59.23-.25.1-.51.2-.75.31-.26.1-.51.22-.74.34,0,0-.03,0-.04.02-.06.02-.11.05-.17.08-.04,0-.08.03-.11.06,0,0-.02,0-.03.02-.16.08-.32.15-.49.24-.2.1-.4.2-.6.31-.05.02-.1.05-.15.08-.33.18-.66.37-.99.57-.21.12-.42.25-.62.39-.42.25-.82.52-1.22.81-.17.11-.34.24-.51.37-.48.34-.93.71-1.38,1.09-.21.17-.42.35-.62.53-.21.18-.41.37-.61.56-.21.2-.43.39-.63.6-.21.21-.42.42-.61.63-.17.18-.33.35-.5.53-.36.41-.72.83-1.07,1.26-.17.21-.34.43-.51.65-.29.36-.54.72-.79,1.1-.03.04-.06.08-.08.11-.27.37-.51.75-.74,1.14-.23.37-.45.74-.66,1.12-.1.18-.21.37-.31.57-.1.19-.2.37-.29.56-.03.05-.05.09-.07.13-.11.23-.23.46-.33.69-.07.14-.13.29-.19.43-.17.39-.33.79-.49,1.19-.02.03-.03.05-.03.07-.1.24-.18.48-.27.72-.02.04-.04.09-.05.13-.1.3-.21.61-.3.91-.14.46-.28.92-.4,1.4-.11.44-.22.88-.3,1.32-.05.22-.1.44-.13.67-.09.47-.16.93-.22,1.4-.03.22-.06.43-.09.66,0,.04,0,.07,0,.1-.03.28-.06.56-.08.85-.02.12-.02.24-.03.35s-.02.23-.02.34c0,.05,0,.1,0,.14,0,.17-.02.34-.02.51,0,.13,0,.27,0,.39h58.26Z"/>
            <path class="cls-8" d="m184.53,153.84h-7.74c0-2.71-.38-5.34-1.08-7.82-.55-1.98-1.31-3.88-2.24-5.66-.26-.51-.53-1-.84-1.49-.02-.04-.04-.07-.06-.1-.14-.24-.29-.48-.44-.71-.15-.24-.31-.47-.46-.7-1.05-1.52-2.23-2.94-3.55-4.23-.06-.07-.12-.12-.19-.19-.02-.03-.05-.05-.08-.08-.22-.21-.45-.43-.68-.63-.24-.23-.49-.44-.73-.65-2.03-1.73-4.32-3.18-6.79-4.3-.2-.1-.4-.18-.61-.27-.27-.11-.53-.23-.81-.33-.31-.12-.62-.24-.94-.34-1.41-.51-2.87-.9-4.37-1.16-.23-.05-.47-.09-.71-.12-.35-.06-.7-.1-1.05-.15-.13,0-.26-.03-.39-.04-.29-.03-.57-.06-.86-.08-.4-.04-.8-.06-1.21-.07-.35-.02-.71-.03-1.08-.03s-.72,0-1.08.03c-.41,0-.81.03-1.21.07-.3.02-.62.05-.92.09-.1,0-.19.02-.29.03-.36.05-.72.1-1.09.15-.23.04-.47.08-.7.12-.25.04-.5.09-.73.14-.1.02-.21.04-.31.07-.31.06-.63.13-.94.22-.31.08-.62.16-.92.25-.25.08-.5.15-.74.24-.33.1-.67.22-.99.33-.17.06-.34.12-.51.19-.33.13-.66.27-.98.4-.22.09-.44.19-.66.29-.04.02-.09.05-.13.07-.38.17-.76.36-1.13.55,0,0,0,0-.02,0-.38.2-.76.41-1.13.62-.34.2-.68.4-1.02.61-.17.1-.34.22-.51.33-.37.25-.74.51-1.11.77-.36.27-.71.54-1.07.82-.1.08-.21.16-.3.25-.1.08-.2.16-.3.25-1.98,1.68-3.75,3.62-5.22,5.78-.47.69-.91,1.39-1.32,2.12-.19.33-.38.68-.55,1.03-.28.53-.54,1.07-.77,1.62-.13.28-.25.56-.36.85-.06.14-.11.3-.17.45-.12.3-.23.59-.32.9-.05.11-.09.24-.12.35-.15.44-.29.89-.41,1.33-.7,2.49-1.08,5.12-1.08,7.82h-7.75c0-2.69.3-5.3.85-7.82.66-3.04,1.69-5.94,3.04-8.64,6.05-12.1,18.55-20.41,32.99-20.41s26.95,8.31,33,20.41c1.35,2.71,2.38,5.6,3.04,8.64.55,2.53.84,5.14.84,7.82Z"/>
          </g>
          <g id="Cierre">
            <g id="Balines">
              <circle class="cls-4" cx="147.8" cy="120.9" r="2.99"/>
              <circle class="cls-4" cx="147.8" cy="120.9" r="2.99"/>
              <circle class="cls-4" cx="159.07" cy="122.88" r="2.99"/>
              <circle class="cls-4" cx="168.98" cy="128.6" r="2.99"/>
              <circle class="cls-4" cx="176.33" cy="137.37" r="2.99"/>
              <circle class="cls-4" cx="180.24" cy="148.12" r="2.99"/>
              <circle class="cls-4" cx="180.24" cy="159.56" r="2.99"/>
              <circle class="cls-4" cx="176.33" cy="170.31" r="2.99"/>
              <circle class="cls-4" cx="168.98" cy="179.08" r="2.99"/>
              <circle class="cls-4" cx="159.07" cy="184.8" r="2.99"/>
              <circle class="cls-4" cx="147.8" cy="186.78" r="2.99"/>
              <circle class="cls-4" cx="136.53" cy="184.8" r="2.99"/>
              <circle class="cls-4" cx="126.63" cy="179.08" r="2.99"/>
              <circle class="cls-4" cx="119.27" cy="170.31" r="2.99"/>
              <circle class="cls-4" cx="115.36" cy="159.56" r="2.99"/>
              <circle class="cls-4" cx="115.36" cy="148.12" r="2.99"/>
              <circle class="cls-4" cx="119.27" cy="137.37" r="2.99"/>
              <circle class="cls-4" cx="126.63" cy="128.6" r="2.99"/>
              <circle class="cls-4" cx="136.53" cy="122.88" r="2.99"/>
            </g>
            <path class="cls-6" d="m167.11,215.64c-.36,1.85-1.25,5-3.75,7.82-5.05,5.68-12.65,5.53-15.57,5.48-2.46-.06-10.34-.22-15.67-6.3-2.29-2.62-3.31-5.39-3.78-7.13-.92-33.62-1.01-58.21-.26-62.23.17-.93.6-3.46,2.62-4.8,1.16-.78,2.34-.91,2.96-.93h.36c-.03.09-.06.17-.09.26v14.26c.53,1.32,1.21,2.54,2,3.64,3.42,4.72,9.06,7.22,14.48,6.34,3.92-.63,7.37-2.98,9.67-6.34.76-1.11,1.39-2.33,1.87-3.64v-14.49s-.01-.03-.01-.04h.01c.59-.01,2.14-.01,3.46.95.72.53,1.85,1.78,2.1,4.87.35,4.37.22,28.82-.4,62.29Z"/>
            <path class="cls-6" d="m161.95,154.7v7.36c-.47,1.31-1.11,2.53-1.87,3.64-2.3,3.36-5.75,5.71-9.67,6.34-5.42.88-11.05-1.62-14.48-6.34-.79-1.09-1.47-2.31-2-3.64v-7.36h28.02Z"/>
            <path class="cls-6" d="m161.95,147.57v7.13h-28.02v-6.9c.03-.09.06-.17.09-.26.55-1.71,1.35-3.28,2.37-4.64,2.37-3.16,5.87-5.3,9.75-5.78,5.06-.63,10.13,1.65,13.33,5.78,1.05,1.35,1.9,2.9,2.47,4.63,0,.01.01.03.01.04Z"/>
            <rect class="cls-6" x="137.73" y="215.74" width="20.43" height="5.38" rx="1.87" ry="1.87"/>
          </g>
          <g id="Copa">
            <g>
              <path class="cls-4" d="m188.39,28.91c0,4.41-18.01,7.97-40.24,7.97s-40.23-3.56-40.23-7.97c0-.09.01-.19.04-.28.03-.11.05-.2.08-.31h0c1.54-4.13,18.91-7.37,40.11-7.37s40.24,3.56,40.24,7.96Z"/>
              <path class="cls-6" d="m192.19,49.43c0,4.61-20.06,8.35-44.83,8.35s-44.83-3.74-44.83-8.35c0-.2.04-.39.11-.59,1.77-6.74,3.54-13.48,5.31-20.21-.03.09-.04.19-.04.28,0,4.41,18.01,7.97,40.23,7.97s40.24-3.56,40.24-7.97c.58,3.18,1.17,6.35,1.76,9.53.64,3.48,1.3,6.95,1.94,10.43.04.19.07.38.11.56Z"/>
              <path class="cls-9" d="m103.45,45.82c10.07,3.12,25.01,6.53,42.89,6.53,19.09,0,34.54-4.14,44.9-7.54"/>
            </g>
            <ellipse class="cls-8" cx="146.28" cy="28.63" rx="15.5" ry="2.09"/>
            <path class="cls-5" d="m146.28,63.16h0c-5.24,0-9.52-.82-9.52-6.06v-7.42c0-5.24,4.29-9.52,9.52-9.52h0c5.24,0,9.52,4.29,9.52,9.52v7.42c0,5.24-4.29,6.06-9.52,6.06Z"/>
            <path class="cls-6" d="m96.34,34.71l-1.83,7.19c-1.29,5.07,2.66,6.93,7.73,8.22l5.68-22.28c-5.07-1.29-10.29,1.8-11.58,6.87Z"/>
            <path class="cls-7" d="m188.39,27.62l4.27,22.6c5.15-.97,9.21-2.57,8.23-7.72l-1.38-7.29c-.97-5.15-5.98-8.56-11.12-7.59Z"/>
          </g>
          <ellipse class="cls-1" cx="86.43" cy="89.97" rx="19.09" ry="15.71" transform="translate(-37.23 106.48) rotate(-53.75)"/>
        </g>
      </g>
    </g>
  </g>
</svg>