<?xml version="1.0" encoding="UTF-8"?>
<svg id="Capa_2" data-name="Capa 2" xmlns="http://www.w3.org/2000/svg" xmlns:xlink="http://www.w3.org/1999/xlink" viewBox="0 0 300 300">
  <defs>
    <style>
      .cls-1 {
        fill: url(#Degradado_sin_nombre_28);
      }

      .cls-1, .cls-2, .cls-3, .cls-4, .cls-5, .cls-6 {
        stroke-width: 0px;
      }

      .cls-2 {
        opacity: .81;
      }

      .cls-2, .cls-3, .cls-7, .cls-5 {
        fill: #fff;
      }

      .cls-3 {
        opacity: .16;
      }

      .cls-8 {
        stroke-linecap: round;
      }

      .cls-8, .cls-7, .cls-9 {
        stroke: #1d1d1b;
        stroke-miterlimit: 10;
      }

      .cls-8, .cls-9 {
        fill: none;
        stroke-width: 16px;
      }

      .cls-10 {
        opacity: .52;
      }

      .cls-4, .cls-6 {
        fill: #1d1d1b;
      }

      .cls-5, .cls-6 {
        opacity: .68;
      }
    </style>
    <linearGradient id="Degradado_sin_nombre_28" data-name="Degradado sin nombre 28" x1="150" y1="28.97" x2="150" y2="271.03" gradientTransform="translate(231.18 -45.98) rotate(67.5)" gradientUnits="userSpaceOnUse">
      <stop offset=".04" stop-color="#a86ef4"/>
      <stop offset=".16" stop-color="#0047ea"/>
      <stop offset=".33" stop-color="#00f0fb"/>
      <stop offset=".38" stop-color="#00f0f7"/>
      <stop offset=".42" stop-color="#00f0ed"/>
      <stop offset=".46" stop-color="#00f1dc"/>
      <stop offset=".5" stop-color="#00f3c3"/>
      <stop offset=".53" stop-color="#00f4a4"/>
      <stop offset=".56" stop-color="#00f67d"/>
      <stop offset=".6" stop-color="#00f94f"/>
      <stop offset=".63" stop-color="#00fc1c"/>
      <stop offset=".64" stop-color="#00fd0d"/>
      <stop offset=".99" stop-color="#e4fe00"/>
    </linearGradient>
  </defs>
  <circle class="cls-7" cx="150" cy="150" r="139.06" transform="translate(-25.66 31.07) rotate(-10.9)"/>
  <g>
    <circle class="cls-1" cx="150" cy="150" r="121.03" transform="translate(-45.98 231.18) rotate(-67.5)"/>
    <path class="cls-4" d="m150,33.97c30.99,0,60.13,12.07,82.05,33.98,21.92,21.92,33.98,51.05,33.98,82.05s-12.07,60.13-33.98,82.05c-21.92,21.92-51.05,33.98-82.05,33.98s-60.13-12.07-82.05-33.98c-21.92-21.92-33.98-51.05-33.98-82.05s12.07-60.13,33.98-82.05c21.92-21.92,51.05-33.98,82.05-33.98m0-10c-69.6,0-126.03,56.43-126.03,126.03s56.43,126.03,126.03,126.03,126.03-56.43,126.03-126.03S219.6,23.97,150,23.97h0Z"/>
  </g>
  <g class="cls-10">
    <path class="cls-4" d="m149.16,79.65c-1.94,13.55-2.7,21.82.19,30.37,4.13,12.2,12.94,17.14,20.7,21.5,3.36,1.88,7.16,4.02,11.53,7.11,7.54,5.33,25.19,17.8,27.97,32.51,2.14,11.33-5.03,22.38-7.73,26.54-6.65,10.25-17.1,17.76-31.08,22.32-2.73.89-5.38,1.59-7.87,2.15-1.68-12.82-5.92-24.01-12.68-33.41-7.92-11.02-16.94-16.24-24.19-20.44-6.69-3.87-11.97-6.93-17.47-14.52-2.78-3.84-10.16-14.03-9.51-26.1.83-15.5,14.68-26.81,22.96-33.57,8.84-7.21,18.31-11.7,27.16-14.45m19.73-19.87c-11.77.86-35.55,4.41-57.01,21.93-9.58,7.82-27.62,22.54-28.82,45.11-.95,17.73,8.97,31.42,12.53,36.34,14.45,19.95,29.33,17.82,41.62,34.92,5.55,7.72,11.43,20.55,10.38,42.14,5.46-.15,46.98-1.93,67.66-33.83,3.45-5.32,13.35-20.59,10.02-38.22-3.98-21.06-25.04-35.95-34.46-42.6-14.73-10.41-23.02-10.96-26.31-20.68-2.02-5.96-.93-13.37,1.25-28.19,1.05-7.16,2.26-13.01,3.13-16.92h0Z"/>
    <path class="cls-8" d="m110.63,94.76c7.25,5.89,14.74,12.21,27.57,18.17,15.56,7.23,39.76,18.78,50.12,20.27"/>
    <path class="cls-9" d="m90.58,118.57c16.65,11.88,39.44,25.7,68.29,36.96,23.78,9.29,45.51,14.43,63.28,17.36"/>
    <path class="cls-9" d="m102.43,158.01c18.62,10.8,35.22,18.6,62.08,28.22,17.58,6.29,34.13,10.88,49.19,14.25"/>
  </g>
  <path class="cls-6" d="m76.17,221.95c41.48,37.08,103.76,36.95,142.94,2.06,42.63-37.97,46.89-107.29,6.18-152.42,20.96,50.96,5.94,108.25-34.37,138.64-32.03,24.14-76.05,28.31-114.74,11.73Z"/>
  <path class="cls-5" d="m225.28,71.58c-41.32-38.58-104.7-39.19-144.39-4.12-43.37,38.32-47.24,109.31-4.73,154.49-22.81-51.41-8.02-110.17,32.92-140.7,32.47-24.21,77.35-27.67,116.19-9.66Z"/>
  <ellipse class="cls-3" cx="90.58" cy="94.76" rx="48.56" ry="28.8" transform="translate(-40.1 105.15) rotate(-50.84)"/>
  <ellipse class="cls-3" cx="105.31" cy="106.76" rx="66.46" ry="46.25" transform="translate(-43.97 121) rotate(-50.84)"/>
  <ellipse class="cls-2" cx="86.28" cy="76.68" rx="18.62" ry="12.83" transform="translate(-29.1 73.22) rotate(-39.91)"/>
</svg>