<?xml version="1.0" encoding="UTF-8"?>
<svg id="Capa_6" data-name="Capa 6" xmlns="http://www.w3.org/2000/svg" viewBox="0 0 300 300">
  <defs>
    <style>
      .cls-1 {
        stroke: #1d1d1b;
        stroke-miterlimit: 10;
      }

      .cls-1, .cls-2 {
        fill: #fff;
      }

      .cls-2, .cls-3 {
        stroke-width: 0px;
      }

      .cls-3 {
        fill: #ff002f;
      }
    </style>
  </defs>
  <circle class="cls-1" cx="149.68" cy="150.77" r="143.38"/>
  <circle class="cls-3" cx="149.68" cy="150.77" r="130.29"/>
  <path class="cls-2" d="m80.51,170.33h24.52c3.56-13.15,15.58-22.36,29.21-22.36s25.65,9.2,29.21,22.36h69.23v-95.19l-37.86,35.7-.72-65.63-113.58,125.12Z"/>
  <path class="cls-2" d="m52.02,186.56h54.45c3.85,12.26,15.32,20.63,28.13,20.55,12.68-.08,23.95-8.41,27.77-20.55,23.44.48,46.88.96,70.31,1.44-.14,3.34-.8,8.78-3.61,14.78-3.44,7.37-8.39,11.87-11.18,14.06-2.93-2.42-7.78-5.85-14.49-8.19-15.15-5.3-28.35-1.06-32.03.26-2.75.99-10.35,4.01-17.67,11.18-6.45,6.32-9.74,12.97-11.36,16.95-23.88,1.32-41.69-4.03-51.67-7.91-11.4-4.44-23.03-9.15-31.08-21.3-5.31-8.01-6.98-16.12-7.57-21.27Z"/>
  <path class="cls-2" d="m156.6,234.16c8.35-3.58,15.44-4.27,19.83-4.33,7.7-.1,14.26,1.62,16.79,2.3,6.74,1.81,7.33,3.12,12.42,3.83,3.82.54,9.95,1.4,15.69-1.92,7.3-4.22,9.17-12.43,9.55-14.31-5.61,4.24-10.19,5.08-13.34,5.05-6.73-.06-9.48-4.06-19.47-7.21-2.08-.65-8.66-2.73-14.42-2.52-13.66.49-23.55,13.85-27.04,19.11Z"/>
  <circle class="cls-2" cx="133.16" cy="177.18" r="14.78"/>
</svg>