<?xml version="1.0" encoding="UTF-8"?>
<svg id="Capa_1" data-name="Capa 1" xmlns="http://www.w3.org/2000/svg" viewBox="0 0 300 300">
  <defs>
    <style>
      .cls-1 {
        fill: #fff;
        stroke: #1d1d1b;
        stroke-miterlimit: 10;
      }

      .cls-2 {
        fill: #f50046;
        stroke-width: 0px;
      }
    </style>
  </defs>
  <path class="cls-1" d="m296.08,246.84c-11.16-18.75-23.98-36.64-38.11-53.17-8.01-9.37-16.58-18.48-25.49-27.06-.83-.8-1.75-1.47-2.71-2.02-.78-1.74-1.92-3.32-3.36-4.63l-14.25-12.94c-.33-.3-.68-.58-1.03-.85-.63-1.98-1.69-3.86-3.22-5.46l-9.81-10.25c22.59-21.49,47-41.41,72.7-59.28,5.66-3.94,7.62-11.41,4.61-17.61-2.39-4.93-7.35-7.9-12.6-7.9-1.35,0-2.73.2-4.08.61-23.26,7.08-45.98,16.26-67.52,27.28-6.28,3.21-12.52,6.61-18.66,10.17-2.42-7.21-4.23-14.68-5.38-22.23-1.03-6.76-6.78-11.79-13.62-11.9-.08,0-.16,0-.23,0-6.74,0-12.53,4.8-13.77,11.45-1.43,7.69-3.72,15.17-6.81,22.27-2.56-1.63-5.13-3.21-7.72-4.76-23.14-13.8-48.21-24.68-74.51-32.32-1.3-.38-2.62-.56-3.91-.56-5.44,0-10.56,3.19-12.83,8.4-2.82,6.45-.41,13.99,5.62,17.62,25.79,15.5,48.89,34.59,68.66,56.74-19.74,16.19-38.49,33.93-55.71,52.76-17.62,19.27-33.98,40.01-48.6,61.64-3.53,5.22-3.14,12.15.95,16.94,2.73,3.2,6.65,4.92,10.66,4.92,2,0,4.02-.43,5.92-1.31,17.28-8.06,35.45-13.92,54.01-17.42,10.6-2,21.46-3.25,32.26-3.71,5.5-.24,10.36-3.68,12.4-8.79,4.57-11.43,10.28-22.45,16.95-32.77,4.29-6.62,9.02-13.02,14.11-19.08,1.19,1.61,2.16,3.38,2.88,5.26,1.35,3.52,4.04,6.28,7.41,7.78.13.2.26.41.4.61,1.62,2.23,3.19,4.53,4.66,6.85,1.53,2.41,2.99,4.89,4.35,7.38.53.98,1.18,1.87,1.91,2.68l1.88,15.74c.8,6.67,6.21,11.83,12.91,12.31,10.46.75,20.95,2.25,31.17,4.45,20.4,4.4,40.19,11.7,58.83,21.7,2.09,1.12,4.36,1.66,6.61,1.66,3.73,0,7.42-1.49,10.13-4.33,4.35-4.55,5.13-11.44,1.91-16.84Z"/>
  <path class="cls-2" d="m46.62,59.69c20.85,12.53,47.08,31.54,72.16,59.71,12.76,14.33,22.89,28.42,30.92,41.23,9.69-11.03,20.27-22.31,31.83-33.65,27.84-27.32,55.62-49.44,81.29-67.29-19.62,5.98-41.8,14.38-65.22,26.36-11.58,5.93-22.19,12.07-31.83,18.19-2-4.2-3.96-8.85-5.76-13.95-3.46-9.78-5.48-18.85-6.67-26.68-1.42,7.67-3.94,16.98-8.49,26.98-2.22,4.88-4.61,9.23-6.97,13.04-6.2-4.4-12.86-8.78-20.01-13.04-25.34-15.11-49.9-24.7-71.25-30.9Z"/>
  <path class="cls-2" d="m117.86,138.49l27.29,28.5c-6.36,7.04-13.29,15.69-20.01,26.07-8.28,12.79-14.08,24.9-18.19,35.17-10.28.44-21.81,1.59-34.26,3.94-23.2,4.38-42.49,11.57-57.34,18.49,12.43-18.38,28-38.9,47.33-60.03,19.18-20.97,38.09-38.2,55.18-52.15Z"/>
  <path class="cls-2" d="m156.37,166.99c1.72,1.44,3.78,3.42,5.76,6.06,2.45,3.26,3.94,6.4,4.85,8.79,10.27-10.48,20.55-20.97,30.82-31.45-1.87-1.96-3.74-3.91-5.61-5.87-1.66-1.73-3.32-3.47-4.98-5.2-10.28,9.22-20.56,18.44-30.84,27.66Z"/>
  <path class="cls-2" d="m173.04,187c1.7,2.34,3.43,4.86,5.15,7.58,1.79,2.82,3.39,5.55,4.82,8.17,11.33-10.81,22.66-21.61,33.99-32.42-4.75-4.31-9.5-8.62-14.25-12.94-9.9,9.87-19.81,19.74-29.71,29.61Z"/>
  <path class="cls-2" d="m186.38,209.14c.68,5.7,1.36,11.4,2.04,17.1,10.04.72,21.18,2.15,33.13,4.73,25.75,5.56,46.76,14.61,62.49,23.04-9.41-15.81-21.42-33.33-36.72-51.24-8.3-9.71-16.57-18.37-24.56-26.07-12.13,10.81-24.25,21.63-36.38,32.44Z"/>
</svg>