<svg id="Capa_1" data-name="Capa 1" xmlns="http://www.w3.org/2000/svg" viewBox="0 0 300 300"><defs><style>.cls-1,.cls-8{fill:#1d1d1b;}.cls-2{fill:#e30613;}.cls-3,.cls-6{fill:#fff;}.cls-12,.cls-13,.cls-4{fill:#f6f6f6;}.cls-11,.cls-14,.cls-5{fill:none;}.cls-11,.cls-5{stroke:#1d1d1b;}.cls-5{stroke-linecap:round;stroke-linejoin:round;stroke-width:0.5px;}.cls-12,.cls-6{opacity:0.8;}.cls-7{fill:#b2b2b2;}.cls-7,.cls-8{opacity:0.21;}.cls-9{fill:#1d71b8;}.cls-10{fill:#be1622;}.cls-11,.cls-14{stroke-miterlimit:10;}.cls-13{opacity:0.75;}.cls-14{stroke:#1d71b8;stroke-width:10px;}</style></defs><path class="cls-1" d="M141.36,77a63.5,63.5,0,0,1-1.12,11.86h-47a18.81,18.81,0,0,1-29.22,0H17A63.5,63.5,0,0,1,15.88,77a62.86,62.86,0,0,1,1-11H63.33a18.82,18.82,0,0,1,30.58,0H140.4A62.86,62.86,0,0,1,141.36,77ZM93.68,77A15.06,15.06,0,1,0,78.62,92,15.06,15.06,0,0,0,93.68,77Z"/><path class="cls-2" d="M140.4,66H93.91a18.82,18.82,0,0,0-30.58,0H16.84A62.75,62.75,0,0,1,140.4,66Z"/><path class="cls-3" d="M93.23,88.85h47a62.29,62.29,0,0,1-5.54,16.29c-19.23,18.42-46.1,24.62-68.65,15.76-21.28-8.37-30.7-27-33-32.05H64a18.81,18.81,0,0,0,29.22,0Z"/><path class="cls-4" d="M134.7,105.14A62.75,62.75,0,0,1,17,88.85H33c2.35,5,11.77,23.68,33.05,32.05C88.6,129.76,115.47,123.56,134.7,105.14Z"/><path class="cls-5" d="M93.68,77A15.06,15.06,0,1,1,78.62,61.93,15.05,15.05,0,0,1,93.68,77Z"/><path class="cls-5" d="M90.67,77a12,12,0,1,1-12-12A12,12,0,0,1,90.67,77Z"/><path class="cls-5" d="M140.4,66A62.75,62.75,0,0,0,16.84,66"/><path class="cls-5" d="M17,88.85a62.75,62.75,0,0,0,123.23,0"/><path class="cls-5" d="M140.4,66H93.91a18.82,18.82,0,0,0-30.58,0H16.84a62.86,62.86,0,0,0-1,11A63.5,63.5,0,0,0,17,88.85H64a18.81,18.81,0,0,0,29.22,0h47A63.5,63.5,0,0,0,141.36,77,62.86,62.86,0,0,0,140.4,66Z"/><path class="cls-6" d="M37.71,42.23c-2.42-3.45,5.4-17.4,15.92-18,5.2-.31,11.36,2.61,11.72,6,.54,5.06-11.91,9.66-13.82,10.37C48.48,41.71,39.63,45,37.71,42.23Z"/><path class="cls-7" d="M24.39,45.56A26,26,0,0,0,32.2,56.38c3,2.37,5.85,3.52,9.61,5a63.72,63.72,0,0,0,10.22,3,90,90,0,0,0,11.3,1.8l-46.2-.35a57,57,0,0,1,7.26-20.28Z"/><path class="cls-8" d="M132.63,45.56a26.08,26.08,0,0,1-7.82,10.82c-3,2.37-5.85,3.52-9.61,5a63.72,63.72,0,0,1-10.22,3,90,90,0,0,1-11.3,1.8l46.21-.35a57.51,57.51,0,0,0-7.26-20.28Z"/><path class="cls-1" d="M282.33,223a62.75,62.75,0,0,1-1.13,11.86h-47a18.82,18.82,0,0,1-29.21,0H158a63,63,0,0,1-.17-22.84h46.48a18.83,18.83,0,0,1,30.59,0h46.49A63.07,63.07,0,0,1,282.33,223Zm-47.69,0a15.06,15.06,0,1,0-15,15.05A15.05,15.05,0,0,0,234.64,223Z"/><path class="cls-9" d="M281.37,212H234.88a18.83,18.83,0,0,0-30.59,0H157.81a62.52,62.52,0,0,1,8.09-21.51A87.2,87.2,0,0,0,196.72,207l7.81-8.42A206.16,206.16,0,0,0,190.71,182c-3.05-3.28-6.06-6.3-9-9.1a62.74,62.74,0,0,1,75.56-.16q-4.51,4.26-9.18,9.26a204.07,204.07,0,0,0-13.82,16.52l7.81,8.42a87.9,87.9,0,0,0,22.23-10.22,86.4,86.4,0,0,0,8.84-6.51A62.25,62.25,0,0,1,281.37,212Z"/><path class="cls-3" d="M234.19,234.81h47a62.29,62.29,0,0,1-5.54,16.29c-19.22,18.42-46.1,24.62-68.64,15.76-21.29-8.37-30.71-27-33.05-32.05h31a18.82,18.82,0,0,0,29.21,0Z"/><path class="cls-10" d="M274.66,188.94c-.49.43-1,.87-1.52,1.3a63.07,63.07,0,0,0-15.88-17.47l1.1-1a44.8,44.8,0,0,1,10.75,9.1A44.26,44.26,0,0,1,274.66,188.94Z"/><path class="cls-10" d="M273.14,190.24a86.4,86.4,0,0,1-8.84,6.51A87.9,87.9,0,0,1,242.07,207l-7.81-8.42A204.07,204.07,0,0,1,248.08,182q4.65-5,9.18-9.26A63.07,63.07,0,0,1,273.14,190.24Z"/><path class="cls-4" d="M275.66,251.1A62.75,62.75,0,0,1,158,234.81h16c2.34,5,11.76,23.68,33.05,32.05C229.56,275.72,256.44,269.52,275.66,251.1Z"/><path class="cls-10" d="M204.53,198.55,196.72,207a87.2,87.2,0,0,1-30.82-16.51,63.15,63.15,0,0,1,15.8-17.53c3,2.8,6,5.82,9,9.1A206.16,206.16,0,0,1,204.53,198.55Z"/><path class="cls-10" d="M180.42,171.73c.43.39.85.8,1.28,1.2a63.15,63.15,0,0,0-15.8,17.53c-.61-.51-1.2-1-1.77-1.52a43.76,43.76,0,0,1,5.55-8.11A44.78,44.78,0,0,1,180.42,171.73Z"/><path class="cls-11" d="M234.64,223a15.06,15.06,0,1,1-15-15.06A15.05,15.05,0,0,1,234.64,223Z"/><path class="cls-11" d="M231.64,223a12.05,12.05,0,1,1-12-12A12,12,0,0,1,231.64,223Z"/><path class="cls-11" d="M165.9,190.46A62.52,62.52,0,0,0,157.81,212"/><path class="cls-11" d="M257.26,172.77a62.74,62.74,0,0,0-75.56.16"/><path class="cls-11" d="M281.37,212a62.25,62.25,0,0,0-8.23-21.73"/><path class="cls-11" d="M158,234.81a62.74,62.74,0,0,0,123.22,0"/><path class="cls-11" d="M281.37,212H234.88a18.83,18.83,0,0,0-30.59,0H157.81a63,63,0,0,0,.17,22.84h47a18.82,18.82,0,0,0,29.21,0h47a63,63,0,0,0,.17-22.84Z"/><path class="cls-11" d="M273.14,190.24a86.4,86.4,0,0,1-8.84,6.51A87.9,87.9,0,0,1,242.07,207l-7.81-8.42A204.07,204.07,0,0,1,248.08,182q4.65-5,9.18-9.26l1.1-1a44.8,44.8,0,0,1,10.75,9.1,44.26,44.26,0,0,1,5.55,8.11C274.17,189.37,273.66,189.81,273.14,190.24Z"/><path class="cls-11" d="M165.9,190.46A87.2,87.2,0,0,0,196.72,207l7.81-8.42A206.16,206.16,0,0,0,190.71,182c-3.05-3.28-6.06-6.3-9-9.1-.43-.4-.85-.81-1.28-1.2a44.78,44.78,0,0,0-10.74,9.1,43.76,43.76,0,0,0-5.55,8.11C164.7,189.44,165.29,190,165.9,190.46Z"/><path class="cls-12" d="M192.44,179.27c-2.8-2.35-1.93-10,3.66-12.62,6.31-3,14.12,2.52,13.94,6.08C209.81,177.27,196.38,182.56,192.44,179.27Z"/><path class="cls-13" d="M184.58,176.07a41.81,41.81,0,0,0-15.27,16.85l5.69,4.16a36.68,36.68,0,0,1,13.36-17.31Z"/><path class="cls-13" d="M253.91,176.07a41.81,41.81,0,0,1,15.27,16.85l-5.69,4.16a36.68,36.68,0,0,0-13.36-17.31Z"/><path class="cls-7" d="M165.35,191.34a26,26,0,0,0,7.81,10.82c3,2.37,5.86,3.52,9.62,5a63.94,63.94,0,0,0,10.21,3A90.19,90.19,0,0,0,204.3,212l-46.21-.35a57.72,57.72,0,0,1,7.26-20.28Z"/><path class="cls-8" d="M273.59,191.17A25.85,25.85,0,0,1,265.78,202c-3,2.37-5.86,3.52-9.62,5A63.94,63.94,0,0,1,246,210a90,90,0,0,1-11.31,1.81l46.21-.35a57.51,57.51,0,0,0-3.31-12.18A56.41,56.41,0,0,0,273.59,191.17Z"/><path class="cls-14" d="M150.77,49.14c30.69-8.67,63.27,1.12,82.65,24.74a74.51,74.51,0,0,1,16.48,42"/><polygon class="cls-9" points="231.47 100.64 249.46 109.64 268.43 102.94 247.23 145.6 231.47 100.64"/><path class="cls-14" d="M149.38,241.53c-30.69,8.67-63.27-1.12-82.65-24.75a74.32,74.32,0,0,1-16.48-42"/><polygon class="cls-9" points="68.68 190.03 50.69 181.03 31.72 187.73 52.92 145.07 68.68 190.03"/></svg>