<?xml version="1.0" encoding="UTF-8"?>
<svg id="Capa_13" data-name="Capa 13" xmlns="http://www.w3.org/2000/svg" viewBox="0 0 128 128">
  <defs>
    <style>
      .cls-1 {
        stroke: #1d1d1b;
        stroke-width: .25px;
      }

      .cls-1, .cls-2 {
        stroke-miterlimit: 10;
      }

      .cls-1, .cls-3 {
        fill: #fff;
      }

      .cls-2 {
        fill: none;
        stroke: #fff;
      }

      .cls-4 {
        fill: #00a4f1;
      }

      .cls-4, .cls-3 {
        stroke-width: 0px;
      }
    </style>
  </defs>
  <path class="cls-1" d="m96.65,37.41c-4.29-1.85-8.79-3.23-13.37-4.1-2.8-.53-5.64-.87-8.47-1.01.07-.25.11-.5.11-.76v-3.59l2.72-1.99c.77-.56,1.19-1.49,1.11-2.44s-.64-1.79-1.49-2.23l-1.33-.68c.09-.29.14-.6.13-.92-.03-.98-.58-1.87-1.44-2.34l-1.63-.88c-.05-.28-.12-.57-.21-.87-.57-1.71-1.91-3.05-3.7-3.78-.19-1.04-.51-2.04-.96-3.01-1.26-2.68-3.2-4.31-4.59-5.2-.45-.29-.96-.43-1.47-.43-.46,0-.91.11-1.32.34-.88.48-1.43,1.41-1.43,2.41v.21c-.15.02-.3.06-.44.1-1.12.36-1.89,1.39-1.91,2.57-.01.84-.03,1.67-.05,2.51-.13.07-.25.15-.37.24-1.25.96-2.51,1.93-3.76,2.9-2.9.04-5.81.08-8.71.13-1.28.02-2.37.92-2.64,2.18-.2.92-.16,1.87.09,2.77.19.64.46,1.16.73,1.56.03.57.25,1.12.61,1.57.43.53.91.96,1.45,1.3.07.05.14.09.21.13.05.12.1.24.15.36.2.48.42.93.65,1.36h-.03c-.72,0-1.4.28-1.92.78-.53.52-.83,1.23-.83,1.97,0,.85.13,1.63.41,2.36.39,1.08,1.05,2.01,1.96,2.79-.57.09-1.15.2-1.72.3-4.03.77-7.99,1.93-11.77,3.46-.72.29-1.28.87-1.55,1.6-.27.73-.21,1.54.15,2.22l3.92,7.48c.49.93,1.44,1.47,2.44,1.47.29,0,.58-.05.87-.14l3.45-1.15c1.12-.37,1.88-1.42,1.88-2.61v-.25l5.33-.74v52.14c0,.46.12.92.34,1.32l13.48,24.53c.48.87,1.39,1.41,2.38,1.43h.03c.98,0,1.89-.52,2.38-1.37,2.28-3.94,11.43-19.67,13.71-23.61.24-.42.37-.9.37-1.38l-.11-53.01,4.99.76v.07c-.05,1.19.67,2.28,1.79,2.7l4.03,1.5c.32.12.64.17.96.17,1.08,0,2.09-.64,2.53-1.68l3.34-7.95c.58-1.39-.06-2.99-1.44-3.59Z"/>
  <g>
    <g>
      <path class="cls-4" d="m95.56,39.93c-1.11,2.65-2.23,5.3-3.34,7.95l-4.03-1.5.11-2.53-10.6-1.62c.04,18.74.08,37.48.12,56.22-4.57,7.87-9.14,15.74-13.71,23.61l-13.48-24.53v-55.3l-10.82,1.5v2.65l-3.45,1.15-3.92-7.48c3.01-1.21,6.8-2.46,11.25-3.31,4.16-.79,7.88-1.06,10.98-1.08.65-.71,1.31-1.42,1.96-2.15-.47-.69-.82-1.31-1.07-1.78-2.92,0-5.86-.02-8.8-.02-.3-.25-.91-.79-1.25-1.72-.21-.57-.24-1.08-.24-1.42.67.02,1.32.03,1.97.05.32-.66.63-1.31.96-1.97,0,.23.07.72.44,1.21.3.41.66.63.85.73.26-.49.53-.99.79-1.47.08.26.23.6.46.96.18.28.37.51.53.68,1.02,0,2.05.03,3.06.03.91-1.18,1.81-2.35,2.72-3.53-.8-1.02-1.6-2.05-2.39-3.05-1.04-.03-2.08-.04-3.13-.05-.17.16-.45.47-.65.9-.26.57-.26,1.08-.25,1.35-.28-.26-.73-.77-.98-1.53-.12-.37-.16-.7-.16-.96-.25.3-.54.69-.79,1.18-.4.79-.56,1.52-.63,2.02-.3-.47-.61-1.04-.9-1.72-.2-.47-.35-.91-.47-1.32-.23-.06-.57-.17-.91-.41-.39-.25-.66-.54-.82-.74.24-.17.58-.44.88-.85.34-.47.49-.93.57-1.22-.17,0-.42.03-.69.16-.58.24-.86.69-.96.86-.18-.18-.47-.56-.62-1.1-.18-.64-.1-1.18-.05-1.43,3.21-.05,6.42-.1,9.63-.15,1.49-1.16,2.99-2.31,4.48-3.45.47.02.93.05,1.39.09.04-1.66.07-3.32.1-4.98.79,1.07,1.57,2.15,2.36,3.22v-6.15c.78.49,2.49,1.74,3.58,4.05.78,1.65.9,3.14.9,4.02,1.76.17,3.2,1.12,3.64,2.47.2.6.17,1.19.07,1.64l3.07,1.66-2.3,1.42,5,2.56c-1.28.94-2.56,1.87-3.84,2.81v4.99c-.16.52-.34,1.04-.5,1.56l1.32,1.88c2.86.06,6.17.35,9.79,1.03,5.12.97,9.43,2.47,12.79,3.92Z"/>
      <path class="cls-3" d="m63.88,11.2c.22,1.27.09,2.32-.04,2.98-.26-.19-.52-.38-.79-.57-.01-1.64-.01-3.28-.02-4.91.3.56.67,1.4.85,2.5Z"/>
      <path class="cls-3" d="m55.63,19.38c1.92-.58,3.84-1.18,5.74-1.76-1.11,1.05-2.22,2.1-3.33,3.15-.81-.46-1.6-.93-2.41-1.39Z"/>
    </g>
    <path class="cls-2" d="m52.58,95.35l11.73,21.34c3.98-6.85,7.95-13.69,11.93-20.54,0-7-.01-14.02-.04-21.08-.04-9.34-.12-18.63-.22-27.87-2.05-1.07-6.29-3-11.9-2.95-5.55.04-9.69,1.9-11.65,2.95.05,16.05.11,32.1.16,48.15Z"/>
    <circle class="cls-3" cx="41.79" cy="40.28" r="1.43"/>
    <circle class="cls-3" cx="53.07" cy="38.21" r="1.43"/>
    <circle class="cls-3" cx="64.54" cy="37.51" r="1.43"/>
    <circle class="cls-3" cx="75.58" cy="38.21" r="1.43"/>
    <circle class="cls-3" cx="86.22" cy="40.31" r="1.43"/>
    <line class="cls-2" x1="64.31" y1="116.7" x2="64.31" y2="44.26"/>
  </g>
</svg>