<?xml version="1.0" encoding="UTF-8"?>
<svg id="Capa_7" data-name="Capa 7" xmlns="http://www.w3.org/2000/svg" viewBox="0 0 128 128">
  <defs>
    <style>
      .cls-1 {
        stroke-width: .25px;
      }

      .cls-1, .cls-2 {
        fill: #fff;
        stroke: #1d1d1b;
        stroke-miterlimit: 10;
      }
    </style>
  </defs>
  <g>
    <path class="cls-1" d="m63.43,107.99c-1.86,0-3.45-1.37-3.71-3.23-.87-6.19-3.84-18.11-14.02-28.46-10.46-10.63-22.69-13.71-29.04-14.6-1.92-.27-3.32-1.95-3.22-3.89.09-1.93,1.64-3.48,3.58-3.56,5.9-.26,17.3-2.01,27.45-10.85,13.25-11.54,15.01-27.3,15.23-31.85.1-2,1.75-3.56,3.74-3.56h.03c2.01.02,3.65,1.62,3.71,3.63.14,4.36,1.57,19.49,14.07,31.04,10.83,10.01,23.58,11.44,28.56,11.6,1.98.06,3.58,1.66,3.63,3.64.05,1.98-1.45,3.67-3.43,3.83-5.35.45-18.99,2.76-30.04,14.33-9.92,10.39-12.28,22.32-12.8,28.51-.16,1.9-1.72,3.38-3.63,3.43-.03,0-.07,0-.1,0Z"/>
    <path class="cls-1" d="m103.21,120.01c-1.86,0-3.45-1.37-3.71-3.23-.31-2.2-1.36-6.44-4.99-10.12-3.72-3.78-8.07-4.88-10.32-5.19-1.92-.27-3.32-1.95-3.22-3.89.09-1.93,1.64-3.48,3.58-3.56,2.07-.09,6.06-.7,9.6-3.79,4.63-4.03,5.24-9.56,5.32-11.15.1-2,1.75-3.57,3.74-3.57h.03c2.01.02,3.65,1.62,3.71,3.62.05,1.52.55,6.81,4.91,10.84,3.78,3.49,8.23,3.99,9.97,4.04,1.98.06,3.58,1.66,3.63,3.64s-1.45,3.67-3.43,3.83c-1.89.16-6.69.97-10.58,5.05-3.62,3.79-4.36,8.28-4.51,10.04-.16,1.9-1.72,3.38-3.63,3.43-.03,0-.07,0-.1,0Z"/>
    <path class="cls-1" d="m24.79,120.01c-1.86,0-3.45-1.37-3.71-3.23-.31-2.2-1.36-6.44-4.99-10.12-3.72-3.78-8.07-4.88-10.33-5.19-1.92-.27-3.32-1.95-3.22-3.89.09-1.93,1.64-3.48,3.58-3.56,2.07-.09,6.06-.7,9.6-3.79,4.63-4.03,5.24-9.56,5.32-11.15.1-2,1.74-3.57,3.74-3.57h.03c2.01.02,3.65,1.62,3.71,3.63.05,1.52.55,6.81,4.91,10.83,3.78,3.49,8.23,3.99,9.97,4.04,1.98.06,3.58,1.66,3.63,3.64s-1.45,3.67-3.43,3.83c-1.89.16-6.69.97-10.58,5.05-3.62,3.79-4.36,8.28-4.51,10.04-.16,1.9-1.72,3.38-3.63,3.43-.03,0-.07,0-.1,0Z"/>
  </g>
  <g>
    <path class="cls-2" d="m109.69,57.99c-3.93.33-19.68,2.13-32.43,15.48-11.74,12.29-13.47,26.58-13.83,30.78-.64-4.6-3.19-18.51-15.06-30.57-12.25-12.45-26.66-15.05-31.19-15.68,4.23-.18,17.75-1.31,29.75-11.76,15.15-13.19,16.35-31.2,16.51-34.49.1,3.25.98,20.47,15.27,33.67,12.53,11.57,27.16,12.47,30.99,12.59Z"/>
    <path class="cls-2" d="m121.71,97.76c-1.57.13-7.87.85-12.97,6.19-4.7,4.92-5.39,10.63-5.53,12.31-.26-1.84-1.28-7.4-6.03-12.23-4.9-4.98-10.66-6.02-12.48-6.27,1.69-.07,7.1-.53,11.9-4.71,6.06-5.28,6.54-12.48,6.6-13.8.04,1.3.39,8.19,6.11,13.47,5.01,4.63,10.87,4.99,12.39,5.04Z"/>
    <path class="cls-2" d="m43.29,97.76c-1.57.13-7.87.85-12.97,6.19-4.7,4.92-5.39,10.63-5.53,12.31-.26-1.84-1.28-7.4-6.03-12.23-4.9-4.98-10.66-6.02-12.48-6.27,1.69-.07,7.1-.53,11.9-4.71,6.06-5.28,6.54-12.48,6.6-13.8.04,1.3.39,8.19,6.11,13.47,5.01,4.63,10.87,4.99,12.39,5.04Z"/>
  </g>
</svg>