<?xml version="1.0" encoding="UTF-8"?>
<svg id="Capa_9" data-name="Capa 9" xmlns="http://www.w3.org/2000/svg" viewBox="0 0 128 128">
  <defs>
    <style>
      .cls-1 {
        fill: #fff;
        stroke-miterlimit: 10;
      }

      .cls-1, .cls-2 {
        stroke: #1d1d1b;
        stroke-width: .25px;
      }

      .cls-2, .cls-3 {
        fill: #ffed00;
        stroke-linecap: round;
        stroke-linejoin: round;
      }

      .cls-3 {
        stroke: #ffed00;
        stroke-width: 3px;
      }
    </style>
  </defs>
  <path class="cls-1" d="m117.23,70.2l-14.11-2.72c.1-1.15.16-2.3.16-3.47,0-.79-.03-1.57-.08-2.34l14.18-2.31c2.18-.36,3.66-2.41,3.3-4.59-.35-2.18-2.41-3.65-4.59-3.3l-14.18,2.31c-.51-1.89-1.16-3.72-1.93-5.48l12.52-7.07c1.92-1.09,2.6-3.53,1.52-5.45-1.09-1.92-3.53-2.6-5.45-1.52l-12.53,7.07c-1.12-1.58-2.36-3.08-3.7-4.48l9.32-10.97c1.43-1.68,1.23-4.21-.46-5.64-1.68-1.43-4.21-1.23-5.64.46l-9.32,10.96c-1.59-1.1-3.27-2.08-5.01-2.94l4.96-13.49c.76-2.07-.3-4.37-2.37-5.13-2.07-.76-4.37.3-5.13,2.37l-4.95,13.48c-1.86-.48-3.77-.82-5.73-1.02v-14.36c0-2.21-1.79-4-4-4s-4,1.79-4,4v14.36c-1.19.12-2.35.3-3.51.53l-4.17-13.75c-.64-2.11-2.88-3.31-4.99-2.67-2.11.64-3.31,2.88-2.67,4.99l4.17,13.75c-1.8.76-3.53,1.64-5.18,2.64l-8.66-11.47c-1.33-1.76-3.84-2.12-5.6-.78-1.76,1.33-2.11,3.84-.78,5.6l8.67,11.48c-1.42,1.32-2.74,2.74-3.95,4.26l-12.1-7.79c-1.86-1.2-4.33-.66-5.53,1.2-1.2,1.86-.66,4.33,1.2,5.53l12.09,7.78c-.88,1.72-1.63,3.51-2.25,5.36l-14.03-3.13c-2.15-.48-4.29.88-4.77,3.03-.48,2.16.88,4.29,3.03,4.78l14.03,3.13c-.18,1.51-.28,3.04-.28,4.6,0,.4.02.8.03,1.21l-14.25,1.9c-2.19.29-3.73,2.3-3.44,4.49.27,2.01,1.99,3.47,3.96,3.47.18,0,.35-.01.53-.04l14.24-1.9c.46,1.9,1.05,3.75,1.77,5.54l-12.72,6.7c-1.95,1.03-2.7,3.45-1.67,5.4.72,1.36,2.1,2.14,3.54,2.14.63,0,1.27-.15,1.86-.46l12.72-6.7c1.08,1.62,2.27,3.15,3.57,4.58l-9.63,10.69c-1.48,1.64-1.35,4.17.29,5.65.76.69,1.72,1.03,2.68,1.03,1.09,0,2.18-.45,2.97-1.32l9.63-10.69c1.56,1.14,3.21,2.17,4.93,3.08l-5.35,13.35c-.82,2.05.17,4.38,2.22,5.2.49.2.99.29,1.49.29,1.59,0,3.09-.95,3.71-2.51l5.35-13.34c1.85.53,3.75.93,5.69,1.18l-.42,14.37c-.06,2.21,1.67,4.05,3.88,4.11.04,0,.08,0,.12,0,2.16,0,3.93-1.72,4-3.88l.42-14.37c1.96-.14,3.88-.43,5.75-.85l4.57,13.63c.56,1.67,2.12,2.73,3.79,2.73.42,0,.85-.07,1.27-.21,2.09-.7,3.22-2.97,2.52-5.06l-4.57-13.63c1.77-.81,3.48-1.74,5.1-2.79l9,11.23c.79.99,1.95,1.5,3.12,1.5.88,0,1.76-.29,2.5-.88,1.72-1.38,2-3.9.62-5.62l-9-11.23c1.38-1.36,2.66-2.82,3.83-4.37l12.31,7.43c.65.39,1.36.58,2.06.58,1.36,0,2.68-.69,3.43-1.93,1.14-1.89.53-4.35-1.36-5.49l-12.31-7.42c.83-1.74,1.53-3.56,2.09-5.43l14.11,2.72c.26.05.51.07.76.07,1.88,0,3.55-1.33,3.92-3.24.42-2.17-1-4.27-3.17-4.69Z"/>
  <g>
    <line class="cls-3" x1="64" y1="10.56" x2="64" y2="25.77"/>
    <line class="cls-3" x1="82.44" y1="13.85" x2="77.19" y2="28.11"/>
    <line class="cls-3" x1="98.61" y1="23.29" x2="88.76" y2="34.87"/>
    <line class="cls-3" x1="110.53" y1="37.73" x2="97.29" y2="45.2"/>
    <line class="cls-3" x1="116.74" y1="55.4" x2="101.73" y2="57.85"/>
    <line class="cls-3" x1="116.47" y1="74.12" x2="101.54" y2="71.24"/>
    <line class="cls-3" x1="109.75" y1="91.61" x2="96.74" y2="83.75"/>
    <line class="cls-3" x1="97.42" y1="105.7" x2="87.91" y2="93.83"/>
    <line class="cls-3" x1="80.98" y1="114.67" x2="76.15" y2="100.25"/>
    <line class="cls-3" x1="62.45" y1="117.41" x2="62.89" y2="102.22"/>
    <line class="cls-3" x1="44.12" y1="113.6" x2="49.77" y2="99.49"/>
    <line class="cls-3" x1="28.23" y1="103.69" x2="38.4" y2="92.4"/>
    <line class="cls-3" x1="16.73" y1="88.91" x2="30.18" y2="81.83"/>
    <line class="cls-3" x1="11.03" y1="71.07" x2="26.1" y2="69.06"/>
    <line class="cls-3" x1="11.85" y1="52.36" x2="26.68" y2="55.67"/>
    <line class="cls-3" x1="19.06" y1="35.08" x2="31.85" y2="43.31"/>
    <line class="cls-3" x1="31.8" y1="21.35" x2="40.96" y2="33.49"/>
    <line class="cls-3" x1="48.49" y1="12.86" x2="52.91" y2="27.41"/>
  </g>
  <circle class="cls-2" cx="64" cy="64" r="35.28"/>
</svg>