<?xml version="1.0" encoding="UTF-8"?>
<svg id="Capa_12" data-name="Capa 12" xmlns="http://www.w3.org/2000/svg" viewBox="0 0 128 128">
  <defs>
    <style>
      .cls-1 {
        stroke: #1d1d1b;
        stroke-width: .25px;
      }

      .cls-1, .cls-2 {
        stroke-miterlimit: 10;
      }

      .cls-1, .cls-3 {
        fill: #fff;
      }

      .cls-2 {
        fill: none;
        stroke: #fff;
      }

      .cls-3, .cls-4 {
        stroke-width: 0px;
      }

      .cls-4 {
        fill: #f90057;
      }
    </style>
  </defs>
  <path class="cls-1" d="m110.96,30.74c-.49-.31-1.05-.47-1.61-.47-.47,0-.93.11-1.36.32-1.11.57-2.29,1.03-3.47,1.38-.02.01-.04.01-.06.02.13-.63.25-1.25.38-1.88.2-1.06-.18-2.16-1-2.86-.56-.47-1.25-.72-1.95-.72-.35,0-.7.07-1.04.19-3.92,1.45-7.98,2.64-12.05,3.52-.01,0-.09.02-.19.04-.1.02-.19.01-.28.04-.21.05-.41.09-.62.14l-.56.13h0s-.04.01-.06.01c-.04.01-.08.02-.12.02-1.02.21-2.06.39-3.09.56.2-.83.2-1.5.2-1.76,0-.81-.32-1.58-.9-2.14-.53-.53-1.24-.83-1.99-.86.23-.43.44-.87.62-1.3.06-.14.11-.26.16-.39.07-.04.14-.08.2-.13.74-.47,1.23-1.01,1.53-1.37.41-.49.65-1.1.69-1.72.29-.43.58-.99.78-1.68.34-1.22.24-2.29.09-2.97-.3-1.36-1.49-2.34-2.88-2.36-3.07-.05-6.14-.1-9.21-.14-1.32-1.02-2.64-2.04-3.96-3.06-.12-.09-.24-.16-.36-.23l-.05-2.62c-.03-1.28-.87-2.41-2.09-2.8-.14-.04-.27-.07-.41-.1v-.16c0-1.09-.6-2.1-1.56-2.63-.45-.24-.94-.37-1.44-.37-.56,0-1.12.16-1.61.48-1.49.95-3.55,2.68-4.9,5.54-.47,1.01-.81,2.07-1.01,3.16-1.9.79-3.33,2.22-3.93,4.04-.1.29-.18.59-.23.9l-1.68.91c-.95.51-1.55,1.48-1.58,2.55-.01.32.04.64.12.94l-1.34.69c-.93.47-1.54,1.39-1.62,2.42-.09,1.04.37,2.05,1.21,2.66l2.84,2.09v2.74c-.09.12-.18.24-.27.36-3.33-.34-6.71-.89-10.08-1.63-4.07-.88-8.13-2.07-12.05-3.52-.34-.12-.69-.19-1.04-.19-.71,0-1.4.25-1.95.72-.83.71-1.21,1.81-.99,2.88l.37,1.86s-.04-.01-.06-.02c-1.19-.35-2.36-.81-3.48-1.38-.42-.21-.89-.32-1.35-.32-.56,0-1.12.16-1.61.47-.9.57-1.42,1.57-1.39,2.63.09,2.65.28,6.93.65,12.3l.03.34c1.14,15.77,1.71,23.69,4.13,31.49,2.08,6.69,6.4,20.61,18.21,29.86.97.76,1.87,1.39,3.12,2.27,1.68,1.18,3.98,2.8,8.04,5.84,4.21,3.13,8.35,6.32,12.29,9.47.55.44,1.21.66,1.87.66s1.33-.22,1.88-.66c3.94-3.15,8.08-6.34,12.29-9.47,4-2.99,6.29-4.6,7.97-5.78,1.28-.9,2.21-1.56,3.19-2.33,11.81-9.25,16.13-23.17,18.21-29.87,2.44-7.87,3.01-15.87,4.16-31.82.29-4.05.51-8.19.65-12.3.03-1.06-.5-2.06-1.39-2.63Z"/>
  <g>
    <g>
      <path class="cls-4" d="m105.36,34.85c-1.78.52-3.39.76-4.71.87.42-2.06.83-4.13,1.24-6.18-3.57,1.32-7.74,2.62-12.45,3.64-.14.04-.29.06-.43.1-.4.08-.8.17-1.18.24-.1.02-.19.05-.29.06-4.36.87-8.4,1.34-11.93,1.57-1.08.06-2.4.12-3.89.17-.36-.3-.71-.68-1.01-1.18-.31-.5-.48-.99-.56-1.37,3.1-.01,6.22-.02,9.32-.02.32-.26.98-.84,1.33-1.82.23-.61.25-1.14.25-1.5-.7.01-1.39.02-2.09.05-.33-.7-.67-1.39-1.01-2.09-.01.24-.08.76-.46,1.28-.32.44-.7.67-.9.77-.29-.52-.56-1.05-.84-1.56-.08.29-.24.64-.49,1.02-.19.3-.39.54-.56.71-1.08.01-2.16.02-3.25.02-.96-1.25-1.91-2.49-2.88-3.73.84-1.08,1.69-2.16,2.53-3.23,1.11-.02,2.21-.04,3.32-.06.19.18.48.5.69.96.27.59.29,1.14.26,1.43.3-.27.77-.81,1.03-1.62.13-.39.17-.74.18-1.01.26.32.57.73.83,1.25.43.83.59,1.61.67,2.14.32-.5.65-1.11.95-1.82.21-.5.37-.98.5-1.4.25-.07.61-.19.98-.44.42-.26.69-.57.87-.78-.25-.18-.61-.46-.93-.9-.36-.5-.52-.99-.61-1.3.19.01.45.04.74.17.62.25.92.74,1.02.92.19-.2.49-.59.65-1.17.19-.68.11-1.25.05-1.52-3.4-.06-6.8-.11-10.2-.15-1.58-1.22-3.16-2.45-4.74-3.66-.5.02-.99.06-1.47.1-.04-1.76-.07-3.52-.11-5.27-.83,1.13-1.66,2.27-2.5,3.4v-6.52c-.82.52-2.64,1.84-3.79,4.29-.82,1.75-.95,3.33-.95,4.26-1.87.19-3.39,1.19-3.86,2.62-.21.64-.18,1.26-.07,1.74l-3.26,1.76,2.44,1.5-5.29,2.71c1.36,1,2.71,1.99,4.07,2.98v5.29c-.64.82-1.27,1.64-1.9,2.46-3.63-.3-7.71-.87-12.09-1.83-4.71-1.02-8.88-2.32-12.45-3.64.42,2.06.82,4.13,1.24,6.18-1.31-.11-2.93-.34-4.71-.87-1.57-.46-2.9-1.03-3.98-1.58.1,2.85.29,7.09.64,12.19,1.14,15.74,1.7,23.63,4.03,31.14,1.97,6.36,6.11,19.72,17.2,28.4,2.14,1.68,4,2.75,11.11,8.06,5.32,3.96,9.58,7.31,12.37,9.54,2.78-2.22,7.05-5.58,12.37-9.54,7.12-5.32,8.98-6.39,11.11-8.06,11.08-8.68,15.22-22.04,17.2-28.4,2.33-7.52,2.9-15.4,4.03-31.14.37-5.1.55-9.34.64-12.19-1.08.55-2.41,1.12-3.98,1.58ZM62.23,13.54c-.29.2-.56.4-.83.61-.14-.7-.29-1.82-.05-3.16.19-1.17.58-2.06.9-2.65-.01,1.74-.01,3.47-.02,5.21Zm1.77,4.25c2.02.62,4.06,1.25,6.09,1.87-.86.49-1.7.99-2.56,1.47-1.18-1.12-2.35-2.22-3.53-3.34Z"/>
      <path class="cls-4" d="m62.25,8.33c-.01,1.74-.01,3.47-.02,5.21-.29.2-.56.4-.83.61-.14-.7-.29-1.82-.05-3.16.19-1.17.58-2.06.9-2.65Z"/>
      <path class="cls-4" d="m70.09,19.66c-.86.49-1.7.99-2.56,1.47-1.18-1.12-2.35-2.22-3.53-3.34,2.02.62,4.06,1.25,6.09,1.87Z"/>
      <path class="cls-4" d="m89.03,33.24s-.02.02-.02.04c-.4.08-.8.17-1.18.24.4-.1.81-.18,1.2-.27Z"/>
      <path class="cls-3" d="m70.09,19.66c-.86.49-1.7.99-2.56,1.47-1.18-1.12-2.35-2.22-3.53-3.34,2.02.62,4.06,1.25,6.09,1.87Z"/>
      <path class="cls-3" d="m62.25,8.33c-.01,1.74-.01,3.47-.02,5.21-.29.2-.56.4-.83.61-.14-.7-.29-1.82-.05-3.16.19-1.17.58-2.06.9-2.65Z"/>
    </g>
    <path class="cls-2" d="m104.84,37.56c-.09,2.57-.25,6.38-.58,10.97-1.02,14.17-1.53,21.27-3.63,28.03-1.78,5.73-5.5,17.74-15.48,25.56-1.92,1.51-3.59,2.47-10,7.26-4.78,3.56-8.63,6.58-11.13,8.58-2.5-2-6.35-5.02-11.13-8.58-6.4-4.78-8.07-5.75-10-7.26-9.97-7.81-13.7-19.83-15.48-25.56-2.1-6.76-2.6-13.86-3.63-28.03-.32-4.59-.49-8.4-.58-10.97.97.49,2.17,1.01,3.59,1.42,1.61.47,3.06.68,4.24.78-.37-1.85-.74-3.71-1.11-5.57,3.21,1.19,6.97,2.35,11.21,3.27,5.87,1.27,8.83,2.11,12.44,1.77,4.33-.42,7.69-2.03,9.8-3.27,4.56,2.43,8.5,3.1,11.12,3.27,3.78.25,6.69-.52,12.44-1.77,4.24-.92,7.99-2.09,11.21-3.27-.36,1.85-.74,3.71-1.11,5.57,1.19-.1,2.63-.31,4.24-.78,1.41-.42,2.61-.93,3.59-1.42Z"/>
  </g>
</svg>