<?xml version="1.0" encoding="UTF-8"?>
<svg id="Capa_14" data-name="Capa 14" xmlns="http://www.w3.org/2000/svg" viewBox="0 0 128 128">
  <defs>
    <style>
      .cls-1 {
        stroke-miterlimit: 10;
      }

      .cls-1, .cls-2 {
        fill: #fff;
      }

      .cls-1, .cls-2, .cls-3 {
        stroke: #1d1d1b;
        stroke-width: .25px;
      }

      .cls-2, .cls-3, .cls-4, .cls-5 {
        stroke-linecap: round;
        stroke-linejoin: round;
      }

      .cls-3, .cls-5 {
        fill: #ffed00;
      }

      .cls-4 {
        fill: none;
        stroke: #00a4f1;
        stroke-width: 4px;
      }

      .cls-5 {
        stroke: #ffed00;
        stroke-width: 3px;
      }
    </style>
  </defs>
  <g>
    <path class="cls-1" d="m123.43,81.52h-23.75c.43-1.07.82-2.15,1.15-3.25l13.83,2.67c.25.05.5.07.75.07,1.84,0,3.48-1.3,3.84-3.18.41-2.12-.98-4.18-3.11-4.59l-13.83-2.67c.1-1.13.17-2.26.17-3.4,0-.77-.03-1.53-.07-2.29l13.89-2.27c2.14-.35,3.59-2.36,3.24-4.5s-2.36-3.58-4.5-3.24l-13.89,2.27c-.5-1.85-1.13-3.64-1.89-5.37l12.26-6.92c1.88-1.06,2.55-3.45,1.49-5.34-1.06-1.88-3.45-2.55-5.34-1.49l-12.28,6.93c-1.1-1.55-2.31-3.02-3.63-4.38l9.13-10.74c1.4-1.65,1.2-4.12-.45-5.52-1.65-1.4-4.12-1.2-5.52.45l-9.13,10.74c-1.56-1.08-3.2-2.04-4.91-2.88l4.86-13.22c.75-2.03-.3-4.28-2.33-5.03-2.03-.74-4.28.29-5.03,2.33l-4.85,13.2c-1.82-.47-3.7-.8-5.61-1v-14.07c0-2.16-1.75-3.92-3.92-3.92s-3.92,1.75-3.92,3.92v14.07c-1.16.12-2.31.3-3.44.52l-4.08-13.47c-.63-2.07-2.81-3.24-4.89-2.61-2.07.63-3.24,2.82-2.61,4.89l4.08,13.47c-1.76.74-3.46,1.61-5.07,2.59l-8.48-11.24c-1.3-1.73-3.76-2.07-5.49-.77-1.73,1.3-2.07,3.76-.77,5.49l8.49,11.25c-1.39,1.29-2.68,2.69-3.87,4.17l-11.85-7.63c-1.82-1.17-4.25-.64-5.42,1.17-1.17,1.82-.65,4.24,1.17,5.42l11.85,7.62c-.86,1.68-1.6,3.44-2.2,5.25l-13.74-3.07c-2.11-.47-4.21.86-4.68,2.97-.47,2.11.86,4.21,2.97,4.68l13.74,3.07c-.17,1.48-.27,2.98-.27,4.51,0,.39.03.79.04,1.18l-13.97,1.87c-2.14.29-3.65,2.26-3.37,4.4.26,1.97,1.94,3.4,3.88,3.4.17,0,.35-.01.52-.03l13.97-1.86c.44,1.84,1.02,3.64,1.72,5.4H4.57c-2.16,0-3.92,1.75-3.92,3.92s1.75,3.92,3.92,3.92h118.85c2.16,0,3.92-1.75,3.92-3.92s-1.75-3.92-3.92-3.92Z"/>
    <path class="cls-1" d="m106.54,92.69h-61.85c-1.58,0-2.93.94-3.55,2.28-.62-1.34-1.97-2.28-3.55-2.28h-16.13c-2.16,0-3.92,1.75-3.92,3.92s1.75,3.92,3.92,3.92h16.13c1.58,0,2.93-.94,3.55-2.28.62,1.34,1.97,2.28,3.55,2.28h61.85c2.16,0,3.92-1.75,3.92-3.92s-1.75-3.92-3.92-3.92Z"/>
    <path class="cls-1" d="m87.4,105.43h-12.71c-1.1,0-2.08.45-2.8,1.18-.71-.73-1.7-1.18-2.8-1.18h-28.5c-2.16,0-3.92,1.75-3.92,3.92s1.75,3.92,3.92,3.92h28.5c1.1,0,2.08-.45,2.8-1.18.71.73,1.7,1.18,2.8,1.18h12.71c2.16,0,3.92-1.75,3.92-3.92s-1.75-3.92-3.92-3.92Z"/>
  </g>
  <g>
    <g>
      <line class="cls-5" x1="64" y1="14.83" x2="64" y2="29.72"/>
      <line class="cls-5" x1="82.06" y1="18.04" x2="76.92" y2="32.02"/>
      <line class="cls-5" x1="97.91" y1="27.29" x2="88.26" y2="38.64"/>
      <line class="cls-5" x1="109.59" y1="41.44" x2="96.62" y2="48.77"/>
      <line class="cls-5" x1="115.67" y1="58.75" x2="100.97" y2="61.15"/>
      <line class="cls-5" x1="115.4" y1="77.1" x2="100.78" y2="74.28"/>
      <line class="cls-5" x1="12.11" y1="74.11" x2="26.87" y2="72.14"/>
      <line class="cls-5" x1="12.91" y1="55.78" x2="27.44" y2="59.02"/>
      <line class="cls-5" x1="19.98" y1="38.85" x2="32.5" y2="46.91"/>
      <line class="cls-5" x1="32.46" y1="25.4" x2="41.43" y2="37.29"/>
      <line class="cls-5" x1="48.81" y1="17.08" x2="53.13" y2="31.33"/>
    </g>
    <path class="cls-3" d="m98.56,67.18c0-19.09-15.47-34.56-34.56-34.56s-34.56,15.47-34.56,34.56c0,6.71,1.92,12.96,5.22,18.26h58.67c3.31-5.3,5.22-11.56,5.22-18.26Z"/>
    <g>
      <line class="cls-4" x1="4.57" y1="85.44" x2="123.43" y2="85.44"/>
      <line class="cls-4" x1="21.46" y1="96.61" x2="37.59" y2="96.61"/>
      <line class="cls-4" x1="44.69" y1="96.61" x2="106.54" y2="96.61"/>
      <line class="cls-4" x1="74.69" y1="109.35" x2="87.4" y2="109.35"/>
      <line class="cls-4" x1="40.6" y1="109.35" x2="69.1" y2="109.35"/>
    </g>
    <polygon class="cls-2" points="54.31 61.55 54.31 69.64 64.06 79.39 73.75 69.7 73.75 60.92 66.34 68.33 66.34 42.88 61.83 42.88 61.83 68.39 54.31 61.55"/>
  </g>
</svg>