<?xml version="1.0" encoding="UTF-8"?>
<svg id="Capa_4" data-name="Capa 4" xmlns="http://www.w3.org/2000/svg" xmlns:xlink="http://www.w3.org/1999/xlink" viewBox="0 0 128 128">
  <defs>
    <style>
      .cls-1 {
        fill: url(#Degradado_sin_nombre_16);
        stroke-linecap: square;
        stroke-linejoin: round;
      }

      .cls-1, .cls-2 {
        stroke: #1d1d1b;
        stroke-width: .25px;
      }

      .cls-2 {
        fill: #fff;
        stroke-miterlimit: 10;
      }
    </style>
    <linearGradient id="Degradado_sin_nombre_16" data-name="Degradado sin nombre 16" x1="18.68" y1="114.15" x2="111.76" y2="10.46" gradientUnits="userSpaceOnUse">
      <stop offset=".19" stop-color="#f90057"/>
      <stop offset=".19" stop-color="#f70158"/>
      <stop offset=".48" stop-color="#7357a9"/>
      <stop offset=".68" stop-color="#208edc"/>
      <stop offset=".76" stop-color="#00a4f1"/>
    </linearGradient>
  </defs>
  <path class="cls-2" d="m48.88,126.73c-2.6,0-4.71-2.11-4.71-4.71v-6.21s-15.5.17-15.52.17c-1.24,0-2.43-.49-3.31-1.36-.89-.89-1.4-2.09-1.4-3.35v-11.3c0-2.6,2.11-4.71,4.71-4.71h4.66c-11.54-7.18-18.99-19.94-18.99-34.35,0-22.31,18.15-40.45,40.45-40.45,7.04,0,13.84,1.8,19.89,5.23l3.32-3.32c-1.23-1.28-2.46-2.57-3.69-3.85-1.16-1.21-1.59-2.95-1.13-4.56.46-1.61,1.75-2.86,3.38-3.27,10.43-2.63,20.85-5.25,31.27-7.87.38-.1.77-.14,1.15-.14,1.27,0,2.51.51,3.41,1.46,1.17,1.23,1.59,2.99,1.11,4.61-1.73,5.75-9.32,31.08-9.32,31.08-.48,1.61-1.79,2.84-3.43,3.23-.36.09-.72.13-1.09.13-1.28,0-2.52-.52-3.42-1.48l-3.98-4.21-2.77,2.61c3.78,6.27,5.76,13.38,5.76,20.82,0,14.4-7.45,27.17-18.99,34.35h4.36c2.6,0,4.71,2.11,4.71,4.71v11.73c0,2.6-2.11,4.71-4.71,4.71h-15.6l-.12,5.71c-.05,2.56-2.15,4.61-4.71,4.61h-11.29Zm5.9-88.4c-12.46,0-22.59,10.13-22.59,22.58s10.13,22.59,22.59,22.59,22.58-10.13,22.58-22.59-10.13-22.58-22.58-22.58Z"/>
  <path class="cls-1" d="m77.69,15.24c2.3,2.39,4.6,4.8,6.89,7.19-3.08,3.08-6.16,6.16-9.24,9.24-5.81-4.1-12.91-6.51-20.56-6.51-19.75,0-35.74,16.01-35.74,35.74,0,17.79,12.97,32.52,29.98,35.28.03,1.26.05,2.52.08,3.78h-20.43v11.3l20.23-.22v10.97h11.29l.22-10.32h20.22v-11.73h-20v-3.79c16.97-2.78,29.92-17.51,29.92-35.27,0-8.07-2.68-15.52-7.19-21.5,3.03-2.86,6.07-5.73,9.1-8.59,2.4,2.54,4.8,5.1,7.21,7.64,3.11-10.36,6.21-20.73,9.32-31.08-10.42,2.62-20.84,5.24-31.27,7.87Zm-22.91,72.96c-15.07,0-27.3-12.23-27.3-27.3s12.23-27.29,27.3-27.29,27.29,12.22,27.29,27.29-12.22,27.3-27.29,27.3Z"/>
</svg>