<?xml version="1.0" encoding="UTF-8"?>
<svg id="Capa_11" data-name="Capa 11" xmlns="http://www.w3.org/2000/svg" viewBox="0 0 128 128">
  <defs>
    <style>
      .cls-1 {
        stroke: #1d1d1b;
        stroke-miterlimit: 10;
        stroke-width: .25px;
      }

      .cls-1, .cls-2 {
        fill: #fff;
      }

      .cls-3 {
        fill: #e30613;
      }

      .cls-3, .cls-2 {
        stroke-width: 0px;
      }
    </style>
  </defs>
  <path class="cls-1" d="m64.01,127.17c-1.47,0-2.81-.85-3.44-2.18L28.32,56.9c-.14-.27-.29-.6-.43-.95-2.2-4.96-3.31-10.25-3.31-15.71C24.58,18.51,42.27.83,64.01.83s39.41,17.68,39.41,39.41c0,5.46-1.11,10.74-3.31,15.71-.15.37-.31.71-.48,1.05l-32.18,67.99c-.63,1.33-1.97,2.18-3.44,2.18Z"/>
  <g>
    <path class="cls-3" d="m99.61,40.24c0,5.06-1.07,9.87-3.01,14.23-.11.28-.23.54-.37.81l-.23.48-31.99,67.6L32,55.78l-.24-.51c-.13-.26-.25-.52-.36-.79-1.94-4.36-3.01-9.18-3.01-14.23,0-19.53,16.07-35.61,35.62-35.61s35.61,16.07,35.61,35.61Z"/>
    <circle class="cls-2" cx="64" cy="40.1" r="18.97"/>
  </g>
</svg>