<?xml version="1.0" encoding="UTF-8"?>
<svg id="Capa_1" data-name="Capa 1" xmlns="http://www.w3.org/2000/svg" viewBox="0 0 128 128">
  <defs>
    <style>
      .cls-1 {
        fill: #fff;
        stroke: #1d1d1b;
        stroke-miterlimit: 10;
        stroke-width: .25px;
      }

      .cls-2 {
        stroke-width: 0px;
      }
    </style>
  </defs>
  <path class="cls-1" d="m93.78,86.02h14.9c2.21,0,4,1.79,4,4v28.74c0,2.21-1.79,4-4,4H14.36c-2.21,0-4-1.79-4-4V9.24c0-2.21,1.79-4,4-4h36.46c1.26,0,2.38.6,3.11,1.51h20.94c1.73,0,3.27,1.11,3.8,2.76l6.31,19.4,6.36-19.41c.54-1.64,2.08-2.75,3.8-2.75h20.82c1.28,0,2.48.61,3.24,1.65.75,1.03.96,2.37.56,3.58l-23.22,71.43c-.43,1.31-1.48,2.27-2.76,2.61Z"/>
  <g>
    <path class="cls-2" d="m14.36,9.24h36.46v80.79h57.86v28.74H14.36V9.24Z"/>
    <path class="cls-2" d="m74.86,10.75l10.09,31.05,10.18-31.05h20.82l-23.23,71.43h-15.46L54.05,10.75h20.82Z"/>
  </g>
</svg>