<?xml version="1.0" encoding="UTF-8"?>
<svg id="Capa_5" data-name="Capa 5" xmlns="http://www.w3.org/2000/svg" viewBox="0 0 128 128">
  <defs>
    <style>
      .cls-1 {
        stroke: #fff;
      }

      .cls-1, .cls-2 {
        stroke-miterlimit: 10;
      }

      .cls-2 {
        fill: #fff;
        stroke: #1d1d1b;
        stroke-width: .25px;
      }
    </style>
  </defs>
  <path class="cls-2" d="m116.85,58.42c-1.69,1.69-3.57,3.17-5.61,4.44h4.63c2.76,0,5,2.23,5,5v13.24c0,1.14-.39,2.2-1.03,3.04.45.75.71,1.62.71,2.56v12.57c0,.78-.18,1.53-.51,2.19.97.91,1.57,2.2,1.57,3.63v13.25c0,2.76-2.23,5-5,5h-42.63c-2.76,0-5-2.24-5-5-.35-27.23-.33-47.12,0-50.48.06-.59.17-1.09.3-1.52h-1.05c.35,1.08.32,2.25-.1,3.33l-19.68,50.49c-.75,1.92-2.6,3.18-4.66,3.18h-13.09c-2.06,0-3.91-1.26-4.66-3.18L6.36,69.67c-.6-1.54-.4-3.27.53-4.64.11-.15.22-.3.34-.44-.74-.87-1.21-2-1.21-3.24V10.87c0-2.76,2.24-5,5-5h13.32c1.66,0,3.2.82,4.13,2.19l9.03,13.27,8.96-13.26c.93-1.38,2.49-2.2,4.15-2.2h13.31c2.76,0,5,2.24,5,5v7.04c1.02-1.44,2.15-2.79,3.39-4.03,2.83-2.84,6.2-5.1,9.99-6.74,3.86-1.65,7.98-2.48,12.28-2.48s8.42.83,12.26,2.48c3.81,1.64,7.17,3.9,10.01,6.74,2.83,2.83,5.1,6.2,6.73,10,1.65,3.83,2.49,7.96,2.49,12.27s-.84,8.44-2.49,12.27c-1.63,3.8-3.9,7.16-6.73,10Z"/>
  <g>
    <path class="cls-1" d="m11.02,10.87h13.32l13.17,19.38,13.1-19.38h13.32v50.49h-16.12v-18.17l-10.29,15.14-10.37-15.14v18.17H11.02V10.87Z"/>
    <path class="cls-1" d="m68.09,36.15c0-3.63.69-7.06,2.08-10.29,1.39-3.23,3.28-6.04,5.67-8.44s5.21-4.29,8.44-5.68c3.23-1.39,6.66-2.08,10.3-2.08s7.06.69,10.29,2.08c3.23,1.39,6.04,3.28,8.44,5.68s4.29,5.21,5.67,8.44c1.39,3.23,2.08,6.66,2.08,10.29s-.69,7.07-2.08,10.3c-1.39,3.23-3.28,6.04-5.67,8.44s-5.21,4.29-8.44,5.68c-3.23,1.39-6.66,2.08-10.29,2.08s-7.07-.7-10.3-2.08c-3.23-1.39-6.04-3.28-8.44-5.68s-4.29-5.21-5.67-8.44c-1.39-3.23-2.08-6.66-2.08-10.3Zm15.89,0c0,1.47.28,2.84.83,4.13.55,1.28,1.31,2.41,2.27,3.37.96.96,2.08,1.72,3.37,2.27,1.29.56,2.66.83,4.13.83s2.83-.28,4.12-.83c1.29-.55,2.41-1.31,3.37-2.27.96-.96,1.71-2.08,2.27-3.37.55-1.29.83-2.66.83-4.13s-.28-2.84-.83-4.12c-.56-1.29-1.31-2.41-2.27-3.37-.96-.96-2.08-1.72-3.37-2.27s-2.66-.83-4.12-.83-2.84.28-4.13.83-2.41,1.31-3.37,2.27c-.96.96-1.72,2.08-2.27,3.37s-.83,2.66-.83,4.12Z"/>
    <path class="cls-1" d="m28.65,67.86l8.56,21.95,8.63-21.95h17.64l-19.68,50.49h-13.1l-19.68-50.49h17.64Z"/>
    <path class="cls-1" d="m73.98,67.86h41.89v13.25h-27.7v5.6h27.38v12.57h-27.38v5.83h28.45v13.25h-42.63v-50.49Z"/>
  </g>
</svg>