<?xml version="1.0" encoding="UTF-8"?>
<svg id="Capa_10" data-name="Capa 10" xmlns="http://www.w3.org/2000/svg" viewBox="0 0 128 128">
  <defs>
    <style>
      .cls-1 {
        fill: #ffeda6;
      }

      .cls-1, .cls-2 {
        stroke: #1d1d1b;
        stroke-miterlimit: 10;
        stroke-width: .25px;
      }

      .cls-2 {
        fill: #fff;
      }
    </style>
  </defs>
  <path class="cls-2" d="m67.69,120.9c-1.46,0-2.75-.04-3.82-.08-8.75-.29-25.53-2.87-39.6-16.86-5.03-5-16.77-18.91-17.09-39.9-.09-5.94.9-26.53,17.51-42.04,7.2-6.73,19.86-14.76,39.3-14.84h.86c15.05,0,27.3,4.45,36.41,13.23,5.93,5.71,10.3,13.13,12.64,21.46.52,1.85-.35,3.81-2.07,4.67-.57.28-1.17.42-1.77.42-1.22,0-2.42-.56-3.2-1.59-7.18-9.52-18.27-15.2-29.66-15.2-5.14,0-10.17,1.2-14.55,3.46-11.03,5.69-20.5,19.41-17.26,34.61,2.83,13.25,14.23,20.9,23.12,23.43,2.81.8,5.74,1.2,8.69,1.2h0c6.75,0,12.04-2.05,14.6-3.28,9.99-4.78,14.58-13.16,16.09-16.53.65-1.46,2.1-2.37,3.65-2.37.29,0,.59.03.89.1,1.86.42,3.16,2.1,3.11,4-.13,5.23-1.72,23.24-16.64,35.69-8.41,7.01-18.61,10.42-31.2,10.42Z"/>
  <path class="cls-1" d="m41.47,69.06c3.02,14.13,14.85,23.29,25.94,26.44,12.94,3.67,23.69-1.16,26.11-2.31,11.9-5.7,16.8-15.8,18.01-18.51-.07,2.98-.81,20.71-15.2,32.72-12.1,10.09-26.03,9.63-32.33,9.42-5.47-.18-22.72-1.58-36.91-15.7-2.91-2.89-15.59-16.16-15.91-37.12-.06-3.82.05-23.93,16.24-39.06,14.34-13.4,31.52-13.74,36.58-13.76,5.65-.02,21.83-.08,34.48,12.11,7.35,7.09,10.32,15.25,11.57,19.66-12.14-16.1-33.29-21.13-49.24-12.89-13.31,6.87-22.78,22.85-19.33,39Z"/>
</svg>