<?xml version="1.0" encoding="UTF-8"?>
<svg id="Capa_8" data-name="Capa 8" xmlns="http://www.w3.org/2000/svg" viewBox="0 0 128 128">
  <defs>
    <style>
      .cls-1 {
        fill: none;
        stroke-linecap: round;
        stroke-linejoin: round;
        stroke-width: .75px;
      }

      .cls-1, .cls-2 {
        stroke: #1d1d1b;
      }

      .cls-2 {
        fill: #fff;
        stroke-miterlimit: 10;
        stroke-width: .25px;
      }

      .cls-3 {
        fill: #00a4f1;
        stroke-width: 0px;
      }
    </style>
  </defs>
  <path class="cls-2" d="m116.88,55.76c-.04,6.61-2.09,12.24-6.08,16.74-4.13,4.65-9.22,6.67-13.15,7.53.06.11.12.21.17.32l4.65,10.57c.43,1.02.66,2.06.68,3.12.02.75-.07,1.51-.25,2.24-.93,4.02-4.67,6.99-8.86,6.99h-.05c-1.43,0-2.79-.35-4.01-.96l.5,1.14c.44,1.01.66,2.05.69,3.12.01.75-.08,1.51-.26,2.24-.93,4.01-4.67,6.99-8.86,6.99h-.04c-4.16-.02-7.78-2.86-8.8-6.9-.08-.29-.12-.59-.12-.89-.02-.81.04-1.63.2-2.42.14-.76.36-1.5.65-2.22l.17-.37c-.7.18-1.41.27-2.15.27h-.04c-.8,0-1.58-.11-2.33-.31l.22.49c.43,1.01.66,2.05.68,3.12.02.75-.07,1.5-.25,2.24-.95,4.08-4.6,6.99-8.86,6.99h-.05c-4.15-.02-7.77-2.86-8.79-6.9-.08-.29-.12-.59-.12-.89-.02-.81.04-1.63.2-2.43.14-.75.36-1.5.66-2.21l.23-.53c-.87.28-1.78.43-2.72.43h-.04c-1.18,0-2.31-.24-3.35-.66l.37.84c.44,1.01.66,2.05.69,3.11,0,.76-.07,1.51-.26,2.24-.95,4.09-4.6,7-8.86,7h-.04c-4.16-.02-7.78-2.86-8.8-6.9-.07-.29-.11-.59-.12-.89-.02-.81.05-1.63.2-2.42.14-.76.36-1.51.66-2.22l.07-.17c-.35.04-.71.07-1.08.07h-.04c-4.16-.02-7.78-2.85-8.8-6.9-.07-.29-.11-.59-.12-.88-.02-.82.05-1.63.2-2.43.14-.76.37-1.5.66-2.21l4.55-10.49c.1-.21.21-.41.33-.6-10.26-3-17.14-13.15-15.7-23.89,1.37-10.22,9.86-18.05,20.1-18.86,2.3-5.56,8.77-17.55,22.74-21.17,2.53-.65,5.15-.99,7.79-.99,8.3,0,14.84,3.3,17.26,4.71,5.45,3.18,9.06,7.34,11.35,10.83.33-.01.67-.02,1.03-.02,4.22,0,12.22.96,18.44,7.38,4.47,4.61,6.9,11.01,6.86,18.01Z"/>
  <path class="cls-1" d="m34.22,40.98c-9.44-.56-17.73,6.31-18.95,15.42-1.27,9.48,5.48,18.56,15.2,20.05,20.49.07,40.98.15,61.47.22,1.36.01,9.84-.04,15.86-6.83,4.91-5.53,5.05-12,5.07-14.1.01-2-.06-9.35-5.73-15.2-7.32-7.56-17.67-6.11-18.73-5.95-2.03.57-4.92,1.64-7.93,3.75-2.13,1.49-3.72,3.09-4.85,4.41,1.08-1.34,2.69-3.05,4.96-4.63,3.01-2.08,5.9-3.05,7.82-3.53-1.43-2.57-4.79-7.8-11.24-11.57-1.85-1.08-11-6.16-22.03-3.3-15.69,4.06-20.69,20.42-20.93,21.26Z"/>
  <g>
    <path class="cls-3" d="m35.35,94.13c.01.47-.06.87-.13,1.16-.54,2.33-2.64,3.99-5.01,3.98-2.32-.01-4.36-1.61-4.94-3.88-.01-.43.01-.97.13-1.58.11-.58.27-1.06.43-1.44,1.51-3.47,3.02-6.94,4.52-10.41,1.55,3.52,3.1,7.05,4.65,10.57.15.34.33.9.35,1.6Z"/>
    <path class="cls-3" d="m44.46,106.66c.01.47-.06.87-.13,1.16-.54,2.33-2.64,3.99-5.01,3.98-2.32-.01-4.36-1.61-4.94-3.88-.01-.43.01-.97.13-1.58.11-.58.27-1.06.43-1.44,1.51-3.47,3.02-6.94,4.52-10.41,1.55,3.52,3.1,7.05,4.65,10.57.15.34.33.9.35,1.6Z"/>
    <path class="cls-3" d="m55.91,94.13c.01.47-.06.87-.13,1.16-.54,2.33-2.64,3.99-5.01,3.98-2.32-.01-4.36-1.61-4.94-3.88-.01-.43.01-.97.13-1.58.11-.58.27-1.06.43-1.44,1.51-3.47,3.02-6.94,4.52-10.41,1.55,3.52,3.1,7.05,4.65,10.57.15.34.33.9.35,1.6Z"/>
    <path class="cls-3" d="m66.5,106.66c.01.47-.06.87-.13,1.16-.54,2.33-2.64,3.99-5.01,3.98-2.32-.01-4.36-1.61-4.94-3.88-.01-.43.01-.97.13-1.58.11-.58.27-1.06.43-1.44,1.51-3.47,3.02-6.94,4.52-10.41,1.55,3.52,3.1,7.05,4.65,10.57.15.34.33.9.35,1.6Z"/>
    <path class="cls-3" d="m77.08,94.13c.01.47-.06.87-.13,1.16-.54,2.33-2.64,3.99-5.01,3.98-2.32-.01-4.36-1.61-4.94-3.88-.01-.43.01-.97.13-1.58.11-.58.27-1.06.43-1.44,1.51-3.47,3.02-6.94,4.52-10.41,1.55,3.52,3.1,7.05,4.65,10.57.15.34.33.9.35,1.6Z"/>
    <path class="cls-3" d="m99.16,94.13c.01.47-.06.87-.13,1.16-.54,2.33-2.64,3.99-5.01,3.98-2.32-.01-4.36-1.61-4.94-3.88-.01-.43.01-.97.13-1.58.11-.58.27-1.06.43-1.44,1.51-3.47,3.02-6.94,4.52-10.41,1.55,3.52,3.1,7.05,4.65,10.57.15.34.33.9.35,1.6Z"/>
    <path class="cls-3" d="m87.17,106.66c.01.47-.06.87-.13,1.16-.54,2.33-2.64,3.99-5.01,3.98-2.32-.01-4.36-1.61-4.94-3.88-.01-.43.01-.97.13-1.58.11-.58.27-1.06.43-1.44,1.51-3.47,3.02-6.94,4.52-10.41,1.55,3.52,3.1,7.05,4.65,10.57.15.34.33.9.35,1.6Z"/>
  </g>
</svg>