<?xml version="1.0" encoding="UTF-8"?>
<svg id="Capa_3" data-name="Capa 3" xmlns="http://www.w3.org/2000/svg" viewBox="0 0 128 128">
  <defs>
    <style>
      .cls-1 {
        fill: #1d1d1b;
      }

      .cls-1, .cls-2 {
        stroke-width: 0px;
      }

      .cls-2 {
        fill: #fff;
      }
    </style>
  </defs>
  <path class="cls-1" d="m61.73,117.48c-25.88-6.57-44.6-31.88-44-58.57.18-18.88,8.9-35.87,25.41-45.48,26.09-15.03,61.28-4.75,68.89,26.08,2.27,9.6,1.33,20.16-3.23,28.98-7.12,13.93-24.11,22.12-39.54,18.53-20.42-4.01-31.22-27.65-20.11-45.4,7.67-12.41,26.74-15.78,37.27-5.2,11.04,10.66,6.26,31.62-10.4,31.96-8.68.29-15.94-7.83-13.08-16.35,1.44-4.99,7.41-7.99,12.05-5.86,0,0,.64.29.64.29l-.35,1.16c-3.8-.99-8.01,1.53-8.33,5.41-.89,7.15,7.44,10.52,12.57,6.25,5.73-4.73,2.64-14.83-4.29-16.42-6.91-2.02-14.81,2.73-15.91,9.88-1.72,7.38,2.19,15.31,8.8,18.7,4.23,2.12,9.23,2.73,13.92,1.92,10.25-1.74,18.02-10.35,19.28-20.69,2.08-12.67-4.61-25.88-15.76-32.18-4.95-2.68-10.56-4.22-16.17-4.54-9.5-.75-19.46,2.08-27.28,7.68-18.58,12.83-23.1,39.14-14.97,59.39,6.03,15.44,19.13,27.87,34.97,33.11,0,0,.66.22.66.22l-.39,1.3-.68-.18h0Z"/>
  <g>
    <path class="cls-1" d="m61.93,126.23c-.9,0-1.81-.13-2.72-.4C23.52,115.08,3.23,77.3,13.98,41.61c4.31-14.31,13.94-26.09,27.1-33.16C54.25,1.38,69.39-.14,83.7,4.17c24.63,7.42,38.64,33.49,31.22,58.12-3.02,10.03-9.76,18.28-18.99,23.23-9.23,4.95-19.83,6.02-29.86,3-17.55-5.29-27.53-23.87-22.25-41.42,4.53-15.04,20.45-23.59,35.49-19.06,6.31,1.9,11.5,6.14,14.62,11.95s3.79,12.48,1.89,18.79c-.3,1.01-.67,1.98-1.11,2.92.92-1.49,1.65-3.12,2.17-4.84,2.14-7.11,1.39-14.63-2.13-21.18s-9.37-11.33-16.48-13.47c-19.6-5.91-40.35,5.24-46.25,24.84-7.75,25.74,6.88,52.99,32.62,60.74,4.98,1.5,7.8,6.76,6.3,11.74-1.23,4.08-4.97,6.71-9.02,6.71Z"/>
    <path class="cls-2" d="m61.93,126.48c-3.72-.21-7.15-1.95-10.57-3.3-5.63-2.46-10.91-5.73-15.67-9.62C12.37,94.7,3.7,60.56,16.36,33.14,29.29,4.86,64.87-7.92,92.66,6.35c19.59,10.18,29.99,33.3,24.3,54.66-3.17,13.81-14.24,25.24-27.76,29.31-14.74,4.65-32.52.24-41.82-12.55-15.03-19.85-5.49-49.9,20.36-53.19,14.77-1.7,28.5,7.37,31.27,22.28.97,5.35.33,10.92-1.96,15.92l-4.56-2.45c1.02-1.64,1.73-3.38,2.21-5.33,2.61-9.71-1.34-20.66-9.46-26.56-13.59-9.73-33.97-5.81-44.6,6.64-3.1,3.52-5.39,7.72-6.94,12.16-.35,1-.95,3.55-1.26,4.6-.34,1.5-.51,3.2-.79,4.71-.15,1.07-.22,3.67-.31,4.78,0,1.54.14,3.25.18,4.8.49,4.25,1.36,8.47,2.9,12.47,3.59,9.55,10.34,18.07,19.02,23.45,3.52,2.37,7.82,4.09,11.81,5.49,10.14,3.88,7.59,18.79-3.33,18.93h0Zm0-.5c10.12-.19,12.56-14.17,3.03-17.62-8.46-2.53-16.46-7.11-22.52-13.6-3.85-3.94-7.06-8.81-9.38-13.8-9.05-19.45-4.63-46.25,15.16-57.31,8.04-4.71,17.78-6.41,26.95-4.68,4.61.93,9.25,2.6,13.04,5.44,11.83,8.43,16.23,25.99,8.69,38.64-1.77,2.72-5.85.48-4.56-2.45,3.69-7.99,1.91-18.12-4.3-24.4-4.96-5.28-12.63-7.48-19.77-6.79-10.69,1.08-20.28,9.17-22.68,19.79-3.68,13.45,3.08,28.64,15.42,35.09,20.74,10.88,47.26-1.41,52.69-24.14,5.84-21.25-5.38-44.14-25.57-52.87-26.1-11.33-58.04.94-70.26,26.58-12.99,26.54-4.87,60.9,18.13,79.31,4.72,3.86,9.96,7.1,15.56,9.54,3.33,1.32,6.76,3.04,10.36,3.26h0Z"/>
  </g>
  <path class="cls-2" d="m61.85,117.05c-16.52-4.71-30.55-17.09-37.37-32.88-9.92-21.97-5-51.65,15.78-65.79,11.18-7.91,25.9-10.76,39.2-7.31,24.28,5.56,37.38,33.3,25.86,55.49-11.55,21.95-46.76,23.23-54.88-2.14-2.75-9.04-.47-19.84,7.22-25.78,9.4-7.71,25.57-5.62,30.31,6.31,2.73,6.55.95,15.22-5.36,19.03-5.96,3.9-15.34,2.16-18-4.85-2.91-6.87,2.66-15.01,10.26-12.54,0,0,.24.08.24.08l-.14.46-.24-.06c-6.74-1.64-11.3,5.48-8.4,11.31,3.56,7.54,15.12,6.11,18.22-1.08,3.27-6.9-.77-15.9-8.06-18.06-14.92-4.21-25.49,9.65-21.17,23.66,6.94,20.9,36.38,19.39,46.13,1.48,3.87-6.98,4.78-15.45,3.17-23.23-5.97-26.62-36.35-35.03-58.81-22.91-23.19,12.42-29.68,42.01-19.94,65.31,6.39,15.63,19.95,28.03,36.14,32.99,0,0,.24.07.24.07,0,0-.14.47-.14.47,0,0-.24-.07-.24-.07h0Z"/>
</svg>