<?xml version="1.0" encoding="UTF-8"?>
<svg id="Capa_2" data-name="Capa 2" xmlns="http://www.w3.org/2000/svg" viewBox="0 0 128 128">
  <defs>
    <style>
      .cls-1 {
        fill: #fff;
      }

      .cls-1, .cls-2, .cls-3, .cls-4 {
        stroke-miterlimit: 10;
        stroke-width: .25px;
      }

      .cls-1, .cls-2, .cls-4 {
        stroke: #1d1d1b;
      }

      .cls-2 {
        fill: #e30613;
      }

      .cls-3 {
        stroke: #fff;
      }

      .cls-3, .cls-5 {
        fill: #1d1d1b;
      }

      .cls-5 {
        stroke-width: 0px;
      }

      .cls-4 {
        fill: none;
      }
    </style>
  </defs>
  <path class="cls-4" d="m123.2,89.85c-.57,9.41-5.38,15.83-5.38,15.83-7.73,10.31-20.88,10.49-22.64,10.48-3.49,0-6.33-.67-8.14-1.21-5.97.17-12.82.77-20.3,2.13-10.3,1.87-19.07,4.71-26.11,7.53-.3-.66-.86-2.11-.68-3.99.2-2.18,1.26-3.66,1.71-4.22-4.56-1.42-14.25-5.14-22.58-14.48-1.48-1.66-11.19-12.84-12.31-27.82-.55-7.32,1.01-14.82,1.25-15.96.58-2.7,1.25-4.93,1.78-6.52-1.39-2.41-2.43-5.05-3.05-7.86-.37-1.69-.5-3.15-.61-4.32-.29-3.18-.22-5.72-.17-6.5.15-2.56,1.36-10.38,7.64-16.42,7.55-7.26,17.28-7.01,20.55-6.93,4.71.12,8.49,1.28,10.93,2.23,4.5-.78,8.08-1.56,10.33-2.08,8.97-2.07,13.03-3.7,22.84-6.11,4.02-.98,7.26-1.67,9.12-2.05-.66.76-1.47,1.86-2.17,3.31-.72,1.5-1.07,2.86-1.25,3.88,4.56.45,19.37,2.52,28.39,14.48,4.95,6.55,6.16,13.43,7.3,19.84,2.23,12.62.52,23.18-1.03,29.53.79,1.28,3.04,5.07,3.99,9.41.45,2.06.59,4.16.6,4.28,0,0,.11,1.75,0,3.55Z"/>
  <g>
    <g id="Pokeball">
      <g>
        <path class="cls-3" d="m34.15,60.99c12.89,0,23.33-10.45,23.33-23.33H10.82c0,12.89,10.45,23.33,23.33,23.33Z"/>
        <path class="cls-1" d="m40.84,39.18c-.69,3.06-3.42,5.34-6.69,5.34s-6-2.28-6.69-5.34H10.12c.79,12.59,11.24,22.55,24.03,22.55s23.24-9.97,24.03-22.55h-17.34Z"/>
      </g>
      <g>
        <g>
          <path class="cls-3" d="m34.15,14.33c-12.89,0-23.33,10.45-23.33,23.33h46.67c0-12.89-10.45-23.33-23.33-23.33Z"/>
          <path class="cls-2" d="m34.15,30.8c3.27,0,6,2.28,6.69,5.34h17.34c-.79-12.59-11.24-22.55-24.03-22.55s-23.24,9.97-24.03,22.55h17.34c.69-3.06,3.42-5.34,6.69-5.34Z"/>
        </g>
        <g>
          <circle class="cls-1" cx="34.15" cy="37.66" r="5.82"/>
          <circle class="cls-1" cx="34.15" cy="37.66" r="4.07"/>
        </g>
      </g>
    </g>
    <g id="Pokeball-2" data-name="Pokeball">
      <g>
        <path class="cls-3" d="m95.18,111.41c12.89,0,23.33-10.45,23.33-23.33h-46.67c0,12.89,10.45,23.33,23.33,23.33Z"/>
        <path class="cls-1" d="m101.87,89.6c-.69,3.06-3.42,5.34-6.69,5.34s-6-2.28-6.69-5.34h-17.34c.79,12.59,11.24,22.55,24.03,22.55s23.24-9.97,24.03-22.55h-17.34Z"/>
      </g>
      <g>
        <g>
          <path class="cls-3" d="m95.18,64.75c-12.89,0-23.33,10.45-23.33,23.33h46.67c0-12.89-10.45-23.33-23.33-23.33Z"/>
          <path class="cls-2" d="m95.18,81.22c3.27,0,6,2.28,6.69,5.34h17.34c-.79-12.59-11.24-22.55-24.03-22.55s-23.24,9.97-24.03,22.55h17.34c.69-3.06,3.42-5.34,6.69-5.34Z"/>
        </g>
        <g>
          <circle class="cls-1" cx="95.18" cy="88.08" r="5.82"/>
          <circle class="cls-1" cx="95.18" cy="88.08" r="4.07"/>
        </g>
      </g>
    </g>
    <g>
      <path class="cls-5" d="m12.25,55.1c0,6.41.58,12.77,2.12,18.79.31,1.52.87,2.97,1.36,4.43.42,1.48,1.12,2.85,1.73,4.23l.46,1.04c.15.34.37.66.55.99l1.13,1.95c.19.32.36.66.57.96l.67.9,1.3,1.81c3.59,4.71,8.37,8.37,13.78,10.61l2.04.8c.34.13.67.28,1.01.42.34.14.7.22,1.05.34.71.21,1.4.45,2.09.7.69.25,1.37.52,2.09.69,1.43.39,2.81.91,4.25,1.33,1.45.39,2.9.79,4.36,1.25l-1.28,8.17c-1.69-.16-3.39-.38-5.09-.6-1.7-.26-3.37-.76-5.04-1.19-.84-.21-1.65-.53-2.46-.86-.81-.33-1.62-.66-2.41-1.02-.4-.18-.8-.34-1.19-.55-.38-.22-.77-.42-1.15-.65l-2.27-1.34c-5.91-3.77-11.25-8.61-14.87-14.55-3.65-5.91-5.68-12.56-6.43-19.16-.78-6.61-.35-13.2.74-19.57l.9.08Z"/>
      <polygon class="cls-5" points="71.85 111.24 43.5 121.03 50.71 110.07 44.76 98.38 71.85 111.24"/>
    </g>
    <g>
      <path class="cls-5" d="m115.23,69.87c0-6.41-.58-12.77-2.12-18.79-.31-1.52-.87-2.97-1.36-4.43-.42-1.48-1.12-2.85-1.73-4.23l-.46-1.04c-.15-.34-.37-.66-.55-.99l-1.13-1.95c-.19-.32-.36-.66-.57-.96l-.67-.9-1.3-1.81c-3.59-4.71-8.37-8.37-13.78-10.61l-2.04-.8c-.34-.13-.67-.28-1.01-.42-.34-.14-.7-.22-1.05-.34-.71-.21-1.4-.45-2.09-.7-.69-.25-1.37-.52-2.09-.69-1.43-.39-2.81-.91-4.25-1.33-1.45-.39-2.9-.79-4.36-1.25l1.28-8.17c1.7.16,3.39.38,5.09.6,1.7.26,3.37.76,5.04,1.19.84.21,1.65.53,2.46.86.81.33,1.62.66,2.41,1.02.4.18.8.34,1.19.55.38.22.77.42,1.15.65l2.27,1.34c5.91,3.77,11.25,8.61,14.87,14.55,3.65,5.91,5.68,12.56,6.43,19.16.78,6.61.35,13.2-.74,19.57l-.9-.08Z"/>
      <polygon class="cls-5" points="55.63 13.73 83.98 3.94 76.77 14.9 82.72 26.59 55.63 13.73"/>
    </g>
  </g>
</svg>